<svg width="49" height="43" fill="none" xmlns="http://www.w3.org/2000/svg"><path fill-rule="evenodd" clip-rule="evenodd" d="M34.486 35.434c2.736-1.152 3.819 3.115 1.45 3.97-1.42.512-2.459-.335-2.763-1.288-.487-1.524.345-2.275 1.313-2.682zm-23.234-.015c2.61-1.044 4.076 2.993 1.463 3.978-2.65.999-4.23-2.87-1.463-3.978zm18.989-13.105l6.121.001-.723 3.845-5.83-.103.431-3.743zm-7.981.152l5.875-.006-.458 3.596c-.97.428-4.027.158-5.397.12l-.02-3.71zm-9.986 3.708c-3.948-.035-5.805.784-6.389-3.479l5.985-.01.404 3.49zm7.977-3.627l-.011 3.48-5.892-.04-.355-3.436 6.258-.004zm-8.995-5.24l.396 3.281-6.16.004L4.9 17.39l6.356-.082zm11.01.452c0-.93-.186-.852.741-.916l5.507-.137c.295.861-.05 2.56-.192 3.642l-6.061.06.005-2.65zm-2.017-.747l.004 3.327c-1.109.34-5.157.212-6.574.21l-.4-3.413 6.97-.124zm17.107-.542l-.653 3.709-6.389.004.371-3.554 6.67-.16zm-8.084-6.11l-.447 4.294-6.565.187.08-4.063 6.932-.418zm-9.027.623l.002 3.902-7.267.275-.265-3.799 7.53-.378zm-9.637.521l.296 3.709-6.306.177-.667-3.503 6.677-.383zm28.065-1.608l-.907 4.52-6.87.21.403-4.298 7.374-.432zm-4.41 32.664h1.752c1.52-.707 3.638-1.013 4.218-4.172.519-2.832-1.05-4.855-2.76-5.575L42.7 3.92c1.387-.15 3.797.144 4.849-.113.915-.224 1.862-1.422.063-2.922h-6.674c-1.691 1.443-.833 3.84-1.834 5.908L5.216 8.75C3.637 8.8.92 8.494.612 10.063c-.206 1.043 2.386 14.195 2.69 15.168 1.305 4.186 5.145 3.812 8.107 3.811 7.853 0 15.74.074 23.652.006l-.554 3.029c-1.332.202-11.667.066-13.935.066-3.833 0-10.39-.806-12.485 1.607-2.688 3.095-.962 7.867 2.742 8.604 3.528.702 7.238-1.92 5.844-7.13h13.771c-.653 1.934-.683 3.183.318 4.871 1.019 1.717 1.517 1.542 3.501 2.465z" fill="#fff"/></svg>