<?xml-stylesheet type="text/css" href="../../css/style.min.css"?><svg xmlns="http://www.w3.org/2000/svg" width="42" height="42"><path fill-rule="evenodd" clip-rule="evenodd" d="M26.24 34.8l.01.01s-.014-.006-.01-.01zM12.064 3.294l.01-.01s-.014.007-.01.01zm8.406 31.647l.01-.01s-.013.006-.01.01zM17.13 9.2l.01-.01s-.014.007-.01.01zm9.989 25.177l.01-.01s-.014.007-.01.01zm-11.256-17.44l.01-.011s-.013.007-.01.01zm23.778 9.036l.01-.01s-.014.007-.01.01zM28.385 19.96l.01-.01s-.013.007-.01.01zm10.763-3.34l.01-.01s-.013.006-.01.01zm.493 10.478l.01-.01s-.014.007-.01.01zM1.16 15.847l.01-.01s-.014.007-.01.01zm16.144-14.1l.01-.01s-.013.006-.01.01zm19.522 30.1l.01-.011s-.014.007-.01.01zm-21.913-10.83l.01-.011s-.014.007-.01.01zm-7.316 7.77l.01-.01s-.014.007-.01.01zm23.32 10.127l.01-.01s-.014.007-.01.01zm-16.04-22.188l.011-.01s-.014.007-.01.01zm-.95 8.37l.011-.011s-.014.007-.01.01zM1.09 26.255l.01-.011s-.013.007-.01.01zm16.18-5.732l.01-.01s-.013.006-.01.01zm22.195-5.837l.01-.01s-.014.006-.01.01zM26.943 16.41l.01-.01s-.013.006-.01.01zM21.245 34.8l.01-.01s-.014.007-.01.01zm4.608-16.878l.01-.01s-.014.006-.01.01zm-5.382.176l.01-.01s-.013.006-.01.01zm2.709-.457l.01-.01s-.014.006-.01.01zM13.05 18.8l.01-.01s-.014.006-.01.01zm.773 0l.01-.01s-.013.006-.01.01zm25.853 7.244l.01-.01s-.014.006-.01.01zm-37.882 1.16l.01-.01s-.014.006-.01.01zm25.36-5.907l.01-.01s-.013.006-.01.01zM13.05 23.371l.01-.01s-.014.007-.01.01zm.457-1.125l.01-.01s-.014.006-.01.01zM30.496 39.23l.01-.01s-.014.006-.01.01zM5.557 9.06l.01-.01s-.013.006-.01.01zM24.41 22.21l.011-.01c0 .001-.014.007-.01.01zM3.975 14.44l.01-.01s-.014.006-.01.01zm25.782 25.317l.01-.01s-.014.007-.01.01zM5.663 7.584l.01-.01s-.014.006-.01.01zm19.31-6.013l.01-.01s-.013.007-.01.01zm-9.813.95l.01-.011s-.014.007-.01.01zm-7 6.012l.01-.01s-.013.007-.01.01zm7.457-6.505l.01-.01s-.014.007-.01.01zm1.09 2.708l.01-.01s-.013.006-.01.01zm5.91 31.049l.01-.01s-.014.006-.01.01zm1.266-21.836l.01-.011s-.014.007-.01.01zM4.22 31.846l.01-.011s-.014.007-.01.01zm-2.884-8.405l.01-.01s-.014.007-.01.01zm37.952-9.036l.01-.01s-.014.006-.01.01zM1.372 25.974l.01-.01s-.014.007-.01.01zm38.163-10.443l.01-.01s-.013.006-.01.01zm-25.184 9.318l.01-.01s-.014.007-.01.01zm17.41 10.514l.011-.01s-.014.006-.01.01zM.529 19.997l.01-.01s-.014.006-.01.01zm25.36-.95l.01-.01s-.014.007-.01.01zm-12.381-6.013l.01-.01s-.014.007-.01.01zm-3.623-7.63l.01-.01s-.014.006-.01.01zm29.686 9.88l.01-.01s-.013.007-.01.01zM3.904 11.629l.01-.01s-.013.006-.01.01zm-.316-1.231l.01-.01s-.014.006-.01.01zm15.019 5.978l.01-.01s-.014.006-.01.01zm-2.85.527l.011-.01s-.014.007-.01.01zm23.532-2.426l.01-.01s-.014.006-.01.01zM10.235 4.982l.01-.01s-.013.006-.01.01zm12.24 10.443l.011-.01s-.014.007-.01.01zm-6.084 1.266l.01-.01s-.014.007-.01.01zM26.767 2.626l.01-.01s-.013.006-.01.01zm-14.28.281l.01-.01s-.014.007-.01.01zm-7.14 28.728l.01-.01s-.014.007-.01.01zm9.672-5.696l.01-.01s-.013.007-.01.01zm13.964 13.292l.01-.01s-.013.006-.01.01zm-5.874-14.136l.01-.01s-.014.007-.01.01zm-7.492 8.756l.01-.01s-.014.006-.01.01zm-5.065-4.923l.01-.01s-.013.006-.01.01zm19.521 9.986l.01-.01s-.013.007-.01.01zM16.637 1.22l.01-.01s-.013.007-.01.01zM15.23 16.445l.01-.01s-.013.007-.01.01zm-10.798-.633l.01-.01s-.014.007-.01.01zm21.456 25.036l.01-.01s-.014.007-.01.01zm.774-24.72l.01-.01s-.014.007-.01.01zM3.904 10.502l.01-.01s-.013.007-.01.01zm15.547-8.404l.01-.01s-.013.007-.01.01zm-8.266 36.605l.01-.01s-.013.007-.01.01zm7.492 2.989l.01-.01s-.013.006-.01.01zm-.95-19.727c.004.004.011-.015.011-.01 0 0-.014.007-.01.01zm0 18.918c.004.004.011-.015.011-.01 0 0-.014.007-.01.01zm1.267-13.327c.003.004.01-.015.01-.01 0 0-.014.007-.01.01zM29.3 38.668c.003.003.01-.015.01-.01 0 0-.014.006-.01.01zm2.884-1.16c.003.003.01-.016.01-.01 0 0-.014.006-.01.01zm.14-29.502c.004.003.011-.016.011-.01 0 0-.014.006-.01.01zm-13.576 9.67c.003.003.01-.016.01-.01 0 0-.014.006-.01.01zm-6.508 7.138c.004.003.01-.016.01-.01 0 0-.013.006-.01.01zm19.838 12.694c.004.003.01-.016.01-.01 0 0-.013.006-.01.01zm-12.697-14.91c.003.004.01-.015.01-.01 0 0-.014.007-.01.01zm-2.11-5.344c.003.003.01-.016.01-.01-.001 0-.014.006-.01.01zm9.672.633c.003.003.01-.016.01-.01 0 0-.014.006-.01.01zm.95 2.707c.003.004.01-.015.01-.01 0 0-.014.007-.01.01zm4.432 16.632c.003.004.01-.015.01-.01 0 0-.014.007-.01.01zM30.32 21.86c.003.003.01-.015.01-.01 0 0-.014.006-.01.01zm-10.94-7.314c.004.004.011-.015.011-.01 0 0-.014.007-.01.01zm2.111 13.749c.003.003.01-.016.01-.01 0 0-.013.006-.01.01zm5.241-7.595c.003.003.01-.016.01-.01 0 0-.014.006-.01.01zm3.412 18.6c.003.004.01-.015.01-.01 0 .001-.014.007-.01.01zm6.648-16.174c.003.003.01-.016.01-.01 0 0-.014.006-.01.01zm-7.14-18.812c.003.003.01-.016.01-.01 0 0-.014.006-.01.01zm-9.357 31.365c.004.004.01-.015.01-.01 0 0-.013.007-.01.01zm12.874-3.798c.003.004.01-.015.01-.01 0 0-.014.007-.01.01zm-20.12-7.911c.004.003.01-.016.01-.01 0 0-.013.006-.01.01zm8.864 1.582c.004.004.01-.015.01-.01 0 0-.013.007-.01.01zm-2.357 5.697c.004.003.011-.016.011-.01 0 0-.014.006-.01.01zm14.105-4.747c.004.003.01-.016.01-.01 0 0-.013.006-.01.01zm3.166-16.316c.003.003.01-.016.01-.01 0 0-.014.006-.01.01zm-12.03-8.65c.004.003.01-.016.01-.01 0 0-.013.006-.01.01zM17.06 40.883c.004.004.01-.015.01-.01 0 0-.013.007-.01.01zm1.583-27.286c.003.003.01-.016.01-.01 0 0-.013.006-.01.01zm17.305-1.407c.004.004.01-.015.01-.01h.001s-.014.007-.01.01zM.844 15.812c.004.003.01-.015.01-.01 0 0-.013.006-.01.01zm22.335.95c.004.003.01-.016.01-.011 0 0-.013.007-.01.01zm1.724-.74c.004.004.01-.014.01-.01 0 .001-.014.007-.01.01zm-.633 16.985c.003.003.01-.016.01-.01 0 0-.014.006-.01.01zm-5.698-13.01c.003.003.01-.016.01-.011 0 0-.014.007-.01.01zm8.125 11.99c.003.003.01-.015.01-.01 0 0-.014.006-.01.01zM19.416 7.76c.003.003.01-.016.01-.01 0 0-.014.006-.01.01zm15.406 21.59c.003.003.01-.016.01-.01 0 0-.014.006-.01.01zM24.059 41.41c.003.004.01-.015.01-.01 0 0-.014.007-.01.01zm16.32-14.908c.004.003.01-.016.01-.011 0 0-.013.007-.01.01zm-20.4 9.388c.003.004.01-.015.01-.01 0 0-.014.006-.01.01zm8.09-15.542c.003.003.01-.015.01-.01 0 0-.014.006-.01.01zm-3.623 5.063c.003.004.01-.015.01-.01 0 0-.014.007-.01.01zm8.406-1.723c.004.004.01-.015.01-.01 0 0-.013.007-.01.01zm-10.868 1.9c.003.003.01-.016.01-.011 0 0-.014.007-.01.01zm.457 10.76c.003.003.01-.016.01-.011 0 0-.014.007-.01.01zm3.13-34.742c.004.004.01-.015.01-.01s-.013.007-.01.01zM12.768 23.513l.012.011.004-.006-.016-.005zm12.24-8.967v-.035l.036.035h-.035zm0-.035l-.035.035c-.095-.022-.113-.037-.2-.08l-.395-.204c-.06-.027-.02-.013-.092-.049-.05-.025-.08-.035-.12-.054l-.67-.343-.004-.01.004-.034c-.127.027-.048.036-.165-.01l-.268-.116c-.066-.045-.06-.09-.06-.296.127.003.069 0 .148.029l.145.066c.187.087.156.11.35.213.066.035.082.045.133.078.02.013.112.073.129.082l.922.555c.156.096.103.025.179.138zM14.457 24.849v-.035l-.04.029.04.006c-.056.05-.112.098-.175.14-.048-.025-.068-.029-.111-.065-.12-.1-.111-.268-.17-.392.138-.037.114-.076.285-.135.073-.025.053 0 .136-.04 0 .185.053.294.058.366l.002.027-.025.099zM30.601 14.58h.035l-.029-.04-.006.04c-.132-.07-.263-.162-.422-.176V6.318c0-1.131.145-.851-.67-1.337-.203-.122-.514.046-.717.101l-2.162.642c-.115.036-.24.077-.379.113l-.294.093c-.044.015-.07.02-.108.033l-.278.074-.029.005-.498.135-.287 1.182c-.01.033-.008.032-.016.06l-.076.382c-.14.583-.32 1.204-.426 1.791-.015.085-.017.128-.032.18l-.07.291c-.017.146-.285 1.327-.36 1.49-.042.092.025.058-.035.04-.092.003-.106.086-.015-.402l.42-2.68c.04-.508.193-.938.193-1.455l-.455-.248c-.474-.278-.58-.072-1.078.052-.374.092-.682.233-1.057.311l-1.303.389c-.165.043-.205.008-.222.164-.449-.01-.18-.055-.673.102l-.654.19c-.248.09-.496.119-.675.201-.281.13-1.469.395-1.828.532-.181.069-.363.087-.54.163-.262.112-.56.184-.837.253l-2.404.7c-.137.052-.162.144-.212.273l-.642 2.207-.009.02-.003.071-.708 2.387c-.023.072-.04.182-.061.255l-.348 1.131c-.084.178-.12.414-.19.618-.1.296-.224.604-.268.927-.057.426-.008 1.823-.008 2.348.113.03.06.022.162.084.131.078.406.256.542.267-.014.16-.173.234-.295.339l-1.678 1.487-.019.016-.019.016c-.517.46-.367.322-1.155.322H4.432l-.82 5.264c-.057.347-.104.728-.175 1.091l-.342 2.155.34.223c.143.112.564.444.739.402l.816-.349c.33-.134 1.01-.374 1.35-.446l1.778-.435c.401-.096.78-.126 1.126-.194l.318-.05c.083-.01.145-.038.233-.055.168-.032.165-.028.23.06-.276 0-.498.099-.77.145-.133.023-.218.055-.376.078l-.07.008-.634.18a1.385 1.385 0 01-.068.026l-3.047 1.14c-.093.037-.132.023-.2.045-.15.05-.003-.026-.133.114-.063.068-.067.07-.154.092l.504.405c.518.229.117.4 1.208-.136.07-.034.072-.04.148-.06.069-.018.086-.01.111-.022l.787-.348c.256-.095.522-.153.758-.262.207-.095.61-.21.81-.21-.091.08-.699.284-.853.344l-.052.02a17.15 17.15 0 00-1.708.823c-.08.044-.124.07-.209.109l-.13.062c-.022.015-.099.035-.178.12.058.086.135.127.223.198l.124.087c.05.03.096.055.15.095.516.376.404.47.86.168l1.777-1.037c.422-.216.878-.397 1.323-.576l.274-.113c.583-.196 1.148-.43 1.744-.578.153-.038.031-.018.208-.003 0 .232.036.34.035.598-.006 1.08.02 2.2-.035 3.27-.01.187-.095.423.035.563a.453.453 0 00.187.13c.2.052.133-.063.27.08-.003-.144-.022-.133-.026-.285l-.007-.138a3.48 3.48 0 01.068-.842c.005.007.01.011.01.024.002.013.01.02.011.025.057.168.05.337.05.513l.035.633c.517 0 .457-.213.457-.703 0-.415-.02-.835.128-1.24.062-.17.139-.497.223-.66l.235-.352.012-.014.011-.014c.049-.059.091-.117.178-.13.213-.029.212.163.2.37-.021.396-.386.656-.74.74.005.282.207.632.312.866.072.16.426.887.838.815.188-.032.453-.302.502-.486-.247-.058-.302-.056-.473-.23-.021-.023-.037-.034-.074-.07l-.084-.11c-.027-.077-.03.015-.002-.047.064-.023-.02-.04.05.024.09.081.125.158.244.21.423.187.973-.314 1.008-.727h.105c0 .212.034.381.072.561.046.219.094.303.28.391.384.183.176-.167.176-.881.043-.068.035-.172.035-.247h.035c0 .226.084 1.057.16 1.177.082.13.378.081.46-.029.098-.128.012-.41.012-.62 0-.378.127-1.224.3-1.566.096-.19.185-.379.44-.438.073.11.083.125.04.352l-.094.434c-.02.162.015.019.01.194-.002.086-.022.116-.028.25-.008.219.005.303.05.479.092.354.233.991.71.844a.88.88 0 00.297-.233c-.042-.154-.322-.308-.422-.738h.105a.467.467 0 00.635.389l.18-.102c.044-.03.034-.022.06-.046.195-.176.323-.268.45-.5.077-.14.044-.164.012-.304-.186-.043-.25-.005-.379.114-.13.121-.152.168-.395.168-.06-.165-.162-.036-.142-.705.006-.212.084-.59.176-.808.072-.173.29-.613.206-.763-.062-.112-.166-.128-.275-.186l-.161.261-.022.048c-.032.062-.002.006-.04.067l-.098.218c-.008.023-.022.071-.04.1-.046.068-.015.05-.096.08.003-.139-.002-.086.032-.178a.841.841 0 01.034-.072c.032-.06.014-.03.039-.067v.035l.041-.029-.041-.006c.02-.229.17-.277.176-.562-.077-.02-.032.014-.071-.043v-.063c-.39 0-.38-.03-.728.292l-.423.491c-.053.078-.003.014-.062.079-.342.38-.355.554-.569.978-.07.138-.084.264-.187.34-.053-.224-.018-.478-.07-.703-.412-.096-.559.134-.631.178-.077.048-.027.009-.096.045-.236.124-.214.307-.225.552-.007.147-.027.117-.011.227.02.143.044.101.048.264-.403-.27-.34.21-.629.29-.225.06-.333-.083-.443-.239-.06-.087-.174-.27-.174-.364l.002-.019.011-.034a.24.24 0 01.008-.016c.041-.09.017-.047.091-.115.335-.31.533-.85.41-1.345-.03-.12-.09-.299-.148-.35l-.252-.133c-.257-.072-.589.095-.646.248-.073.198.052.09.213.115.135.021.21.141.22.274-.155-.041-.28-.342-.769.075-.312.267-.318.416-.496.734l-.071.105c-.064-.273-.072-.753-.026-1.08.045-.312-.024-.664.06-1.03l1.78-.331c.053-.01.113-.024.18-.03.132-.014.12.016.232-.015l.076-.029c.255-.074 1.73-.203 2.081-.241l1.236-.07c.116.002.072.01.197-.006.25-.033 2.656-.027 3.257.021.267.022.46.06.776.068.238.005 1.706.174 1.935.248.194.062.108-.022.28.07-.035.131-.074.107-.155.23-.108.163-.304.694-.428.976a1.105 1.105 0 00-.007.016l-.559 1.356c-.094.186-.156.337-.245.528l-.13.258c-.062.114-.382.71-.375.784.029.109.087.151.17.216.207.16.1.12.217.206.04-.147.071-.102.116-.205.076-.177.226-.611.341-.744-.012.15-.115.362-.168.497l-.077.205c-.034.089-.049.185-.072.282.318.168.664.331 1.113.233.547-.12.666-.495.892-.514-.058.11-.113.144-.14.246h-.035l.029.041.006-.04c.081-.022.42-.192.477-.262l.389-.42.016-.02.087-.087c.136-.132.097-.142.186-.272.27-.393.63-1.132.514-1.664-.045-.208-.127-.342-.299-.44-.132-.074-.208-.187-.561 0 .011.136.023.119.085.195a.675.675 0 01.116.536l-.041.123c-.012.068-.003.052.015.13-.18-.132.017-.285-.114-.554a.591.591 0 00-.362-.305 1.634 1.634 0 00-.636-.006c-.077.017-.145.046-.228.069l-.038.01-.204.048c.153-.32-.069-.333.358-.803.158-.174.09-.123.413-.254.274-.111.417-.02.732-.113.11-.034.463-.052.605-.065.449-.044.731.128 1.066.206.135.032.429.05.484.185h-.035l.029.04.006-.04c.242-.051 1.507.493 1.727.559.374.112.666.29 1.011.43l.776.387.056.037.056.044c.096.056.068-.002.285.153l.322.17c.136.07.188.111.299.194.104.079.186.117.301.191.353.23.212.27.631-.008l.445-.329c.122-.087.158-.079.246-.21l-1.682-.886c-.071-.034-.12-.05-.192-.089l-1.11-.435c-.07-.027-.062-.025-.111-.068a.82.82 0 01.326.061l1.413.49.046.023 1.463.647c.255.139.498-.18.803-.37.09-.056.184-.106.24-.182-.03-.045-.017-.035-.066-.075l-.11-.066h.035l-.029-.041-.006.04a1.956 1.956 0 00-.276-.146l-.86-.404c-.11-.052-.208-.076-.31-.113l-.224-.093c-.091-.04-.026-.015-.1-.04-.035-.012-.047-.013-.082-.024l-.103-.038c-.504-.2-2.084-.636-2.578-.728l-.667-.141-.026-.01-.05-.02c.237-.055.237.005.463.03l1.508.25c.488.119 1.016.209 1.492.374l.024.01c.057.018.03.012.09.02l.513.144.019.01.018.008.827.284c.32.135.459.143.828.334.22.115.273.014.416-.086.137-.096.604-.434.731-.464l-1.283-8.351c-.04-.239.022-.194-.51-.194h-.704c-.084.175-.062.49-.39.631-.097.042-.141.075-.258.056-.313-.052-.658-.403-.724-.686-.326 0-1.213.043-1.475-.003-.167-.03-.101-.096-.295-.232-.19-.133-.163-.149-.305-.258l-.192-.16-.019-.016-1.006-.857c-.225-.21-.358-.344-.612-.514v-2.18c.236 0 .329-.038.493 0v.035l.04-.03-.04-.005c.09-.078.06-.067.21-.07v-3.622c-.166-.039-.17-.045-.28-.14zM27.26 20.7h.035l-.03-.041-.006.04c-.11-.08-.05.01-.08-.169-.022-.127-.003-.234.106-.333.136-.125.002.001.15-.06 0 .346.13.299-.07.598-.186 0-.052 0-.105-.035zm.035.703h-.036l.03.04.006-.04c.164.092.006.124-.036.281-.164-.004-.09-.013-.206-.04-.161-.037-.034-.01-.216.005-.01-.045-.05-.23-.052-.234l-.079-.09c-.05-.058-.016-.009-.044-.063l.105-.07c.054-.05.017-.05.07 0 .072.017.114.047.152.05.11.01.017-.01.165-.05.088.084.02.014.075.1.018.029.042.075.066.11zM20.33 1.219v.035l.041-.029-.04-.006-.073-.14c-.153.003-.108.023-.244.035-.003.127-.031.102-.074.232s.045.114-.172.12v-.352c-.347 0-.254-.037-.258.205l.012.462c-.002.19-.06.396.171.357.208-.034.051-.231.145-.427.184.05.115.097.17.252.085.238.49.26.25-.107-.159-.24-.018-.194-.174-.25l.246-.387zm4.89 13.362h-.036l.03.041.006-.04c.075.052.046.004.07.105-.11-.003-.068.014-.15-.027-.072-.035-.07-.04-.096-.114.076-.032.006-.026.087-.008.114.025.052.018.088.043zm-.352 3.235h.035l-.03-.04-.005.04c-.008-.004-.02-.018-.023-.012-.003.006-.018-.01-.022-.013-.043-.037-.195-.235-.094-.261.1-.026-.04-.039.11.063.193.131.61.175.838.188l.914.176c.102-.032.247-.486.794.155.102.119.152.131.156.302-.234-.055-.207-.229-.385-.357-.07-.05-.092-.07-.178-.03v-.035l-.04.03.04.005-.04.024c-.143.132.033.202-.206.222-.026-.109-.045-.101-.07-.21-.233.005-.115.08-.317.037-.115-.024.037-.005-.092-.02-.361-.04-.263-.064-.561-.078-.009 0-.101-.011-.115-.013l-.643-.134c-.06-.031-.03-.014-.066-.039zM16.954 1.571v-.035l-.041.029.04.006c-.006.004-.018.002-.02.012l-.059.054c-.06.09-.048.186-.237.285 0-.187-.035-.307-.07-.457-.07.034-.163.051-.247.07.004.165.112.863.176.985.13-.034.115-.094.252-.276.077-.104.146-.24.276-.286 0 .165.019.35.07.457.084-.02.177-.037.246-.07-.026-.324-.148-.662-.175-.985-.15.08-.09.071-.211.21zM1.372 16.9v.036l.04-.03-.04-.005.316-.035c.1-.15.106-.04.106-.282-.061-.014-.082-.025-.112-.025-.147 0-.265.142-.457.07-.209-.08-.202-.142-.205-.256H.809c-.036.155-.081.18.054.298.151.13.187.043.192.265-.268 0-.387-.202-.387.211l.837.2c.095.008.122.009.162-.063.004-.008.034-.124-.011-.172-.136-.142-.332.058-.355-.211h.07zm4.396 8.721h-.035l.03.041.005-.04.026-.045c.115-.256.533-1.932.678-2.206.39 0 .613.035.914-.035-.01.127-.053.21-.092.33l-.262.862a.13.13 0 00-.01.025l-.033.073-.01.026-.1.386c-.016.104-.061.196-.098.33l-.219.695c-.186.703.053 3.07-.055 3.532-.21 0-.265.066-.457.07v-.985c-.111.128-.072.22-.07.493.002.237-.036.321-.036.527-.128-.06-.232.083-.457.035V28.54c0-.432.035-.76.035-1.16l-.076.275c-.012.09-.044.217-.055.297l-.106.632c-.017.103-.022.246-.033.318l-.152.974c-.183 0-.867.19-.936.157-.058-.027-.029-.088-.014-.187l.776-4.926c.02-.15.038-.119.059-.223.03-.156.032-.38.05-.547l.128-.707c.021-.028.108-.035.219-.037 0 .29-.07.484-.07.774.004-.007.01-.028.012-.023.002.005.01-.017.013-.022l.033-.073c.024-.064.032-.104.047-.163l.13-.422c.065-.12.21-.071.503-.071 0 .438-.281 1.69-.281 2.215zM32.29 29.14h.036l-.03-.041-.006.04-.068.039c-.002-.085.002-.123-.014-.202l-.058-.153c0 .195.023.243.035.387-.245-.101-.211.15-.288-.486l-.522-4.612c-.025-.288-.07-.472-.07-.81l.915.036c-.032.077.066.384.079.656.004.083-.003.2.03.324.045.173.01.214.102.32l.035-1.3h.387l.075.287.008.02.093.22c0-.227-.035-.35-.035-.527.07 0 .178-.008.246.035h-.035l.03.04.005-.04h.035c.08.075.094.157.104.318.012.203.003.205.044.378l.31 2.327c.012.137.036.228.056.367l.25 1.93c.038.26.08.524.08.798-.302 0-.522-.105-.844-.105l-.027-.06c-.071-.176-.164-1.098-.192-1.363-.016-.145-.04-.135-.062-.16 0 .505-.07 1.017-.07 1.512-.26-.021.042-.07-.598-.07-.027-.047-.02-.039-.036-.105zm-19.592-5.98v-.035l-.041.029.04.006c-.095.083-.14.102-.28.105-.081-.346-.065-.544.316-.633l.098.114c.007.215.048.365-.133.414zm2.216 17.968v.035l.04-.029-.04-.006v-.035l-.041.03.04.005zm.035-24.297v-.036l-.041.03.04.005c-.065.042-.11.036-.21.036 0 .189-.025.232 0 .351l.09-.05.019-.017.018-.016c.205-.16.213-.064.396-.202.103-.078-.014-.066.215-.066.03.09-.016.06.035.034l.007-.007.02-.047.01-.02c.027-.043.027-.033.061-.07.085-.093.029.036.079-.101-.418-.221-.33-.123-.317.035-.264 0-.3 0-.422.14zm-1.688 5.626h-.036l.03.04.005-.04c.092.061.069.094.182.102.243.018.086-.161.21-.034.06.062.016.123.042.236.024.099.061.081.094.223-.18.12-.207.14-.387.14-.026-.07-.14-.191-.258-.185-.267.014-.046.104-.14-.224-.042-.142-.051-.026-.094-.188.067-.092.249-.218.351-.07zm23.284 7.49h.036l-.03-.042-.006.041h-.14l-.176-.843c0 .304.035.486.035.808-.137-.011-.092-.032-.246-.035l-.246-1.653c-.11.08-.074.163-.071.351v1.197h-.175c-.004-.16-.036-.14-.036-.317l-.07.281c-.127-.01-.29-.049-.42-.073-.382-.072-.294.106-.45-1.062l-.713-5.23c.279 0 .157-.043.259.408.024.106.023.201.042.312a2.5 2.5 0 00.029.147l.057.154c0-.201-.044-.358-.06-.535 0-.007 0-.017-.002-.024l-.079-.426c.14-.057.4 0 .704 0 0 .33.146.87.166 1.301.006.147-.104.09.08.106 0-.153-.02-.194-.013-.298l.013-1.109c.194 0 .321-.005.468.026.262.056.16.01.411.01l.9 5.746c.043.259.12.572.12.829-.107.025-.092.028-.185.01l-.202-.08zm-9.285-9.46v.036l.04-.03-.04-.006v-.035l-.041.03.04.005zM3.166 12.401v-.035l-.041.03.04.005c-.06.107.055.172.212.176.065-.28.273-.28-.165-.54-.118-.069-.187-.13-.328-.164.01-.119.027-.128.07-.21l.412.25c.002.002.013.013.075.036l.052.017.165.048c.047-.07.064-.097.106-.176l-.526-.353c-.037-.018-.08-.029-.124-.052-.12-.066-.063-.083-.23-.122l-.351.668c.217.058.48.302.668.352l-.035.07zm18.22 24.86h-.036l.03.041.006-.04.092-.049a.864.864 0 00.042-.029c.209-.155.523-.579.646-.796l.16-.26.015-.022.323-.662c.39-.873.512-1.482.75-2.38l.131-.641c.012-.071.04-.191.047-.235.076-.44.115-.48.08-.905-.253 0-.343-.055-.398.165l-.095.468c-.055-.237 0-.105 0-.562-.713.477-.534.878-1.139 1.885-.325.54-.85.354-.326-.819l.066-.145c.162-.35.478-.862-.008-.992-.11.075-.148.182-.219.309a1.703 1.703 0 00-.167.395c-.208-.152.14-.258.14-.704-.24-.16-.347-.128-.507.126-.058.092-.093.176-.14.282-.24.541-.43.988-.534 1.576-.023.125-.035.268-.048.376-.024.206-.017.175-.005.349.01.157-.034.72.298.898.13.07.22.063.348.026l.187-.096a.651.651 0 00.226-.337.37.37 0 01-.326-.201c-.092-.15-.096-.237-.096-.467h.035c0 .413.413.487.674.394.345-.125.448-.487.627-.534l-.265 1c-.04.14-.04.156-.28.249-.056.022-.049.015-.099.04-.833.433-1.935 1.214-2.171 2.155-.133.529.203.907.666.843.148-.02.271-.077.285-.244-.148.035-.122.07-.263-.016-.192-.117-.24-.387-.222-.582.008-.096.013-.082.063-.14 0 .974.836.64 1.12.382.217-.196.184-.297.357-.312-.043.083-.06.092-.07.211zm1.899 1.16v-.035l-.041.03.041.006c-.008.005-.02 0-.025.01l-.857.093c-.25.007-.113.038-.284.067l-1.955.066c-.212-.029-.423-.017-.679-.024l-.617-.05c-.214-.031-.442-.058-.623-.081-.105-.014-.222-.025-.283-.035-.15-.025-.194-.053-.274-.067l-1.047-.194c-.17-.05-.386-.092-.567-.137l-1.787-.588c-.005-.002-.015-.005-.019-.008-.06-.034-.011-.003-.049-.044-.039-.042.038-.013-.08-.098-.06.15-.156.034-.363-.059-1.312-.587-2.598-1.284-3.721-2.187l-.545-.44-.02-.016-.42-.352c-.038-.036-.038-.04-.068-.073l-.017-.019-.368-.335c-.059-.05-.114-.1-.175-.141l-.246.141-.02.015c-.085.058-.136.077-.192.16.24.36.69.657 1.006.964l.018.018 1.09.843.06.046 2.088 1.288 2.6 1.128c.12.034.186.043.306.082.208.066.482.13.688.226.068.031-.012.007.073.032l.69.154c.377.058.878.205 1.235.243 1.035.111 2.447.256 3.473.174.123-.01.03-.012.136-.007l.48-.043c.235-.033.445-.03.68-.06.074-.009.232-.024.346-.04.111-.015.248-.012.352-.034l1.908-.413c.177-.07.29-.1.499-.1l.013-.027.01-.012.149-.068.024-.011.098-.045c.302-.114.629-.168.924-.306l1.605-.717c.096-.045.143-.086.248-.139.18-.09.318-.16.486-.252l.706-.42c.086-.053.148-.099.232-.155l.443-.295c.165-.11.272-.193.428-.31l.437-.338c.064-.046.163-.089.217-.135l.666-.6c.221-.203.568-.456.7-.706l-.282-.178-.022-.01-.06-.03c-.057-.026-.088-.06-.163-.028l-.964.865c-.33.334-1.282.991-1.633 1.216a8.93 8.93 0 00-.127.083l-1.658.945c-.41.226-.84.383-1.268.561l-.024.011c-.008.003-.017.008-.025.01l-.024.011a1.102 1.102 0 01-.026.01l-.27.116c-.448.18-.95.314-1.407.458-.466.147-1.03.223-1.485.343-.187.05-.195.006-.375.048zm-7.844 1.759h.035l-.029-.041-.006.04c-.223.053-.202.185-.5.423-.088.07-.022.21-.137-.207a10.505 10.505 0 01-.101-.39c-.162.042-.4.587-.48.75-.046.095-.038.04-.048.163.103.024.107.035.246.035.06-.111.079-.21.176-.28.133.197.06.216.14.386.381 0 .088-.186.388-.211v.316c.247.12.261.276.304-.64.008-.175-.04-.122.012-.344zm13.507-.07v.035l.04-.03-.04-.006.14-.07c-.003-.153-.035-.192-.035-.387-.12-.013-.07.047-.2-.221-.058-.122-.084-.168-.116-.306-.272.023-.235.068-.267.33-.024.195-.05.36-.05.549l.113.098c.148-.019.154-.06.169-.098h.14c.018.158-.052.088.106.105zm-7.035-16.316v.035l.041-.03-.04-.005c.035-.025.002-.007.066-.039.04-.02.04-.02.074-.034l.24-.058c.01-.002.09-.028.09-.028.096-.023.132-.017.233-.017.06.165.016-.035.08.169.056.18-.062.502-.136.619-.098.156-.638.197-.859.197l.211-.81zM2.11 14.722h-.035l.03.04.005-.04c.109.052.13.035.282.035.024-.104.035-.107.035-.246-.068-.016-.152-.03-.23-.052-.236-.07-.468-.208-.72-.23.027.116.069.226.12.338.061.132.122.15.127.33-.16-.013-.281-.072-.423-.105l-.075.245.955.318c0-.309-.188-.416-.246-.668l.175.035zm11.924 8.298v.035l.041-.029-.04-.006c.095-.083.14-.102.28-.105-.003.185-.087.274 0 .457-.1.068-.182.145-.316.176l-.135-.112-.006-.346c.073-.038.084-.048.176-.07zm6.86-21.52v-.035l-.006.004-.065-.355c-.224-.052-.112-.017-.317 0 .092.191.035.749.035 1.02.042-.029.11-.065.151-.096l.195-.193c.08-.072.142-.14.252-.169v.422c.104.024.108.035.247.035 0-.424.068-.105.038-.492-.02-.254.027-.42-.003-.562-.148.078-.14.086-.255.202l-.273.22zM13.26 24.567v.036l.04-.03-.04-.006c.04-.048-.008-.022.067-.022.15-.002.06.02.062.022l.166.095c.293.136.05-.106.338.046-.025.093.002.03-.036.106-.085.022-.047-.016-.07.07.091-.024.04.013.07-.07.088.035.013-.009.09.086l.157.265-.121.075c-.177.075-.168-.11-.583-.145a.455.455 0 00-.097-.255l-.031-.039c-.077-.092-.091-.062-.118-.163.116-.044.017.023.106-.07zm5.31-9.775v.035l.042-.029-.041-.006c.08-.11.603-.264.749-.306l.386-.141c.053-.02.193-.07.21-.071.227-.023-.056-.001.132.061.127-.12.003-.024.055-.104.083-.128.563-.202.742-.28.151-.064.193-.112.415-.162l.196-.054.023-.011.258-.089c.243-.109.671-.284.914-.284l.075.244-1.688.534c-.115.039-.175.04-.31.077l-2.439.797-.035-.07c.036-.1-.008-.056.134-.117.078-.033.113-.053.183-.024zm-.738 4.782v-.035l-.041.03.041.005c-.066.042-.112.035-.211.035-.13-.194-.075-.205-.19-.62-.156-.57-.345-1.582-.5-2.17a4.997 4.997 0 00-.04-.157c-.05-.185-.025-.193-.009-.393h.211c.123.183.276 1 .322 1.26l.113.416c.06.229.356 1.44.324 1.577l-.01.027a.113.113 0 01-.01.025zm-3.025-1.125h-.035l.03.041.005-.04c.151.173.092.209.211.456-.1-.027-.107-.041-.185-.22a1.058 1.058 0 01-.007-.017l-.077-.129c-.035-.03-.056-.038-.083-.056-.042.105.029-.002-.05.055-.057.04.018-.008-.044.027l-.024.01c-.384.19-1.2.328-1.249.584-.018.093.148 1.085.34 1.199.122.072.228.024.43.024v.07c-.223.019-.457.249-.634.176-.108-.08-.105-.231-.14-.386-.066-.279-.252-1.13-.082-1.313.078-.085.42-.187.55-.224.051-.015.061-.015.109-.032l.72-.233c.119-.031-.041-.025.112-.022.175.005.043-.008.103.03zm-1.02 3.798v-.035l-.04.029.04.006c-.032.027.006.022-.082.05-.052.018-.206.018-.283-.082-.066-.087-.067-.111-.107-.236l-.041-.159c-.02-.103-.108-.236-.007-.337.067-.067.284-.112.38-.132.066-.014.039.05.082-.042.023-.05-.012-.179-.012-.293.276-.064.3-.14.668-.14 0 .253.03.175.07.351-.242.116-.604.213-.743.277l-.137.112c-.062.108.032.6.406.548.105-.014.135-.023.263-.023v.07c-.175 0-.243.036-.457.036zm14.562-.211h.035l-.03-.041-.005.04c-.085-.034-.056-.008-.182-.24-.164-.303-.601-1.754-.572-2.13.019-.24-.076-.097-.02-.337h.176c.003.115.025.207.04.346.03.27.068.281.303.542.097.107.09.13.165.257.42.711.326 1.286.336 1.317.04.053.035.041.074.085.092.102.102.043.102.407-.209.049-.314-.042-.422-.246zm8.793-11.499h-.035l.03.041.005-.04zM13.05 18.695h-.036l.03.041.005-.04zm12.029 1.512v.035l.04-.029-.04-.006c.083-.053.129-.054.177-.006.133.132-.094.26.081.665.083.192.103.236-.107.301a1.55 1.55 0 01-.503.06l-.281-.422c-.243 0-.222.017-.387-.07.004-.19.086-.272.068-.453-.02-.203-.103-.17-.103-.462.374-.03.118-.07.492-.07l.227.336c.044.056.056.072.09.121h.246zM14.914 16.27v-.035l-.041.029.04.006-.124.086c-.249.192-.414.46-.36.819l.309 1.1c-.047.026-.039.018-.106.034-.09-.085-.057-.087-.14-.21l-.27.044c-.13.006-.062.029-.205.076-.35.117-.334-.009-.334.442-1.041.242-.441.523-.775.597l-2.18.212c0-1.8-.127-1.168.301-2.653l.758-2.548c.036-.116.08-.234.124-.368l.518-1.805c.027-.088.003-.002.03-.09l.098-.342.334-1.143c.062-.214.059-.151.273-.22l.76-.224c.248-.091.376-.08.508-.125l1.818-.539v6.294l-.32.137c-.264.115-.76.366-1.016.426zm12.24 5.767c-.061.06.043.022.01-.001 0 0-.008-.002-.01 0zm-11.572 6.47l-.07-.035c0-.127-.005-.263-.002-.388.006-.177.036-.195.038-.385.01-.794.083-1.614.102-2.43.005-.214.099-.26.223-.585.067-.175.115-.485.148-.699.021-.143-.003-.18.012-.335.014-.139-.019-.322-.015-.398.01-.18.57-.083.69-.055l.176 1.265c.033.156.07.263.07.458h.07c.003-.121.046-.339.077-.45l.209-.847c.038-.134.067-.316.101-.461.257 0 .368.035.598.035.055.258.035.913.035 1.336h.035v-.844c-.001-.572-.01-.513.247-.492 0 .931-.038 1.768-.036 2.672.001.264-.034.414-.036.632-.006.493.022 1.58-.07 1.97h-.492c-.024-.106-.076-.278-.14-.351 0 .298.075.352-.211.352-.057-.245-.028-.948.006-1.262.024-.219-.006-.19-.006-.426-.114.083-.185.53-.225.69l-.197.716h-.106c-.003-.128-.203-1.276-.316-1.406l-.037 1.229c-.03.351 0 .483-.11.523-.038.014-.544.006-.627.006l-.106-.14c0 .185 0 .052-.035.105zm-.07 0h.07c-.054.05-.017.05-.07 0zM1.688 27.24l.076-.02-.076-.015c-.08-.193.386-.148.277-.45-.058-.162-.176-.067-.233-.001-.076.088-.165.22-.335.23-.267.013-.321-.226-.432-.043-.141.232.274.287.477.334-.098.185-.038.14-.316.14 0 .166.006.158.035.282.243 0 .167-.018.268-.048l.25-.067c.196-.064.236-.044.467-.166a.926.926 0 01-.07-.211c-.262 0-.3.09-.388.035zm15.723.352c0 .087.056.008.022 0 0 0-.022-.1-.022 0zm15.406-4.15c0 .088.056.01.022 0 0 0-.022-.1-.022 0zM12.522 11.98c0 .087.056.01.022 0 0 0-.022-.1-.022 0zm19.803 16.808c0 .087.056.009.021 0 0 0-.021-.1-.021 0zM12.768 16.339c0 .088.056.01.022 0 0 0-.022-.1-.022 0zm3.975 2.25c0 .088.056.01.022 0 0 0-.022-.1-.022 0zm7.14-3.937c0 .087.056.009.022 0 0 0-.022-.1-.022 0zm-6.859 5.696c0 .087.056.009.022 0 0 0-.022-.1-.022 0zm2.568 11.569c0 .087.056.008.022 0 0 0-.022-.1-.022 0zm1.723 5.52c0 .088.057.01.022 0 0 0-.022-.1-.022 0zm14.562-9.213c0 .088.056.01.022 0 0 0-.022-.1-.022 0zM23.32 18.097c0 .088.056.01.022 0 0 0-.022-.1-.022 0zm-9.99 2.075c0 .087.057.01.023 0 0 0-.022-.1-.022 0zm14.457-1.899c0 .088.057.01.022 0 0 0-.022-.1-.022 0zm-9.778 1.653c0 .041.076.08.054 0-.02-.08.09-.001-.016-.01-.044-.004-.038-.061-.038.01zm5.276-3.024c0 .041.076.08.055 0-.022-.08.089-.001-.017-.01-.044-.005-.038-.061-.038.01zm-10.622 6.751c0 .042.075.08.054 0-.021-.08.09 0-.016-.01-.045-.004-.038-.061-.038.01zm15.124-5.555c0 .04.076.079.055 0-.022-.08.09-.002-.016-.01-.045-.005-.039-.062-.039.01zM14.351 31.88c.036.037.127-.05.04-.018 0 0-.1-.04-.04.018zM25.044 6.07c.036.037.127-.05.04-.018 0 0-.1-.04-.04.019zm5.17 15.719c.036.036.128-.05.041-.02 0 .001-.1-.04-.04.02zm-5.24 13.713c.035.036.127-.05.04-.019 0 0-.1-.04-.04.02zm-3.94-20.746c.036.036.127-.05.04-.019 0 0-.1-.04-.04.019zm-.492-.563c.036.037.127-.05.04-.019 0 0-.1-.04-.04.02zM35.314 32.9c.036.036.128-.05.041-.019 0 0-.1-.04-.04.02zm-10.13-8.544c.037.036.128-.051.041-.02 0 0-.1-.04-.04.02zM6.402 8.182c.036.036.127-.051.04-.02 0 0-.1-.04-.04.02zm18.36 7.665c-.007-.005-.017-.021-.02-.014-.005.008-.018-.01-.024-.012-.047-.01-.046-.009-.096-.009 0 0 .007-.049-.09-.05-.072-.002-.024-.032-.051.05h.14c.008.005.017.005.021.014.005.01.018.01.024.012.047.01.046.01.096.01.068.092.311.144.513.225.035.014.044.015.078.028.062.024.09.044.144.067l1.199.435c.18.127.207.14.212.334-.201-.017-.282-.137-.52-.22-.061-.021-.103-.034-.177-.067l-.338-.155-1.026-.452c-.131-.054-.218-.108-.336-.156-.253-.1-.238-.076-.311-.216.173-.071.347.006.51.052.045.013.075.015.114.027.108.034.109.06.184.132-.154-.003-.11-.024-.246-.035zm-1.266 7.7c.008.04.077.078.047.008-.012-.03-.064-.099-.047-.007zm5.839 4.08h.035v-.106h-.035v.106zm-5.03 10.549h.106v-.035h-.106v.035zM21 20.559v-.035c.171 0 .128.002.247-.037.115-.037.132-.07.245.002-.175.04-.27.07-.492.07zm0-.035h-.106v.035H21l-1.126.21c-.08-.168-.058-.208-.082-.425-.012-.1-.058-.22-.058-.418l1.281-.336c.131-.026.12-.026.222-.06.424-.142.83-.196 1.198-.28l.2-.086c.178-.059.148-.006.176-.004.2.016-.182.029.107-.055.088-.026.155.002.227.047l-.328.13c-.188.096-.691.544-1.197.737l-.831.47.134.006.028.007.049.022zM6.015 28.54h.035v-.14h-.035v.14zm7.984-5.204h.106l.04-.14h-.146v.14zM8.76 37.648c0 .146.13.14.21.14.039-.072.05-.082.07-.175-.122-.082-.036-.07-.28-.07v.105zM32.711 5.896c0 .133.246.183.246-.035v-.07c-.082-.044-.092-.061-.211-.07-.019.078-.035.08-.035.175zm-.81 31.893c0 .127.09.105.212.105.026-.11.129-.274-.176-.28-.019.078-.035.08-.035.175zM22.055 1.114c.067 0 .471-.003.326-.148-.075-.075-.1.042-.22.042-.139 0 .068-.099-.212-.105.014.162.029.096.106.21zM40.66 18.168c0 .128.041.123.07.246h.176c-.03-.11.009-.028-.059-.117l-.016-.019-.066-.075c.026-.109.045-.102.07-.21-.153.003-.175.022-.175.175zM.07 19.856c0 .137-.054.004-.071.21.305-.025.258-.406.07-.456-.083.173 0 .067 0 .246zm22.018 20.816c-.08-.054-.07-.067-.211-.07.047.2.114.176.352.176.077-.115.092-.05.105-.211-.171.014-.047-.007-.135.04-.028.016-.078.048-.11.065h-.001zm-4.713-.035c.045-.17.06-.04.105-.21-.148 0-.142-.016-.246.034-.006-.005-.014-.024-.017-.018-.002.006-.012-.016-.016-.019l-.083-.058c-.052-.02.006-.003-.06-.01.006.254.075.138.223.24.014.01-.107.024.094.041zm-16.32-25.95l.056.054c.006.002.017.009.024.01.07.018.088 0 .122-.034.05-.048.022-.036.05-.094.027-.056.026-.056.064-.112-.07-.146.017-.16-.176-.176.003.117.044.166.014.225-.07.137-.04-.031-.155.127zM8.16 5.826c0 .187.282.187.282 0 0-.188-.282-.188-.282 0zm8.336-4.572c.035.13.036.046.07.176.11-.052.13-.035.282-.035.077-.115.092-.049.106-.21-.258.02.081.07-.458.07zM39.113 13.21c.139 0 .143.011.246.035-.004-.188-.017-.145-.14-.21v-.247h-.106c-.06.256 0 .173 0 .422zm-23.742 6.54c0 .502.796.092.38-.203-.07-.05-.182-.056-.275-.078-.037.14-.105.115-.105.281zm13.084 1.829c0-.253-.25-1.192-.527-1.266l.198.681c.074.195.157.523.33.585zm-7.914-2.884c.198 0 .274-.018.352-.351-.2-.073.005-.14-.352-.14-.248 0-.248.491 0 .491zm-.562-3.516l.01.01s-.014-.006-.01-.01zm.351-.176l-.273-.148c-.088-.026.006-.048-.114.008l.01.063c.01.043.012.047.026.112-.523 0-.217.093-.468.164l-.13.012c-.033.142-.07.206 0 .352l.062-.043c.124-.117-.033-.068.158-.124.07-.02.069.001.148-.028.135-.05.015-.066.277-.148a.8.8 0 00.023-.008l.024-.01.257-.202zM11.15 4.28c-.173.15-.015.038-.124.034-.051-.003-.126.08-.252-.151-.066-.124-.078-.204.012-.283.18-.157.115-.264.408-.03.054.043.035.001.073.069.028.05.036.14.02.212-.022.106-.03.12-.137.149zm-.352-.493l.01.01s-.013-.006-.01-.01zm4.678 13.433c-.082 0-.313-.013-.377.009-.075.024-.009-.007-.066.04l-.154.162c.234.156.053.175.527.175.355 0 .387-.386.387-.668-.164.044-.244.145-.317.282zm4.292-1.688c-.17 0-.06.126-.247.175.028.338.584.302.76.126.152-.152.12-.265.12-.512-.17.003-.18.076-.283.176-.064.062-.05.095-.146.1-.17.012-.07-.065-.204-.065zm7.527 12.06c.151.033.165.004.316.036.03-.364.004-.178-.03-.497-.021-.2-.027-.451-.005-.558l-.352-.035c0 .343.07.719.07 1.055zM30.32 38.81c.108.079.056-.023.07.14h-.07v-.14zm-.176-.387c0 .485-.06.598.105.844.333-.176.236-.103.422-.035.062-.054.044-.048.141-.07-.003-.156-.035-.165-.035-.352-.218-.105-.15-.039-.374-.47-.056-.109.004.051-.048-.093a.983.983 0 01-.045.026l-.023.012c-.136.075-.143.032-.143.138zm-1.508 1.232c.049.06.043.042.066.14h-.106l.04-.14zM5.38 8.639l.011.01s-.014-.007-.01-.01zm-.07.422c.37 0 .12-.18.342-.16 0 0 .248.162.256-.192-.206-.055-.031-.06-.157-.195-.161-.175.011.089-.203-.075-.121-.092-.27-.29-.414-.328-.15.143-.079.24-.012.435l.188.515zm1.372-1.934c.09.06.11.06.14.175-.184-.016-.062.001-.095-.038l-.045-.137zM7 7.057l.01.01s-.014-.007-.01-.01zm-.563-.317c0 .223.104.76.281.879.124-.033.01.025.118-.058.127-.096.054-.01.093-.118h.106c.041.111-.077.05.105.07l.133-.148C6.915 6.772 7.23 7.15 6.952 7c-.113-.061-.005-.025-.169-.183-.074-.072-.102-.117-.17-.182-.049.026-.029.019-.087.054-.09.055.041.005-.09.052zm33.45 18.601c-.013-.066.044-.125.022-.022 0 .002.001.145-.022.022zm-.246-.035c-.267 0-.263.15-.146.251l.114.064c.267.143.09.01.36.026.047.003.104.015.148.025.119.025.169.053.297.056.06-.254.092-.225-.39-.594-.053-.04-.179-.149-.284-.126-.117.026-.023-.029-.1.298zM30.636 4.419c.003.006.09-.005.002.046-.119.068-.048.004-.072-.01l.07-.036zm0-.035v.035-.035zm-.387.176c.31.082.152.213.271.324.053.05.103.056.186.063.039-.143.097-.15.212-.211-.046-.198-.038-.156.135-.429.086-.137.193-.31-.1-.31l-.48.259a.885.885 0 00-.042.028c-.107.076-.17.14-.182.276zm9.145 22.68c.084.022.138.01.074.074-.08.08-.045-.02-.074-.074zm-.422-.035c-.003.154-.023.11-.035.246.144.033.143.032.176.176.154-.004.124-.038.24-.026.08.007.133.05.203.075.05.02.056.017.11.034.186.057.256.09.256-.154 0-.064-.35-.455-.43-.523l-.076-.062c-.005-.003-.014-.01-.02-.011-.12-.057-.143.038-.166.078-.14.246.065.174-.258.167zM28.807 3.47l.01.01s-.013-.007-.01-.01zm.106-.036l.01.011s-.014-.007-.01-.01zm-.422.211c.133.07.219.041.256.182.028.106-.062.016.035.124.06.065.082.041.166.081.113-.17.172-.172.21-.281.002-.004-.002-.015-.002-.012l-.003-.013.002-.086c.042-.17.17-.36.215-.557-.145-.012-.079-.035-.211-.035-.14 0-.01-.014-.101.04l-.041.029-.02.016-.038.032c-.24.188-.41.23-.468.48zm10.024 10.62c0 .26.153.543.387.562l.04-.21c-.313-.083-.195-.563.136-.563.078 0 .183.059.233.119.066.08.048.207.048.338l.21.04c.007-.232.05-.29-.05-.48-.265-.5-1.004-.225-1.004.194zM.352 18.73c0 .185-.019.289.157.441.221.192.898.253.898-.405 0-.177-.032-.158-.035-.317-.12.01-.13.027-.211.07.002.112.082.267-.018.408-.073.105-.068.04-.16.079-.002 0-.009.006-.011.007-.001 0 .087.024-.06.02l-.236-.064a.665.665 0 01-.066-.078c-.127-.228.141-.261.023-.547-.176.014-.281.212-.281.386zm18.255 22.33c.018-.08.027-.08.035-.176-.09-.047-.147-.102-.26-.128a.808.808 0 00-.36.001.775.775 0 00-.221.165l-.03.04c-.137.22-.08.601.176.758.223.137.398.06.625.008-.085-.364-.223-.185-.266-.171-.459.141-.446-.82.1-.549l.2.052zM3.552 10.854c-.117.056-.287.035-.457.035-.02.237-.192.23.173.249.19.009.328.032.566.032-.004.164-.041.186-.106.282.103.068.048.07.176.105.53-.387-.278-.918-.352-1.195-.088.007-.2.027-.166.206.035.18.12.111.166.286zM26.064 2.66c-.277 0-.113-.068-.244-.059-.107.008-.073.093-.073.235.512.119.447.065.816-.45l.204-.324a.927.927 0 00-.21-.07c-.047.03-.033.02-.077.064-.182.183-.064.205-.24.252 0-.51-.179-.463-.317-.492 0 .159.033.33.058.44l.083.404zm13.752 19.586c0 .4.094.34.452.533.068.037.017.015.067.039l.103.037c.191.074.153.124.363.13.003-.126.044-.158.01-.225-.033-.065-.002-.016-.05-.05a1.036 1.036 0 00-.311-.113v-.07c.255-.06.411-.107.418-.269.013-.31-.123-.033-.63.093-.124.031-.087-.001-.175.035 0-.145.043-.28-.106-.28a.135.135 0 00-.14.14zM29.44 38.738v.281c-.172-.014-.212-.105-.316-.105-.115 0-.027.03-.176.07v.106c.068.016.16.052.229.087.102.054.118.094.228.124 0 .209-.035.346-.035.597.264-.021.246-.181.246-.457.388.26.36.145.528.106-.042-.157-.244-.22-.493-.352 0-.267.035-.26.035-.562-.102.024-.163.061-.246.105zM17.446 1.747c0 .358.342.562.387.562.399 0 .42-.102.563-.14v-.141c-.103-.025-.05.004-.106-.07-.137.036-.073.062-.204.086-.152.027-.285-.027-.339-.192a1.994 1.994 0 01-.02-.246h.106c.019-.225.125-.13.422-.106.022-.092.032-.103.07-.175-.34-.18-.879-.055-.879.422zm1.512.035c.1.024.053-.006.106.07-.072.107-.044.102-.211.106v-.141c.186 0 .052 0 .105-.035zm-.316.422c1.018 0 .652-.549.546-.617-.295-.19-.37.2-.37-.403-.335 0-.273-.004-.256.177l.021.569c-.003.1.021.195.059.274zM1.125 17.78h.176v.176h-.176v-.176zm-.21.105l-.352-.035c-.081 0-.095.214-.082.238.037.068.166.043.278.058.577.077.737.363.78-.304.03-.478-.735-.478-.625.043zm38.41 8.053c0 .202-.009.142.093.261.11.129.067-.02.043.136l-.05.04c-.126.058-.15.006-.208.114-.028.051-.04.123-.03.145.035.074.02.049.257-.027.114-.036.216-.083.316-.107l.058.112s.253.25.364.275c0-.289.024-.214-.086-.377-.067-.099-.07 0-.028-.095.086-.191.255.11.255-.372-.08.038-.18.075-.256.096-.062.017-.086.02-.14.036-.12.036-.002.014-.132.044-.002-.004-.005-.018-.005-.014-.001.004-.006-.013-.007-.015l-.198-.186c-.183-.143-.06-.131-.212-.172-.024.043-.035.038-.035.106zM26.062 40.46l.011.01s-.014-.006-.01-.01zm-.105.492h-.035c-.051.03-.037.017-.106.035.003.108.016.129.035.212.74 0 .38-.78.563-1.16-.165-.036-.095-.016-.281 0-.032.15-.004.053-.01.174-.007.1-.022.08-.025.212-.22-.018-.161-.157-.328-.204-.552-.156-.013.32.093.444l.083.085c.088.081.086.052.116.167-.047.027-.038.02-.105.035zM5.838 7.408c0 .177.032.157.036.316-.246-.005-.07-.07-.352-.07-.045.17-.06.04-.105.21.153.075.247.038.465.114.082.03.073-.002.107.12l.096.435c.184-.05.117-.117.22-.198l.026-.013c-.025-.047-.018-.03-.053-.085-.048-.076-.025-.018-.05-.086-.088-.232.15.005.318-.068.086-.037.074-.037.172-.183l-.558-.135c-.051-.048-.001-.036-.069-.22-.037-.101-.067-.161-.076-.278-.068.018-.176.069-.176.14zM19.24 41.48c-.026.112-.009.105-.085.131-.11.038-.096-.007-.112-.05-.043-.109.105-.1.197-.081zm.246.105c0-.262-.03-.298-.252-.348-.25-.056-.135-.056-.135-.32 0-.12-.062-.105-.176-.105-.158 0-.121.307-.126.376-.047.624-.192.672.375.67.167 0 .314-.081.314-.273zm10.2-37.8v.035c-.06.081-.34.254-.457.282v.105c.427.1.16.007.493-.07.03.132.063.148 0 .281.16.043.08.094.281.14 0-.155-.042-.504-.014-.574.04-.102.328-.24.436-.27v-.07c-.136-.036-.17-.18-.492.036 0-.21-.019-.287-.114-.344-.044-.025-.086-.032-.133-.043v.492zM39.29 15.39h-.176c.018-.22.13-.195.176 0zm-.493-.352c.013.154.075.46.187.552.25.205.712.033.482-.446.107-.052.244-.09.351-.14a.623.623 0 00-.07-.247c-.157.036-.318.106-.464.134-.058.011-.06.003-.119.021l-.05.02-.023.013c-.008.003-.016.009-.023.012l-.023.012a.673.673 0 01-.248.07zm.282.88c0 .138.01.142.035.245.228 0 .217-.065.422-.07-.006.25-.075.152-.227.3-.138.136-.099.183-.02.333.258-.06.252-.352.564-.352.118 0 .04.04.165.081.14.047.056.003.221-.01 0-.46-.279-.121-.457-.387.064-.087.194-.112.317-.14-.012-.149-.04-.117-.07-.247-.212.018-.702.226-.95.246zM9.884 4.102l.041.35c.008.106-.006.035-.041.107-.128-.034-.13-.107-.247-.282-.107.057-.14.045-.21.141.027.105.15.23.244.388.046.077.063.115.122.195.081.108.091.077.126.226.2-.005.115-.018.246-.106-.05-.189-.194-.227-.14-.316.056-.078.003-.085.115-.049.1.032.005-.003.098.08.143.128.225.123.384.039-.018-.222-.022-.146-.325-.308-.086-.045.005-.04-.167-.044.071-.127.017-.186.032-.306l.004-.02c.001-.009.009-.032.01-.04.007-.122-.007-.015-.046-.161-.196.004-.119.017-.246.105zm29.932 15.823v.281c.163.004.169.03.223.004.017-.008-.108-.014.066-.033.082-.008.083.005.134.03-.033.298-.49.085-.387.527.353 0 .071-.024.42-.182.083-.037.115-.073.268.02.091.054.122.129.22.122.22-.016.107-.278-.044-.332-.244-.086-.13.02-.231-.19.417 0 .322-.047.316-.317-.217.05-.712.07-.985.07zM9.99 39.019a.93.93 0 00.211.07c.163-.118.12-.224.246-.316.06.043.037.026.052.06.06.146-.066.141.019.503.08.019.08.027.176.035.123-.184.046-.058.048-.245.002-.117.046-.16-.013-.282l.262-.15c.005-.001.171.013.195-.202-.236-.125-.252-.082-.415.046-.045.035-.141.11-.183-.01-.022-.066.087-.098.106-.317-.13-.035-.046-.036-.176-.07-.12.08-.484.692-.528.878zm16.954 1.407c.203 0 .23-.047.246.14-.095.008-.096.017-.176.036-.021-.093-.032-.104-.07-.176zm-.422-.492c.002.122.023.15.049.257l.026.1.01.019.01.02c.125.26.133.404.221.588.925-.215.638-.665.404-.755-.088-.034-.259.034-.369.087-.024-.118-.002-.097-.035-.176.154-.003.09-.003.243-.073.02-.01.049-.02.074-.032-.018-.213-.047-.22-.223-.158-.145.05-.255.12-.41.123zm13.471-16.316c-.114-.204.032-.199.045-.203.06-.021.057.003.06.005.127.056.048.181-.105.198zm-.246-.035c0 .338.254.316.492.316l.202-.4c.056-.042.063-.006.063-.006.111.071.017-.006.017.266 0 .125.069.105.211.105 0-.263.066-.409.07-.598-.354-.17-.277-.074-.413-.076-.166-.002-.406-.064-.607-.064 0 .2-.035.243-.035.457zM4.396 10.15h.036c.04.043.04.045.07.105a.384.384 0 01-.14.105c-.051-.122.027-.03-.07-.175.092-.025.028.002.105-.035zm-.738-.141v.176c.155.041.332.228.414.289l.36.203c.083-.056.159-.17.227-.266.118-.167.09-.182.09-.437-.167-.014-.11-.053-.248-.11-.253-.104.01.04-.35.04-.003.107-.016.128-.036.21H4.01c-.065-.278.105-.15.105-.351 0-.078-.09-.222-.232-.025-.131.182-.09.222-.225.27zM2.32 12.682c.04.029.01-.001.06.05l.036.037.014.02c.008.016.07.06-.023.117-.099.06-.15-.044-.333-.048-.025.11-.045.102-.07.211l.88.422c.06-.092.087-.146.14-.246l-.29-.129c-.198-.16.197-.103.318-.124.138-.024.18-.073.183-.24-.211-.1-.524.117-.7-.234-.003-.006-.008-.026-.01-.033-.023-.064.082-.12-.275-.12-.032.15-.004.177.07.317zM23.6 2.344c.256.06.248.07.287-.1a1.7 1.7 0 00.03-.251c.13.035.046.035.176.07 0 .235.012.422.246.422.109 0 .08-.021.095-.092.016-.086-.047-.15-.072-.21l-.093-.296c.104-.028.046-.013.105-.07.233-.222.176-.122.176-.352-.162-.038-.17-.048-.29.063-.128.119-.103.081-.132.219h-.14c0-.188.031-.197.034-.352-.275-.023-.237-.141-.293.164-.013.075-.042.177-.053.263-.014.115-.015.17-.03.25-.024.12-.043.148-.045.272zm10.2 5.029c.074.109.07.136.247.14l.04-.139.241-.001c-.04.169-.088.126-.117.263-.026.127.02.199.117.264.201-.054.125-.114.185-.34.026-.094.026-.063.026-.187.351 0 0-.024.334-.06 0 0 .1.07.159-.151-.134-.2-.141-.166-.393-.057-.148.064-.123.041-.205-.014l.096-.116c.166-.16.044-.306-.06-.306-.077 0-.035-.033-.162.12-.162.195-.467.432-.507.584zm-9.953 33.545c0-.394-.024-.281-.282-.281l.139.914c.063.2.09.048.283.14 0-.422-.078-.285-.035-.491h.106c.169.467.457.368.457.281 0-.263-.397-.284-.188-.716.024-.05.047.002.047-.233-.153-.036-.268-.012-.308.15-.079.32.05.174-.22.236zm-3.87.317l.011.01s-.014-.007-.01-.01zm0 .422v-.176c.354.094-.1.422.528.422-.005-.23-.06-.19-.09-.227-.055-.07-.018 0-.066-.11-.092-.216-.078-.202-.003-.35.11-.214-.005-.054.16-.122-.029-.332-.267-.286-.347-.065-.04.11-.022.104-.076.206-.064-.032-.044-.027-.14-.035v-.317h-.247c-.084 1.015-.124 1.02.246 1.02 0-.148-.015-.142.035-.246zm7.106-38.855c.102.068.108.072.14.21-.082-.019-.104-.032-.21-.035l.07-.175zm-.387.316c.07.034.434.14.563.14.212 0 .386-.435.117-.574l-.223-.164c.131-.03.223 0 .422 0 0-.22.058-.154-.222-.27a.833.833 0 00-.34-.081 3.87 3.87 0 00-.172.46c-.028.088-.046.165-.075.242-.034.09-.06.126-.07.247zm10.763 9.037l.486.184.02.012c.12.088-.186.082.197.05-.068.093-.256.18-.387.211.004.164.042.185.106.281.046-.024.031-.02.086-.055.132-.085-.094.055.042-.028l.309-.148c.105-.059.35-.201.442-.226v-.07c-.282-.066-.325-.14-.633-.211.048-.181.1-.12.229-.178.1-.044-.002-.035.123-.068-.03-.13-.058-.099-.07-.246l-.716.34c-.118.061-.164.056-.234.152zm2.568 9.213h.316c.146 0 .317-.115.317.07 0 .17-.312.143-.494.14-.418-.009-.28-.018-.28.282.125-.052.841-.035.985-.035v-.739l-.663-.012-.111.012c-.02-.089-.03-.175-.14-.175-.23 0-.112.457.07.457zm-24.446-19.2c-.1-.43-.038-.421-.246-.421-.152 0-.094.119-.074.21.035.155.003.123.038.247.05.175.124.362.141.562.195-.052.18-.233.34-.399.117-.123.065.015.117-.128.115.084.041-.012.088.16.023.085.036.153.053.227.137-.012.092-.032.246-.035l-.246-1.02c-.108.079-.036.025-.108.138l-.35.46zm9.004.247c0 .186.385.343.474-.09.033-.158.085-.28.09-.438.236 0 .256-.015.212.137-.033.111-.026.053-.037.088l-.106.584c.114.024.108.024.247.035.046-.198.21-.806.21-.984-.1-.024-.057-.028-.152-.049-.084-.019-.042 0-.159-.026-.12-.028-.233-.066-.392-.066-.002.004-.005.008-.005.014 0 .001-.153.663-.222.698-.077.039-.16-.062-.16.097zm-12.944.703l.282.703c-.12.165-.1-.037-.106.211.194.13.387.043.387-.246 0-.123-.194-.362-.21-.563.135-.014.026-.016.175-.07l.168.414c.051.127.1.119.113.29h.141c.042-.112-.076-.051.106-.071-.014-.17-.196-.537-.275-.71-.044-.096-.068-.156-.112-.24-.203.108-.456.17-.669.282zm13.015 38.187c.03.127.017.133.109.162.104.033.02-.05.207.05.018-.212.064-.08.117-.235.067-.202-.357-.705.094-.715 0 .128.136.689.176.773.07-.033.163-.05.246-.07l-.24-.948c-.055-.063-.533.079-.628.12-.15.063-.097.02.035.576.065.274.002.126-.116.287zm14.667-24.403c.056.208.333.238.472.372.055.054.022.009.042.071.004.011-.003.044.014.084-.228 0-.216.03-.387.07.005.061.01.123.015.144.018.1.018.125.38.04.19-.044.47-.144.66-.148-.035-.131-.084-.1-.297-.266l-.02-.016-.02-.014c-.135-.09-.211-.054-.226-.232.228 0 .216-.03.387-.07 0-.139-.01-.143-.035-.246-.144.003-.372.07-.501.096-.187.037-.316.076-.484.115zm-17.06 24.473c.077.16.05.138.059.326.009.175.056.096.258.096 0-.234.018-.837-.07-1.02-.114.031-.072.036-.137.11-.032.036-.03.036-.068.072l-.073.068c-.106.111-.105.201-.285.243.034-.073.016-.188-.008-.324-.024-.14-.046-.098-.273-.098 0 .376.07.66.07 1.02.192-.045.223-.202.4-.375l.128-.118zm-.63-39.205c.089-.06.197-.16.292-.236l.224-.163c.072-.03.016-.021.117-.023-.047.098-.102.457.07.457h.14c0-.186.106-.839.063-.982-.031-.102-.033-.06-.132.027l-.04.034-.076.066c-.2.175-.106.097-.342.222v-.457h-.246c-.007.315-.129.804-.07 1.054zm14.526 6.716c.054-.05.017-.05.07 0l.114.098c-.047.06-.498.435-.606.464.018.21.056.06.106.246.122-.032.112-.068.211-.14l.633-.457-.094-.148-.005-.015-.088-.107c-.118-.11-.17-.255-.27-.328-.156.082-.244.188-.38.279l-.015.01c-.403.26-.133.086-.414.062-.154.28.093.49.372.303l.366-.267zM.458 24.532c-.03.138.002.196.03.356.025.15.044.251.075.383.263 0 .484-.055.703-.106l.03.058c.144.165.423.127.216-.304a.902.902 0 00-.488.005c-.132.041-.32.13-.32-.04 0-.166.188-.14.323-.17.127-.026.287-.066.415-.076 0-.214.06-.314-.383-.203l-.351.067c-.107.03-.096.03-.25.03zm.949-8.58c-.278 0-.242-.09-.422-.105-.172.359 0 .303.151.34.089.023.16.037.253.064.189.054.278.123.51.123-.028-.106-.1-.206-.152-.305a1.736 1.736 0 01-.13-.328c.134-.028.051-.03.199.01.082.023.149.043.224.06l.035-.28c-.154-.004-.337-.078-.474-.124-.16-.054-.298-.108-.476-.123.013.156.087.258.154.377.151.27-.033.08.112.271.003.004.013.012.016.02zM20.928 41.34c0-.213-.022-.298-.035-.457h-.246v.914c0 .121.067.108.132.07l.198-.196.018-.018.215-.207c.035.074.07.306.07.422h.246c0-.326.038-.708-.035-1.02-.065.017-.036.012-.07.035l-.267.261c-.018.02-.051.053-.07.07-.06.057-.096.086-.156.126zm-9.673-2.04c0-.31.53-.487.577-.09.023.191-.177.42-.375.352-.089-.031-.202-.16-.202-.261zm.247.493c1.09 0 .474-1.534-.32-.917-.162.127-.2.355-.137.564.048.162.263.353.457.353zm.527.07l-.04.14c.061.085.048.038.075.142.126 0 .288.029.366-.098l.007-.016.008-.018.217-.501h.106c.041.11-.077.05.105.07v.07c-.13.053.013-.066-.173.284-.055.103-.033.14-.143.35.076.05.103.08.21.105.15-.11.412-.777.423-.914-.15-.072-.54-.271-.668-.282l-.183.396c-.139.402-.19.223-.31.272zm1.653.633c-.15 0-.316-.072-.316-.246 0-.218.059-.23.14-.352h.282c.018.067.014.035.037.07l.015.02.046.062c.12.21-.13.446-.204.446zm-.598-.351l.087.306c.144.317 1.004.478 1.004-.342 0-.415-.748-.693-1.015-.17a1.093 1.093 0 00-.075.206zm25.501-26.76l.01.011s-.013-.007-.01-.01zm-.598-.351c.015.177.099.159.251.207l.245.103c.079.057.051-.02.032.042.027.047.02.038.035.105-.299.063-.138.064-.316.106a.625.625 0 00.07.246c.112-.01.146-.033.24-.077.174-.081.604-.248.674-.345-.063-.087-.416-.24-.598-.282.056-.208.104-.08.352-.246l-.075-.244-.322.128-.055.016c-.076.027-.041.014-.074.032l-.2.116c-.1.048-.15.067-.259.093zm2.463 5.345c.003-.004.01.005.01.01l-.01-.01zm-.704-.528c-.06.194.108-.164.035.07-.139 0-.142.012-.246.036.026.095.043.087.108.138.217.17.284.133.42.39-.315 0-.387.032-.387.21 0 .126.081.107.188.09.121-.018.194-.036.301-.058l.53-.102c-.057-.216-.153-.016-.175-.282-.122-.002-.142-.009-.222-.063-.31-.21.123-.214.292-.253-.011-.139-.01-.132-.035-.246-.362.008-.291.113-.809.07zM16.145 41.024l.068.04c-.04.083-.041.266-.068.382.135.01.113.035.28.035l.212-.985c-.175.015-.525.256-.668.352 0-.185.056-.327.07-.492-.166-.014-.21-.108-.272.041-.006.014-.021.119-.029.15l-.119.48-.033.147-.011.075c-.006.12.12.045.218-.024l.352-.201zM34.962 8.217c-.045-.038-.038.06-.029-.07.006-.078-.002-.03.03-.071-.074-.189-.044.058.07-.17.043-.086.167-.122.263-.097l.094.049c.021.017.071.028.095.157l.006.03a.783.783 0 01-.005.128c-.05.21-.443.345-.524.043zm-.28-.211c0 .857 1.054.8 1.054.105 0-.304-.197-.501-.476-.546-.328-.053-.579.25-.579.44zM1.195 26.36c-.066-.162.025-.008-.13-.081-.117-.055-.116 0-.116-.271 0-.137.315-.33.516-.13.31.31-.223.449-.228.451-.191.108.19-.046-.042.03zm-.352.14c.368.031-.023.154.738.064l.138-.278c.13-.325-.023-.561-.293-.721-.055-.033-.015-.022-.077-.036-.074-.016-.106.022-.19.022-.065 0-.062-.035-.12-.007l-.093.071a.534.534 0 00-.215.573c.047.2.099.15.112.312zm-.211-6.4c-.195 0-.209-.034-.387-.034-.024.103-.035.107-.035.246.178.004.094.02.234.047l.752.045c.12-.024.067-.042-.016-.142l-.051-.059c-.023-.027-.036-.049-.06-.081l-.261-.338c.067.002.093.006.144.012.197.024.105.04.348-.012v-.21c-.158-.077-.79-.106-1.055-.106.085.16.364.46.386.516l.001.117zm16.18 20.466c-.121.048-.068.08-.126.472-.028.196-.046.345-.085.512.167-.039.154-.088.276-.142l.078-.026c.075-.038.071-.089.149-.118l.02-.004c.125-.036.061.027.145-.061-.007.303-.21.483.176.492.061-.264.176-.717.176-1.02-.155.036-.303.177-.454.256-.266.142-.144-.076-.144-.361-.313-.028.163-.062-.211-.07v.07zM36.44 10.08c0-.191.058-.387.316-.387.138 0 .246.131.246.282 0 .4-.562.36-.562.105zm-.246-.105c0 .602.697.65.879.438.067-.08.061-.126.176-.157 0-.472-.075-.695-.43-.805-.11-.034-.125-.031-.205-.007-.245.076-.42.231-.42.53zM.667 21.227c-.16-.013-.244-.035-.457-.035-.03.142 0 .09 0 .281.217.05.692 0 1.02 0-.1-.188-.286-.312-.363-.417-.28-.376.363.04.363-.357 0-.162-.28-.106-.457-.105H.176c.036.156.023.094.11.171l.382.462zm-.14 2.496c0-.136.048-.148.148-.205.096-.055-.038-.004.09-.052.12-.045.187.034.36.117v.281c-.126.045-.004.002-.064.03-.211.1-.049.076-.359.076-.113 0-.176-.128-.176-.247zm.035.528c.215 0 .39.024.535-.062.6-.355.017-1.397-.607-.889-.252.205-.263.565-.011.822.093.095.052.013.083.129zM12.908 2.942c.365-.544.563-.006.563 0 0 .27-.018.352-.316.352-.175 0-.19-.227-.246-.352zm-.246-.07c0 .204-.024.302.084.443.049.064.01.021.067.074.224.211.57.161.755.001.467-.402-.084-1.214-.682-.822-.056.037-.224.237-.224.304zm1.653-.106c.128.085.207.17.352.246.033-.067.084-.329.106-.422h.07c.029.123.081.193.14.282.155-.004.11-.024.247-.035-.022-.261-.014-.069-.235-.469-.068-.124-.205-.401-.328-.446-.038.08-.048.225-.082.34-.043.144-.058.187-.058.364l-.128-.119c-.055-.05-.076-.071-.127-.119-.086-.079-.207-.192-.308-.22 0 .4.07.697.07 1.055a.62.62 0 01.246-.07c0-.187-.001-.208-.035-.352l.07-.035zm22.828 8.193l.01.01s-.013-.006-.01-.01zm-.422-.105c.014.162.029.096.106.21.155-.003.164-.034.351-.034-.014.173-.104.25-.14.386h.422c-.024.282-.176.133-.176.317 0 .084.057.103.105.176.135-.072.459-.416.58-.547.256-.28.267-.192-.544-.192.044-.106-.012.024.014-.059.011-.037.007-.03.03-.076.077-.157.223-.362.237-.533-.18.042-.318.12-.492.176l-.493.176zM.176 21.93V22c.16.014.387.226.598.282-.055.103-.01.051-.091.12l-.472.337.583.147c.06.016.177.007.223.015.369.067.236.03.214-.232a1.164 1.164 0 01-.352-.07c.105-.158.233-.14.352-.317l-.346-.218c-.006-.008-.13-.018.063-.057.021-.004.386.012.248-.323l-.633.14c-.009.003-.017.008-.026.01l-.115.026c-.306.056.007.042-.246.07zm14.913 18.847l.01.01s-.013-.006-.01-.01zm20.12-18.25c0-.237-.016-.364-.155-.55l-.128-.127c-.087-.055-.256-.12-.351-.105l-.16.092c-.114.09-.165.259-.186.401-.01.068-.01-.012.006.071l.092.327c.151.297.517.462.756.224a.607.607 0 00.126-.332zm-27.12 5.627c.469 0 .286.036.417-.85l.217-1.893c.017-.15.032-.307.055-.472.023-.169.05-.315.05-.477-.346 0-.312-.003-.386.845-.012.142-.023.33-.05.477-.095.517-.106.895-.176 1.406-.024.172-.04.301-.059.469-.017.149-.064.347-.067.495zM12.628 17.5a.865.865 0 01.284-.07l.157-.013c.094-.005.091.008.154-.001l.274-.067c.15-.02.226.01.257-.13v-4.537c-.052.06-.035.035-.064.112l-.519 2.26c-.06.315-.076.236-.14.597-.025.137-.037.162-.072.28-.037.129-.035.189-.065.322-.063.278-.266.99-.266 1.247zm25.114 3.621l-.035 1.372c.003.3-.092.628-.062.893.022.192.086.56.122.805l.186.904c.007-.326.352-1.619.352-3.13 0-.738.017-1.503-.068-2.218-.126-1.074-.215-1.785-.503-2.839l-.83-2.438c-.068-.17-.131-.284-.207-.462l-.76-1.488c-.087-.106-.073-.085-.142-.213l-1.368-1.972c-.075-.082-.075-.088-.14-.177l-.47-.55c-.113-.146-.196-.22-.322-.345l-.34-.363a.1.1 0 01-.017-.019l-.017-.018-.017-.019-1.593-1.412c-.053-.06.036 0-.069-.06-.307-.174-.243-.231-.418-.246 0 .714-.1.598.332.935l.212.175c.097.082-.06-.05.038.031l.635.561.018.017 1.095 1.12c.077.078.078.082.147.17l.593.709c.053.067.086.115.136.18l.934 1.352c.711 1.069 1.321 2.514 1.747 3.774.064.188.091.323.15.518.104.35.18.673.262 1.04.037.168.083.314.118.514.139.79.301 2.116.301 2.9zM21.385 36.98l.01.01s-.013-.007-.01-.01zm-1.407 0l.02-.076-.02.076zm1.618-.211c-.022.097-.017.08-.07.14-.014.038.03.149-.07.042-.056-.06-.055-.012.035-.077.01-.02.024-.06.031-.074.033-.065.016-.032.04-.066.033-.126.028-.053.081-.164.067-.139-.045-.106.13-.153-.022.093-.036.105-.068.179-.04.09-.031.117-.109.173zm.176-.422c.05.054.05.017 0 .07v-.07zm.035-.07l.01.01s-.013-.007-.01-.01zm0-.07l.01.01s-.013-.007-.01-.01zm-1.09.808c-.212 0-.281.018-.281-.211 0-.332.152-.497.359-.766l.344-.36c.44-.337.286-.2.668-.456-.027.328-.641 1.793-1.09 1.793zm1.513-3.446c.008-.072.185.009.032.003-.013 0-.042.076-.032-.003zm-1.302 0c0-.09.056-.006.021 0 0 0-.02.098-.02 0zm.246-1.23c.08-.165-.019-.091.106-.141-.074.153.018.104-.106.14zm1.97-.317l.01.01s-.013-.007-.01-.01zm-1.829 0l.01.01s-.013-.007-.01-.01zM7.668 10.01h.035l.385-.424c.101-.11.11-.153.243-.252.054-.04-.003.03.068-.06.15-.186.064-.13.322-.356l2.838-2.156.73-.43c.078-.037.111-.049.169-.078.09-.046.07-.04.155-.091.103-.063.05-.03.168-.078.138-.056.06-.028.16-.087.368-.217.794-.364 1.196-.527l.252-.1c.049-.02.019-.012.093-.047.293-.137.616-.215.92-.311l1.765-.45c.22-.026.415-.142.63-.039l.071-.105 1.14-.126c.393-.057.825-.007 1.207-.06.339-.046.799-.003 1.207.009l1.752.182c.141.024.095.049.253.063.17.016.138-.006.28.037l.354.084c.62.114 1.054.272 1.638.424.252.066.763-.164 1.033-.226v-.07c-.289-.025-1.035-.338-1.4-.43-.093-.023-.225-.07-.3-.088l-2.489-.465c-.231-.017-.462-.015-.697-.042-.089-.01-.188-.038-.263-.047a3.336 3.336 0 00-.337-.02l-1.42.012c-.376.001-.883.064-1.287.098a5.763 5.763 0 00-.65.088c-.548.113-1.017.171-1.554.31l-.457.106c-.165.061-.39.07-.53.137-.044.021-.083.045-.117.06l-2.26.87c-.05.021-.03.01-.073.033l-1.727.946c-.053.032-.06.038-.114.064l-.117.075-.013.014c-.116.11-.263.174-.39.268-.158.114-.278.19-.432.306-.49.368-1.007.724-1.444 1.159-.08.078-.114.11-.2.187l-.968.966-.017.018-.207.216-.019.016-.962 1.177-1.673 2.731c-.361.596-.78 1.778-1.005 2.474-.484 1.493-.811 3.072-.83 4.69-.002.182-.029.194-.037.35-.028.523.013 1.585.09 2.125.035.236.04.439.07.669.066.473.13.867.227 1.286l.023-.047c.05-.132-.023.084.02-.051l.069-.388c.024-.173.056-.366.085-.548.065-.406.134-.625.07-1.061-.085-.573-.088-1.842-.056-2.442l.171-1.657a23.88 23.88 0 01.583-2.547c.2-.704.677-1.99 1.06-2.632a4.73 4.73 0 00.113-.203l.426-.805c.042-.066.08-.104.127-.19l.987-1.475.86-1.04zM26.31 34.73v-.036.035zm.07-.176c.044.102.064.04-.035.07l.035-.07zm0 0l.069-.04-.069.04zm-11.642-.176l.04.069-.04-.07zm11.748-.035c0-.09.055-.006.02 0 0 0-.02.098-.02 0zm-11.748.035l-.04-.069.04.069zm2.005-.281c-.036-.048-.036.073-.036-.106.033.043.023-.04.035.106zm-.598-.141c.037-.038.133.056.039.018-.001 0-.098.04-.04-.018zm2.637-.07l.011.01s-.014-.007-.01-.01zm-.07 0l.01.01s-.013-.007-.01-.01zm.035-.106l.01.01s-.013-.007-.01-.01zm-2.005 0c-.018-.102.076.01.036.007l-.008-.001c-.064-.008-.013.074-.028-.006zm.422-.563l.011.011s-.014-.007-.01-.01zm7.703 1.442l.447-1.065c.11-.284.388-.778.628-.922.127-.077.01-.04.166-.041.603-.002.356.692.19 1.032-.153.314-.092.254-.318.596-.07.106-.1.146-.184.238l-.017.019-.017.017a.964.964 0 01-.018.018c-.2.188-.458.346-.726.203-.066-.035-.098-.06-.15-.095zm2.11-1.477c-.023-.038-.02 0-.031-.073-.005-.032-.003-.07-.003-.102.088.063.053.037.035.175zm-12.134-1.02l.01.011s-.014-.007-.01-.01zm0-.105l.04.069-.04-.069zm4.08-.07c.06.128-.02.14-.035.316h-.07c.026-.112.042-.225.105-.316zm-9.954-.528l.01.01s-.013-.006-.01-.01zm.106-.035l.01.01s-.014-.006-.01-.01zm22.792-.07c.106.024.2.06.317.07-.096.13-.111.017-.317 0v-.07zm-22.757 0c.042-.043.129.06.045.037-.053-.016-.087.004-.045-.037zm.281-.035c0-.09.056-.006.021 0 0 0-.02.098-.02 0zm22.265-.036l.01.01s-.014-.006-.01-.01zm-.14 0l.01.01s-.014-.006-.01-.01zm-21.879-.035l-.068.04.068-.04zm-.14 0l.01.01s-.014-.006-.01-.01zm.387-.105l.01.01s-.014-.007-.01-.01zm21.069-.95c.037-.037.133.056.039.019-.001 0-.098.04-.04-.019zm-.282-.035h.106v.07h-.106v-.07zm-20.4 0h.105v.07h-.105v-.07zm-.247.035c.038-.037.134.056.04.019-.001 0-.099.04-.04-.019zm20.155-.07l.01.01s-.014-.006-.01-.01zm-10.165-1.758c.037-.037.133.056.039.018-.001 0-.098.04-.04-.018zm-3.13-.14l.01.01c-.001 0-.014-.007-.01-.01zm-.071 0l.01.01s-.014-.007-.01-.01zm7.246-1.372c.333.007-.1.07.527.07.224 0 .142-.134.422-.14 0 .25.035.365.035.633.242 0 .65.024.845.07 0 .15-.006.154-.029.256l-.077.799c-.428 0-1.229.084-1.502-.222l-.122-.231c-.017-.061-.01-.066-.02-.124l-.005-.02a.073.073 0 00-.005-.02l-.07-.72c-.006-.11 0-.239 0-.35v-.001zm-2.603-.844l1.028.343c.2.046.357.088.524.145.182.061.363.103.523.18 0 .642.035 1.158.035 1.793h-.844c-.111-.476.061-1.026-.106-1.265a6.93 6.93 0 00-.107.63c-.027.209-.104.421-.104.635-.219 0-.242-.058-.536-.055-.092 0-.048-.005-.167-.015.026-.064.018-.087-.002-.206l-.068-.216c0 .2-.036.243-.036.457h-.14c0-.603-.081-.925-.005-1.587.02-.185-.033-.694.005-.84v.001zm3.025.492c-.134 0-.09.002-.183-.028l-.076-.03c-.09-.028-.236-.058-.328-.129l-.081-.094c.175-.118.619-.176.844-.176l-.176.457zm-1.724-.562l.01.01s-.013-.007-.01-.01zm-.035 0c-.095-.008-.096-.017-.176-.035.002-.002.026-.063.11-.05.084.014.04-.014.066.085zm-.14-.141l.01.01s-.014-.006-.01-.01zm-8.337-.281c.307 0 .666-.05.88 0l-.106 1.793c-.02.381.034.987-.34 1.19-.146.08-.096.098-.258.111.004-.162.035-.184.035-.563l-.14.598-.74.035c0-.35-.006-.27-.07-.316l-.06.287c-.025.08-.643.173-.643-.604l.176-2.672c.19 0 .572.106.914.106 0 .453-.14 1.653-.14 2.11.046 0 .14.015.15.015.09.004.045-.005.166-.016l.115-1.892c.012-.065.067-.168.061-.182zm7.844.21c-.139 0-.618-.16-.633-.175-.034-.072.004-.434.087-.546.077-.104.305-.109.423-.14.101-.026.071-.053.158-.053.268 0 .225.428.118.681l-.01.024-.012.025c-.031.07-.063.185-.131.185zm-7.492-.667c0 .115.029.206-.043.256-.004.003-.191.04-.246-.021-.048-.053-.008-.1.033-.136a.461.461 0 01.256-.1zm9.638.773c-.109 0-.12-.039-.16-.124-.098-.219.077-.59.119-.655.115-.175.67-.182.92-.24-.003.125-.253.807-.357.874-.132.086-.2.027-.348.078-.056.019-.103.067-.174.067zm-11.22-1.055c.25.169.132.2.226.352.038.061.046.079.055.176-.188.015-.452.101-.493-.387.187-.09.12 0 .211-.14zm9.531-.105c.404-.034.498-.247.72.234.152.326.547-.01.547.188 0 .301-.157.172 0 .844-.073.035-.027.016-.123.043l-.08.02c-.459.148-.434.101-.619-.192-.108-.172-.12-.153-.374-.153-.098-.42-.017-.072.01-.48.008-.115-.004-.102-.036-.23-.026-.105-.042-.168-.045-.274zm-9.954-.387c0-.103.288-.321.39-.038.022.063.05.21.067.284-.023.016-.053.032-.088.053l-.085.055c-.075.053-.077.076-.178.103-.034-.145-.106-.285-.106-.457zm-1.934 4.677l-.461.064c-.395.058-.168-.019-.524.076l.501-2.382c.132-.666.442-2.195.612-2.8l.146-.345c.257-.423.618-.345 1.168-.345 0 1.77.422 1.41.377 2.151-.026.424-.264 3.35-.307 3.44-.175-.063-.08-.116-.07-.385.007-.182 0-.38 0-.564h-.036c0 .33-.07.59-.07.949-.546.065-.398.06-.455-.072-.05-.114.075-.03-.073-.139v.246c-.082.02-.103.033-.21.035-.06-.251.114-1.526.139-1.97.011-.197.023-.292.04-.488.01-.13.03-.358.052-.51l.058-.75c.04-.252.05.06.045-.323l.017-.424c-.103.074-.036.014-.072.103l-.01.03c-.062.174-.106.584-.18.87-.14.544-.318 1.775-.47 2.379l-.218 1.154zm2.356-4.993c0-.074.025-.094.084-.123.049-.023.087 0 .131.016.211.071.092.041.242.142.164-.044.031-.056.211-.07.052.097.04.084.077.204.038.12.04.148.134.182v.14c-.123.03-.118.071-.246.071-.079 0-.122-.074-.212-.107-.188-.07-.12.048-.212-.035-.05-.045-.047-.154-.086-.227-.054-.1-.123-.088-.123-.193zm-.492.035l.01.01s-.014-.007-.01-.01zm1.618-.317l.14-.07c.051.219.07.193.07.492-.097.066-.172.119-.28.176-.245-.232-.064-.223-.177-.457.082-.055.14-.112.247-.14zm7.316.352h-.07c0-.167-.021-.306.035-.422.205.055.035.163.035.422zm3.271-.281c.116-.027.095-.046.218-.067.09-.015.173-.02.217-.023l.175-.012c.122-.026.086-.04.27-.04-.013.143-.058.217-.105.319a3.93 3.93 0 00-.066.145c-.172.394-.025.372-.533.482l-.2.052c-.167.016-.157-.057-.182-.19l-.01-.043c-.03-.146.054-.42.183-.549l.025-.022a.231.231 0 00.007-.01v-.042h.001zm-9.497.386c.045.094.032.038.035.176.156 0 .163-.009.19-.028l.035-.043c.148-.165.167-.1.156.056a10.41 10.41 0 01-.038.252c-.083.502-.177.607-.484.607-.067-.128-.053-.199-.175-.281-.012.143-.018.143-.141.176-.24-.36-.21-1.224-.211-1.618 0-.243.035-.411.035-.598.108.01.113.024.175.071.672.506-.008 1.195.423 1.23zm7.703-.668c.293-.068.432-.188.64.028.072.074.028.02.075.101l.13.223c.212 0 .297-.022.457-.035.114.278-.123.33-.034.666.024.088.024.06.035.108.028.124-.002.15-.11.208-.128.07-.412.105-.56.108-.06-.089-.065-.132-.126-.226-.08-.124-.12-.098-.155-.231-.612 0-.262-.089-.259-.497.001-.078-.075-.316-.093-.453zm-10.024.317c-.24.16-.14.176-.423.176-.03-.254-.095-.35.054-.516.036-.04.255-.195.327.063.02.068.04.205.042.277zm20.365-.422l.069-.04-.069.04zm-24.621-.07c1.109 0 1.304-.164 1.07 1.527-.127.917-.255 2.828-.406 3.638a1.09 1.09 0 01-.129.363c-.308.506-.647.383-.835.43-.132.034-.048.033-.227.056-.31.04-.303.059-.32-.103-.014-.123.002-.392.002-.532-.153.221-.032.658-.248.706l-.247-.034-.023-.013c-.366-.22-.182-.983-.121-1.403.04-.268.055-.504.096-.783l.262-1.954c.014-.37.123-1.192.289-1.52l.025-.049.009-.017c.147-.258.153-.175.268-.23l.016-.009.014-.01c.12-.056.347-.063.505-.063zm20.119-.07c1.096 0 .786-.074.859.442l.14 1.478a.562.562 0 00.017.052c.02.05.02.04.04.067l.107-1.478c.006-.088.007-.153.01-.193l.023-.334c1.29 0 .855-.182.845 1.162l-.041.627c-.143 1.386-.015.87.27 2.236.11.517.076.243.157.581.082.34.281.946.281 1.232-.206-.005-.083-.021-.195-.048-.215-.051-.736.032-.838-.186l-.307-1.31c-.075-.276-.12-.676-.207-.777 0 .73.175 1.42.175 2.145-.118 0-.164-.019-.253-.028-.213-.023-.35-.014-.379-.255a4.252 4.252 0 01-.02-.346l-.086-.602c-.067.105-.004.195-.01.462l.045.663h-.246l-.408-4.673c.008-.34.015-.089-.04-.365-.021-.111-.114-.553.06-.553zM13.12 23.09c.451.238.075.21.527.105.023.277.078.306.176.492-.084.057-.094.115-.196.107l-.098-.01c-.006 0-.017.005-.022.007l-.07.037c-.112-.165-.1-.14-.352-.14-.136-.58-.296-.423.035-.598zm13.647.105h.211c.113.485.07 1.99.211 2.286.13.06.679-.037.933.122.23.144.32.534.332.793l.117 1.572c.036.26-.01.262-.01.502-.323.028.049-.043-.13.146-.137.145-.48.181-.586.006-.073-.12-.012-.194-.128-.328 0 .194-.009.258-.07.387-.442 0-.81-.07-1.232-.07 0-.576-.078-1.177-.105-1.688l-.037-1.089c-.016-.187-.052-.485-.067-.672l-.073-1.404c-.001-.65.042-.563.564-.563 0 .473.105.712.105 1.196h.035c0-.19-.032-1.11-.07-1.196zm-6.578-.035h.282l.07.035c.444-.037.352-.45.352 1.547 0 .198-.017.024-.045.165-.027.14.045.097.045.644l.035 2.848-.637.005c-.305-.059-.062-.12-.277-.075v-1.16c-.048.054-.038.036-.065.11l-.217 1.12c-.159.004-.14.035-.316.035-.141 0-.11-.026-.21-.017-.156.014-.092.132-.142-.018-.119-.04-.036.109-.035-.35v-.459h-.035c0 .308-.07.561-.07.88-.108-.045-.009-.015-.177 0 .023-.056.016-.116.016-.219 0-.072-.023-.177-.007-.298.077-.595-.041-1.45.047-2.03.042-.276.016-1.613.014-2.06-.001-.253.036-.39.036-.668.39.187.64.07.914.07v1.02c.107-.078.075-.218.138-.46.102-.39.056-.333.096-.503l.043-.116c.042-.042.064-.046.145-.046zm-1.899-.035l.01.01s-.013-.007-.01-.01zm4.819-.317c0 .076-.036.092-.06.147-.197.435.079.274-.783.412l-.086.024-.027.007c-.056.01-.078.008-.134.008.042-.182.203-.801.379-.886.054-.027.486-.128.532-.122.067.01.132.055.159.15l.02.26zm-1.302-.14c-.191-.045-.327-.036-.562-.036.028-.336.192.11.316-.421.186-.005.095-.032.247 0 .063.273.034.187 0 .457zm3.237.738c-.045-.192-.115-.172-.087-.348l.15-.398c.112-.172.095-.148.343-.184.689-.1.608-.104.48.306l-.043.121a.628.628 0 01-.008.019c-.17.396-.086.337-.385.407-.166.04-.25.077-.45.077zm-1.689-1.125c.212-.018.418-.251.644.024.092.113.044.143.14.247a.405.405 0 00.037.033c.078.056.154.058.268.046.125-.014.248-.094.248.072 0 .166-.07.225-.07.316 0 .364.293.521-.28.601-.15.021-.313.074-.41-.052l-.06-.117-.012-.022c-.176-.299-.303-.187-.505-.234 0-.245.07-.192.07-.457 0-.2-.07-.2-.07-.457zm-9.391.562c-.1-.149-.106-.039-.106-.28.158-.053-.037-.065.259-.123.158-.031.046-.05.234-.054l-.186.342-.023.008-.021.008-.084.043c-.245.17.151-.034-.073.056zm-1.09-.492l-.458.211c-.046-.173-.07-.028-.07-.281.188-.073-.1-.015.154-.196l.117-.067c.22-.08.252.152.256.333zm8.722-.21l.011.01c0-.001-.014-.007-.01-.01zm-7.245 0c.037-.038.133.055.039.018 0 0-.098.04-.04-.019zm13.647-.212c.038.165.165.32-.07.492-.18-.12-.303-.276-.112-.444.063-.055-.034-.048.182-.048zm-1.126-.035c0-.19.24-.067.338-.094.096-.027 0-.04.155-.082.056.24.16.163.21.352l-.146.17c-.201-.094-.205-.034-.416-.03-.024-.288-.14-.168-.14-.316zm.634-.316c0-.113.167-.202.281-.211.038.161.13.278.005.426-.082.096-.012.062-.18.066-.06-.162-.01.006-.063-.114-.032-.07-.043-.076-.043-.167zm-8.16-.036c0-.104.044-.177.134-.217.006-.003.074-.021.082-.023.263-.045.338-.011.49.06l.217.136c.237.2.094.169.237.22-.016.193-.03.106-.176.176.015.176.118.516-.112.767-.243.263-.255.253-.556.253-.28 0-.626-.344-.352-.528.22.059.085.246.282.246.253 0 .606-.279.36-.716l-.045-.074c-.041-.055.076-.026-.096-.044a1.001 1.001 0 01-.28-.055c-.09-.033-.186-.091-.186-.2zm3.095.669c.034-.082.003-.066.027-.183.021-.102.047-.167.073-.244.041-.122.136-.34.146-.453.108-.025.192-.052.308-.078.11-.025.262-.015.36-.062.16.24.192.132.065.627-.066.256-.102.276-.596.319-.228.02-.209.033-.383.073zm-6.472.105c-.059-.122-.053-.276-.106-.387l2.287-.387c-.066.137-.035.204-.068.31l-.006.017c-.053.13-.222.094-.474.146-.132.026-.176.041-.322.065-.425.07-.896.14-1.311.236zm10.2-.281c-.212.05-.489.158-.703.175-.142-.21-.188-.25-.121-.54.075-.326.057-.364.403-.408.444-.056.579-.155.547.081-.032.237-.126.422-.126.692zm3.236-1.02c.445 0 .437-.056.653.226l.719.829c-.117-.003-.138-.016-.236-.046l-.154-.053c-.125-.04-.175-.02-.286-.067-.398-.172-.157-.05-.497-.139-.42-.11-.209.012-.677-.088-.076-.017 0-.022-.12.006.063-.118.107-.19.043-.325-.059-.126.002.004-.077-.104-.061-.084-.105-.142.032-.167.087-.015.207.007.31-.01.11-.018.135-.062.29-.062zm-4.432.387c.183.102-.02.14.006.482.013.18.071.072.101.344.015.135-.029.11-.275.166-.429.096-.39.061-.516-.132-.374-.57-.646.064-.5-.64.024-.122.015-.17-.033-.305-.059-.162-.079-.162-.05-.302.298 0 .348-.142.55.013.09.068.241.307.295.41.23 0 .33-.093.422-.036zm2.603-.633c.013.16.178.373-.106.563-.172-.116-.234-.295-.056-.48l.017-.018c.149-.14-.024.005.145-.065zm-7.105.668c-.017-.204-.076-.09-.035-.281l.803-.076c.228-.023.566-.1.815-.1-.05.605-.077.384-.561.424-.321.026-.65.033-1.022.033zm6.296-.844c.207.048.085.016.281 0 .011.132.051.165.106.246v.035c-.05.122.044.023-.106.247-.146-.07-.185-.074-.351-.036-.006-.238-.208-.425-.064-.496.058-.029.086.032.134.004zm-9.391.035l.075.02-.075-.02zm5.416.352c.1-.15.043-.127.104-.283.107-.276.354-.13.71-.208.11-.023.03-.025.171-.037 0 .288-.084.437-.336.432l-.649.096zm3.975-.387l-.035-.035.035.035zm-5.24-.14c.04-.041.2.059.043.014-.004-.002-.105.046-.044-.015zm5.38.034c-.059-.04-.046-.06-.148-.087-.138-.04-.015.11-.133-.053.144-.058.02-.095.223-.17.217-.079.357.06.118.264l-.02.015a1.387 1.387 0 01-.02.016l-.02.015zm-1.336.176c0-.247.08-.568.355-.665.09-.031.307-.12.394-.087l.096.083c.084.127.131.86-.298.938l-.26.027c-.006.002-.017.006-.023.006-.096.014-.012.027-.093-.006-.07-.03-.171-.235-.171-.296zm-9.778-.598l.01.011s-.014-.007-.01-.01zm3.2.106c0 .18.195.522.141.774l-.26-.093c-.102-.066-.272-.178-.33-.27-.066-.107-.066-.126-.043-.235.143.096.068.136.281.14.016-.183-.033-.063.07-.105-.04-.125-.35-.193-.35-.527 0-.566 1.032-.31.612.155-.032.036-.12.096-.12.161zm-1.617.457l-.104-.056c-.003-.003-.013-.007-.017-.01-.102-.071-.052-.1-.16-.18-.002.048-.076.555.07.685.06.053.063.012.14.159-.278 0-.44.047-.655-.138l-.028-.027c-.055-.056-.17-.199-.226-.229-.147-.077-.531.034-.705.081l-.752.165c-.224.049-.258.112-.307-.098.26-.006.3-.053.49-.108l1.165-.273c.052.001.108.02.151.05.117.083.174.294.302.375.084.052.108.032.178.061-.03-.127-.044-.115-.102-.213l-.048-.093-.011-.024a5.634 5.634 0 01-.011-.025c-.052-.113-.118-.257-.052-.43.068-.178.145-.148.338-.15.122-.001.028-.014.195-.052.178-.04.098.064.148-.067.24 0 .195.02.323-.051l.131-.037c.204-.028.111-.103.284-.125.036-.004.134.002.177.002-.011.138-.035.164-.035.351-.234-.02-.12-.068-.281-.176-.076.156.037.278-.038.287-.096.01.018.032-.038-.029l-.028-.04c-.005-.006-.01-.016-.016-.022-.08-.094-.014-.06-.127-.09-.015.186-.036.048-.057.185-.017.108.019.086.022.237-.167-.112-.08-.17-.246-.282-.039.145-.05.044-.062.18-.02.2.078.021-.009.207zm8.547-.95c.02.01.06.025.074.032.065.033.032.016.066.04-.255-.007-.092-.017-.14-.071zm-.282.141c0 .175-.242.128-.315.142-.108.022-.068-.026-.107.07h-.21c-.048-.132.006.003-.052-.09-.27-.435-.265-.33-.582-.403.033-.396.385-.256.656-.163.369.127.61.178.61.444zm-10.235-.633c.243 0 .646-.003.65.413.005.448-.235.424-.293.453 0 0-.153.217-.467-.053-.112-.096-.236-.384-.087-.59.075-.104.077-.056.126-.099.017-.015.044-.02.07-.123zm8.652.352h-.105c0-.205-.035-.246-.035-.422h.246a2.03 2.03 0 00-.106.422zm-.808-.527l.285-.028c.089.003.182.004.205.241.008.093.003.218.002.314-.002.526.144.66-.387.703.03-.056.016-.018.056-.085.044-.075.017.01.055-.12.05-.18.05-.546-.027-.723-.053-.122-.059-.131-.19-.162v-.14zm-3.201.07l.01.01s-.014-.006-.01-.01zm3.025-.035c.037-.038.133.056.039.018 0 0-.098.04-.04-.018zm-2.85 0c.073-.063.054-.06.177-.07-.076.102.005.065-.176.07zm5.488-.176c.316.074.754.035 1.09.035v.633l-.718-.347c-.297-.102-.302-.176-.372-.32v-.001zm-2.709-.281l.01.01s-.013-.007-.01-.01zm-.07-.035l.01.01s-.014-.007-.01-.01zm.352-.07c-.09.134-.07.135-.211.105.071-.107.044-.102.21-.106zm.035-.036l-.035.035.035-.035zm-2.708-.563c.383 0 .492.262.492.598.218-.16.03-.793.14-1.266l.087.337c.317 1.27.459 1.148-.514 1.38-.152.037-.159.042-.346.042l.14-.141c-.585-.049-.476-.95 0-.95zm6.964.493l.01.01s-.013-.007-.01-.01zm-2.955-1.02c.108.08.057-.023.07.14-.023-.026-.022-.01-.045-.059-.03-.064-.013-.054-.025-.081zm-.105-.176l.01.01s-.014-.006-.01-.01zm-.106-.21l.01.01c0-.001-.013-.007-.01-.01zm-9.145-.599c.111 0 .217.034.287.065.108.047.12.077.203.149l.039.031.02.016c.238.213.241.62.024.842l-.032.032a.356.356 0 00-.013.016l-.019.032c-.16.256-.667.317-.96.006-.124-.132-.194-.254-.18-.516.02-.34.176-.535.498-.625.04-.01.002.002.06-.02.084-.029-.084-.028.073-.028zm6.613.457c-.02-.082-.033-.103-.035-.21.08.033.119.025.261.013.337-.027.009.076.266.022-.031.043-.044.053-.07.086-.107.139-.257.128-.422.09zm-5.628-.351c.305-.073.28-.05.43.66.055.253.121.523.19.796l.268 1.208c.079.335.138.28.062.606h-.211c-.053-.079-.048-.078-.069-.127l-.425-1.876c-.037-.284-.314-1-.245-1.267zm8.055.281c.086.063.075.048.105.176-.08-.03-.029-.002-.083-.058-.032-.033-.04-.058-.058-.083-.34-.227-.793-.258-.695.379.076.49.203.55.203 1.168-.195.131-.145.106-.457.106-.053-.638-.506-1.205-.176-1.829-.26 0-.224-.026-.368.055-.08.045.051.036-.124.051-.073-.31.144-.214.437-.234.54-.036.587.023.864.023v.07c.247-.02.23-.054.352.176zm-6.718-.598c0-.07.238-.17.323.028.111.256.262 1.246.362 1.643.021.084.04.1.068.213.072.305.282 1.136.231 1.351-.165 0-.157-.006-.281-.035-.025-.297-.284-1.198-.366-1.603l-.337-1.597zm6.33 0l.041.069-.04-.069zm-4.572 3.024c-.424 0-.277.046-.461-.758-.115-.5-.293-1.056-.359-1.562l-.137-.52c-.166-.686.219-.536.277-.312.043.168.054.297.096.466l.511 2.197c.035.168.073.294.073.49zm-3.306-3.13l-.069.041c.029-.107-.017-.074.069-.04zm0 0c.047-.035-.074-.034.105-.034-.043.032.04.023-.105.035zm.281-.105c-.02.014.046.046-.087.042-.07-.002-.02.057-.053-.042h.14zm2.814-.035l-.04-.068.04.068zm6.331-.14c.004.154.024.11.036.246-.091-.021-.15-.043-.222-.055a4.975 4.975 0 01-.236-.05c.057-.04.081-.06.163-.053.191.015.122.009.154.087h.07c-.016-.194-.06-.071.035-.175zm-9.145.175c.036-.089-.006-.024.066-.074.108-.076.24-.066.357-.066-.038.032.021.008-.087.054l-.336.087zm9.04-.457c.024.038.02.001.032.074.005.032.003.07.003.102-.024-.038-.02 0-.032-.073-.005-.032-.003-.07-.003-.103zm0 0c-.036-.047-.035.074-.035-.105.032.043.023-.04.035.105zm-2.532-.21h-.036.035zm0 0l.068-.041-.069.04zm-.036 0l-.075-.02.075.02zm-3.728.562c-.123-.082-.177-.117-.231-.226-.083-.167-.05-.06-.05-.477-.174.004-.143.028-.273.08-.132.053-.209.03-.27.055-.087.034-.007.043-.262.116-.237.067-.252.107-.63.213l-.1.04c-.138.065-.41.208-.54.094.142-.034.277-.09.395-.133l.168-.073c.08-.036.004-.005.076-.029l.019-.006.342-.13c.173-.085.656-.199.684-.212l.044-.03.016-.01.293-.091c.095-.016.145-.048.173.053.04.141-.031.177-.033.185l-.001.037c0 .005.01.035.012.041l.168.503zm10.376-.844c.047-.036-.074-.035.106-.035-.043.032.04.023-.106.035zm-11.185-.07c-.08.15.01.063-.106.105.029-.106 0-.077.106-.105zm5.628 1.125c.036.039.035-.062.035.105l-.07-.07c-.048-.031-.072-.045-.121-.09-.248-.221-.221-.07-.637-.278l-1.642-.468c-.153-.044-.223-.078-.414-.078-.026.109-.045.102-.07.21-.12-.039-.116-.223-.146-.295l-.136-.196c.332 0 1.713.383 1.98.516.242.12 1.178.128 1.22.644zm-3.518-1.125c.198.071.297.505.21.736a.702.702 0 01-.984.354.62.62 0 01-.268-.259.692.692 0 01.033-.715c.042-.063.017-.032.06-.081.046-.063.014-.038.09-.087.24-.155.677-.22.86.052zm-2.427-.176v-.14h.141v.105c-.058.005-.11 0-.14.035zm2.146-.14l.01.01c0-.001-.014-.007-.01-.01zm4.854.07c.01.026.037.01-.026.112-.193.314-.53.052-.762.225-.069.05-.14.204-.162.296-.126-.093-.037-.144-.14-.564-.058-.235-.106-.33-.106-.632.256 0 .33.106.47.178l.43.223.024.011.272.15zm-6.015-.317c.008-.095.017-.095.035-.176.147.04.075.016.141.14-.08.02-.081.026-.176.036zm1.97.035c.077.106.023.026.087.079.006.005.02.019.027.023.087.062.262.066.51.19l1 .405c.144.048.157.029.17.182-.065-.03-.235-.063-.332-.09l-1.317-.336-.026-.01-.027-.008-.83-.189v-.105l.449-.148c.07-.02.139-.038.222-.06.082-.022.048-.011.107-.033l.026-.01c.234-.088.799-.33 1.024-.277-.038.033-.05.046-.105.072-.136.064-.182.032-.286.075l-.04.02c-.22.1-.254.051-.376.116 0 0-.079.058-.106.07-.077.035-.06.031-.177.034zm-.985-.387l.01.01s-.013-.006-.01-.01zm3.517 1.02l.04.069-.075-.034-1.266-1.02c-.14-.098-.056.01-.14-.105.326-.076.616-.224.869-.208.211.014.201.145.287.399.067.2.272.735.285.9zm-3.447-1.195c.122.032.109.019.141.14-.177.041-.188.042-.14-.14zm-1.407-.106h.106c.045.168.103.101.07.176-.004.002-.012-.006-.014-.002-.001.005-.013-.001-.015-.002l-.017-.004c-.191-.063-.1-.047-.094-.062-.027-.047-.03-.093-.035-.106zm1.231-.105c.087.022.048-.016.07.07l-.07-.07zm1.196-.036c0-.011.037-.004.044-.002.006 0 .041-.08.031.01l-.003.004-.011.002c-.023 0-.062.077-.06-.014zm-1.371-.246l.175.176c.004.006.012.008.012.018 0 .01.008.016.007.02-.003.058.014.002-.019.068l-.035-.07c-.147-.013-.163-.03-.175-.177l-.04-.068.075.033zm1.23-.035l.011.01s-.014-.006-.01-.01zm-.21-.281c.058-.026-.015-.03.063.01a.391.391 0 01.183.236c-.289-.024-.246-.245-.246-.246zm.985-.317c.091.025.258.145.21.246-.063.023.023.027-.059-.014-.074-.038-.044-.023-.081-.054l-.055-.054-.013-.02c-.048-.095-.047 0-.002-.104zm0 0l-.076-.02.076.02zm1.97-.633c.03.134.046.266-.071.352l.07-.352zm0 0c0-.176.035-.216.035-.422l.105.07c-.02.09-.036.112-.058.189-.048.168.046.069-.083.163zm-3.764 1.301c-.233-.156-.625-.326-.872.008-.066.088-.099.18-.148.274-.113-.054-.55-.151-.684-.076-.083.047-.019.07-.196.11-.003-.17-.073-.403-.1-.567-.108-.65-.744-3.664-.744-4.003.182 0 .563-.164.739-.212l1.47-.43c.15-.044.273-.144.323.045.012.047.023.207.022.211-.012.211.01-.096-.056.104.11.04.088.06.12.266l.299 1.777c.024.123.036.224.057.364.016.105.03.247.086.336l.531-3.302c.056-.358.125-.241.39-.324l.23-.075c.063-.019.133-.032.195-.052l1.363-.396c0 .447-.136 1.015-.207 1.41l-.21 1.444c-.034.244-.06.496-.102.706l-.326 2.101-.074-.171c-.044-.11-.03-.085-.107-.175-.096-.113-.121-.138-.35-.162-.17-.018-.553.12-.559.402h-.176c-.052-.13-.487-.237-.764.115-.078.098-.08.167-.15.272zm9.602 1.618c.047.036-.074.035.106.035v2.391c-.278 0-.44.07-.704.07-.07.3-.038 1.688-.034 2.182l-.008.203c-.033.161-.081.17-.25.176-.263.01-.186-.056-.203-.128-.066-.268 0-.1-.162-.253-.289-.271-.08-.865-.287-1.238-.063-.112-.11-.064-.252-.098 0-.316-.186-.269-.21-.562-.107-.043-.248-.432-.3-.544-.242-.517.02-.209-.368-.829l-.237-.5c-.267-.582-.221-.031-.221-1.643l-.035-4.642-.765 4.159c-.036.211-.1.437-.115.623-.216-.058-.286-.22-.465-.304l-.675-.384c-.29-.18-.378-.13-.3-.504l1.46-6.172c.107-.493.056-.363.477-.508.07-.024.078-.034.158-.053.267-.064.032.052.389-.104a1.31 1.31 0 01.181-.06l.49-.149c.396-.09 1.48-.464 1.697-.482 0 .196.033.372.016.506-.043.353-.016 5.834-.016 6.526 0 .561-.063 1.932.035 2.356.188-.004.402-.07.598-.07z" fill="#fff"/></svg>