<svg width="54" height="54" fill="none" xmlns="http://www.w3.org/2000/svg"><path fill-rule="evenodd" clip-rule="evenodd" d="M.429 48.046v1.257c.05 1.046.396 1.55 2.367 2.11 1.656.472 6.714 1.095 8.562 1.326 2.204.275 7.849.892 9.904.888.377 0 .471.057.849.058l2.682.052h4.921c.524-.009.948-.023 1.18-.046.263-.027.63-.008.905-.007.39.002.498-.054.85-.057 3.551-.032 13.288-1.261 16.24-1.756 1.485-.248 4.654-.64 4.654-2.361v-.874c-.005-1.412-.063-2.152-.596-3.854-.51-1.63-1.761-3.69-2.963-5.06-2.566-2.924-6.973-4.226-10.903-5.69-.566-.21-2.638-1.098-3.08-1.107-1.319 5.036-1.688 7.454-4.426 12.375-.203.365-.423.69-.656 1.043l-1.411 1.996c-.7.934-.857 1.078-1.547 1.875-.193.223-.701.759-1.036.759-.322 0-1.506-1.413-1.74-1.703l-3.113-4.548c-1.852-3.297-2.88-6.877-3.761-10.474-.092-.373-.331-.98-.34-1.323-.376 0-.551.117-.8.209l-2.244.876c-2.6 1.016-7.406 2.593-9.306 4.185l-.58.46c-.818.733-1.27 1.3-1.908 2.15l-1.181 1.822c-.116.233-.229.433-.34.672C.961 44.685.428 46.42.428 48.046z" fill="#3D5AF1"/><path fill-rule="evenodd" clip-rule="evenodd" d="M14.682 19.104c0 1.704-.143 2.46.626 4.05.352.73.689 1.28 1.152 1.901.23.308.438.555.7.84.687.748.743 1.103 1.115 1.935.47 1.05 1.327 2.394 2.207 3.185.155.14.271.24.428.379.295.263.573.49.907.71.63.418 1.308.808 2.07 1.085 2.892 1.05 5.832.591 8.277-1.076.475-.324.842-.673 1.264-1.044l1.092-1.25c.234-.346.424-.595.628-.96.38-.68.706-1.268.973-2.06.1-.299.452-.637.663-.873 1.203-1.342 2.506-3.338 2.506-5.142 0-1.164.277-2.947-.914-3.035-.13-.496-.119-.8-.12-1.41 0-.326-.06-.394-.065-.701l-.153-3.767c-.264-1.572-.952-3.194-2.056-4.349-.439-.459-.763-.77-1.275-1.142a9.683 9.683 0 00-2.78-1.428 14.257 14.257 0 00-2.782-.614c-3.11-.4-7.23.083-9.726 1.909-1.922 1.404-3.044 3.208-3.468 5.424-.037.195-.048.447-.087.681-.039.239-.026.487-.024.737.002.348-.054.468-.064.756-.017.494 0 1.023.002 1.52.001.218-.054 1.989-.137 2.208-.085.227-.296.192-.518.352-.334.24-.441.661-.441 1.18z" fill="#3D5AF1"/><path fill-rule="evenodd" clip-rule="evenodd" d="M10.784 23.874c1.013 0 .96.076 1.54-.419.329-.28.226-.301.226-.99v-7.317c0-1.636.047-3.208.48-4.452.616-1.772 1.66-3.279 3.068-4.532.12-.107.21-.2.335-.297l.732-.542a14.803 14.803 0 012.958-1.65c1.409-.58 2.618-.906 4.166-1.17 1.28-.22 2.557-.164 3.857-.15.377.004.849.075 1.216.11a9.86 9.86 0 011.181.195c2.22.504 3.791 1.064 5.64 2.244 1.416.903 3.118 2.553 3.858 3.884 1.254 2.253 1.314 3.023 1.318 5.495 0 .297.048.348.063.594v1.789c-.015.245-.063.296-.063.594-.003 1.623.027 3.26.004 4.882-.004.333-.063.486-.063 1.136 0 .904-.002 2.622-.253 3.46-.173.581-.528.374-1.149.767-.11.069-.316.196-.408.286l-.547.706c-.899 1.711.574 3.67 2.296 3.67.906 0 1.454-.042 2.208-.638 1.063-.84 1.167-2.24.614-3.12-.345-.552-.806-.763-1.117-1.175-.011-.04.427-2.727.427-3.306.45-.093.766-.116 1.157-.271a2.47 2.47 0 00.9-.555c.698-.62.696-1.175.745-1.992.048-.798-.099-1.896.016-2.641.118-.763-.002-.707-.018-1.206-.033-.983.18-2.933-.3-3.743-.444-.746-1.32-1.138-2.255-1.3-.249-.044-.35-.043-.408-.288-.097-.412-.042-.443-.238-1.142-.666-2.367-1.896-4.215-3.787-5.9a15.204 15.204 0 00-2.025-1.503C34.764 1.884 31.348.623 27.473.623c-3.095 0-3.8.069-6.647.914-.72.214-1.387.494-2.043.784-3.098 1.367-5.847 3.878-7.156 6.748-.297.651-.694 1.745-.817 2.525-.136.857-.24.44-1.263.827-2.542.961-1.515 3.08-1.757 4.995-.119.944-.01.585.011 1.199.027.788-.09 3.094.187 3.79.102.256.363.61.592.774.55.392 1.231.695 2.204.695z" fill="#3D5AF1"/></svg>