<svg width="376" height="90" fill="none" xmlns="http://www.w3.org/2000/svg"><path d="M87.806 77.731c-1.936-2.84-3.357-7.36-4.132-10.071h-.387l-5.81-.517h-.258l-2.97-.516-5.165-.517c-.258.517-.646 1.162-1.033 1.808l1.55.646-1.55 2.711-2.453 4.132-.388.775-.903.904.903.775-2.453 2.066 15.236 5.552 1.808.646h19.627c-7.36-2.196-11.105-7.619-11.622-8.394zm28.797-8.005c.128 0 .128 0 0 0zM37.188 19.238c-.129 0-.129 0-.129.129 0-.129.13-.129.13-.129zm-1.031 16.657c.129 0 .129-.129.258-.129-.13 0-.258 0-.258.13zm49.066 25.438c.13.258.258.517.646.646.13-.646-.13-.775-.646-.646zM30.862 7.745h-.516c-.517.13-.904.387-1.292.646l-1.162.775-.258.258c-.258.258-.387.517-.516.904-.258.387-.258.904-.387 1.55 0 .903-.259 1.807-.388 2.711.387-.904.775-1.679.904-2.582 0-.13 0-.259.13-.388 0-.129 0-.258.128-.387v-.129c0-.13 0-.13.13-.258v-.13c0-.128 0-.128.128-.128 0 0 0-.13.13-.13 0 0 0-.129.129-.129 0 0 0-.128.129-.128l1.161-1.162s.13 0 .13-.13l.128-.128s.13 0 .13-.13c0 0 .129 0 .129-.128 0 0 .129 0 .129-.13 0 0 .129 0 .129-.129l.129-.129s.129 0 .129-.129c.129 0 .129-.129.258-.129 0 0 .13 0 .13-.129 0 0 .128 0 .128-.129 0 0 .13 0 .13-.13 0 0 .128 0 .128-.128-.258.515-.258.386-.258.386h.001zM59.01 6.196c-.13 0-.13 0 0 0-.13-.13-.13 0 0 0-.13-.13-.13-.13 0 0-.13-.13-.13-.13-.258-.13 0 .13.129.13.258.13zm40.418 15.108c-.13 0-.13 0 0 0h-.13c.13.13.13.13.13 0zm-6.2 8.91c.13 0 .13 0 0 0 0 .128 0 .128 0 0zM13.3 42.739c-.128-.775-.258-1.42-.386-2.196.129.775.258 1.55.387 2.196zm-4.65 5.552c.13.13.13.259.259.388 0-.13-.13-.258-.258-.388zm5.683.516c-.129 0-.258.13-.516.13.258-.13.387-.13.516-.13.775-.387 1.55-.516 2.454-.774-1.292-.259-1.55-1.033-1.808-2.067-.13-.387-.13-.774-.258-1.162l-1.033.388c.129.516.129 1.033.258 1.55.129.645 0 1.161-.387 1.42l1.033.387c0 .13-.13.13-.259.258zm-6.199-1.161s-.13 0-.13.129c0 0 .13 0 .13-.13zm-.259.129C5.551 52.94 4.647 58.492 4.131 64.174c.646-5.682 1.42-11.105 3.744-16.4zM2.066 64.044c-.775-.387-1.42-.904-2.066-1.55.646.647 1.42 1.163 2.066 1.55.646.388 1.162.775 1.291 1.42-.129-.645-.516-1.161-1.29-1.42zm1.423 2.841c.129.258.258.646.645.904-.387-.258-.516-.517-.645-.904zm.771-1.42c-.13.258-.13.645-.13.903 0-.387 0-.645.13-.903zm20.92-11.88c0 .13-.128.258-.128.387 0-.129 0-.258.129-.387zm.388-.645c-.13.258-.387.387-.387.645 0-.258.258-.516.387-.645zm-.776 13.557c.387-.129.646-.387.904-.774-.13.258-.517.645-.904.774zm1.291-1.678c0 .129-.128.258-.128.387.128-.129.128-.258.128-.387zm-1.422-5.036c.387-.516.904-1.162 1.291-1.678-.387.645-.903 1.162-1.29 1.678zm-8.777 20.789c5.424 1.292 10.718 2.712 16.14 4.003-5.422-1.291-10.716-2.582-16.14-4.003zm11.75-7.102c1.291 1.938 2.195 4.004 3.744 5.811.13.13.259.258.259.387-.13-.129-.259-.258-.259-.387-1.549-1.808-2.453-3.873-3.744-5.81-.646-.904-1.292-1.808-2.454-2.066 1.033.258 1.808 1.162 2.454 2.066zm-10.977-9.297c-.775 1.808-1.808 3.358-3.615 4.649 1.807-1.292 2.97-2.841 3.615-4.649zm.777-1.937c-.13.388-.259.646-.259.904.13-.258.259-.646.259-.904zm-6.975-22.338c.258.645.387 1.162.646 1.808-.259-.646-.517-1.163-.646-1.808zm.903 2.712c.129.258.129.645.258.904-.13-.259-.258-.517-.258-.904zm-.389-.905c.129.259.129.646.258.904 0-.258-.129-.516-.258-.904zm-.255 5.553h-.387.387zm-.386 1.937c-.13 0-.13 0-.258.129 0-.13.129-.13.258-.13zm-1.164.775v-.259.258zm4.262 21.306c-1.421-.904-2.841-1.42-4.391-1.42-1.808 0-3.615-.259-5.165-1.55 1.55 1.291 3.357 1.42 5.165 1.55 1.679.129 2.97.516 4.39 1.42 5.295 3.486 15.883 10.33 15.883 10.33s-10.588-6.715-15.883-10.33zm-2.842-19.757c.258-.13.387-.13.516-.387-.129.129-.387.258-.516.387zM49.197 6.067c-1.162-.129-2.324-.129-3.486-.258h-.258c-.904 0-1.162 0-1.42 1.291-.13.904-.388 1.937-.517 2.84 2.84-1.42 5.552-2.582 8.006-3.873h-2.325zM45.84 8.262c-.517.258-1.162.517-1.679.775.13-.646.258-1.162.258-1.808v-.645h.775c.516 0 .904 0 1.42.13.646 0 1.42.128 2.067.128h.258c-.775.258-1.937.904-3.1 1.42zm17.302.129c-1.42 2.97-2.066 6.069-2.195 9.426 1.162-.387 2.195-.645 3.357-.903 1.033-.259 2.195-.646 3.228-.904a6.31 6.31 0 00.904-.388c.517-.258.775-.645 1.033-1.29.387-.776.904-1.421 1.55-1.809l.774-.387c.13 0 .13 0 .258-.129.259-.13.517-.13.904-.13h1.936s.13 0 .13.13c0 0 .128 0 .128.13 0 0 .13 0 .13.128 0 0 .129 0 .129.13 0 0 .129 0 .129.128l.129.13s.129 0 .129.128l.129.13.129.129.129.129.129.129.129.129.13.129.128.129.13.129v.13c0 .128.128.128.128.257.388.646.775 1.42.904 2.195v.13c0 .258.13.516.517.645 2.066.517 4.26 1.162 6.585 1.808v-7.102h1.032s.13 0 .13-.129l.128-.129s0-.13.13-.13v-.644c-.259-.13-.388-.13-.517-.13-4.39-1.033-8.78-1.936-13.17-2.97-1.42-.258-2.97-.645-4.39-.904-.258 0-.387-.129-.646-.129H64.69c-.258 0-.516 0-.645.13h-.13c-.258 0-.387 0-.516.128h-.129c-.258 0-.516.13-.646.13h-.129c-.258 0-.387.129-.516.129h-.13c-.257.129-.516.129-.645.258h-.129c-.774-.13-1.033 0-1.162 0 0 0-.129 0-.129.13-.258.128-.387.257-.645.386-.13 0-.13.13-.258.13-.13.128-.388.258-.517.387a1.78 1.78 0 00-.387.516c-.388.13-.517.259-.517.517a.986.986 0 00-.258.646c-.387.646-.516 1.42-.387 2.066.129-.258.258-.387.387-.517l.13-.129c-.13-.258 0-.387.128-.517 0-.129.13-.129.13-.258.128-.129.128-.258.257-.258 0-.129.13-.129.13-.258l.258-.258.129-.13.258-.257c.129 0 .129-.13.258-.13.129-.128.258-.128.258-.258l.13-.129c.128-.129.257-.129.386-.258l.13-.129c.128-.129.387-.258.516-.258h.129c.129-.13.258-.13.516-.258 0 0 .13 0 .13-.13.128 0 .258-.128.387-.128s.129 0 .258-.13c.129 0 .258-.128.387-.128s.129 0 .258-.13c.13 0 .258 0 .387-.129h2.066c.128 0 .386 0 .516.13-.903-.001-1.807-.13-2.194.774h.002zM43.129 66.626c-.13 0-.13 0 0 0z" fill="#fff"/><path d="M55.78 16.784v.259c.13.516.387.903.517 1.29l.129.13c0 .129.129.258.129.258v.13c0 .128.129.128.129.257v.13c0 .128.129.128.129.257 0 .13.129.13.129.259l.387.387s.13 0 .13.129c.128 0 .128 0 .258.129h1.678c.128 0 .258 0 .387-.13h1.161v.259s0 .13.13.13v.128l.129.13h.774c.258 0 .387-.13.646-.13.258 0 .387-.129.645-.129h.13c.129 0 .387-.129.516-.129h.13c.128 0 .386-.13.516-.13h.129c.129 0 .387-.128.516-.128h.13c.257 0 .386-.13.645-.13h1.808c.129-.645-.387-1.161 0-1.936h3.356c.13 0 .258 0 .387.129h.13c.387.13.645.13 1.032.258h.13c.129 0 .258 0 .387.13.129 0 .258.128.387.128s.129 0 .258.13c.13 0 .258 0 .258.128h.258c.13 0 .258 0 .258.13h.259c.129 0 .258 0 .258.129h.258c.129 0 .258 0 .387.129h.13c.128 0 .386.129.516.129-.13.258-.13.516-.13.646v.128c-.128.259-.128.517-.257.646 0 .13-.13.13-.13.258l-.129.13v.903s-.129 0-.129.13h-1.42c-1.678-.388-3.228-.776-4.906-1.163-.13 0-.259 0-.259-.129h-1.162l-.128.129v1.678l.129-.13c.258-.257.129-.774.516-1.161 2.067.516 4.133.904 6.198 1.42.775.13.775.775.775 1.42v.388l-.129.129h-.903c-.258 0-.517-.13-.775-.13-.646-.128-1.42-.128-2.066-.386-.13 0-.259-.13-.388-.13s-.258-.128-.387-.128h-.129c-.129 0-.129 0-.258-.13h-4.131c-.129 0-.258 0-.387.13h-.13c-.128 0-.257 0-.516.129-.129 0-.258.129-.516.129h-.13c-.128 0-.257.129-.386.129-.13 0-.259.129-.517.129h-.129c-.129 0-.258.129-.387.129h-.13c-.128 0-.257.129-.516.129h-.129c-.129 0-.258.129-.387.129h-.13c-.128.129-.257.129-.386.258h-.13c-.129 0-.258.13-.387.13h-.129c-.129.128-.258.128-.387.257-.129.13-.258.13-.387.258 0 0-.13 0-.13.13-.128.129-.257.129-.386.258 1.162-.388 2.324-.775 3.357-1.292.129-.129.387-.129.516-.258h.13c.129 0 .258-.129.387-.129h.129c.129 0 .258-.129.387-.129h.13c.128 0 .257-.129.386-.129h.13c.129 0 .387-.13.516-.13h3.098c.259 0 .388 0 .646.13h.13c.257 0 .387.13.645.13.775.257 1.55.386 2.454.516 2.453.516 4.777 1.162 7.23 1.678 1.938.517 4.004.904 5.94 1.42-.128 0-.257.13-.387.13h-.129c-.129 0-.129.129-.258.129h-.129c-.129 0-.258.129-.387.129-.13 0-.258 0-.258.129h-1.291c-.13 0-.258 0-.387-.13-3.874-.903-7.748-1.807-11.622-2.453-.516-.129-1.162-.129-1.678-.258H66.5c-.13 0-.13 0-.258.13h-.13c.516.647.387.647.387.647h-.13c-.128 0-.257.129-.257.129h-.13c-.128 0-.257.129-.386.129-.13 0-.259.13-.388.13 0 0-.129 0-.129.128-.129 0-.129.13-.258.13 0 0-.129 0-.129.128-.13 0-.13.13-.258.13l-.13.128c-.128 0-.128.13-.257.13l-.13.129c-.129 0-.129.129-.258.129 0 0-.129 0-.129.129a.277.277 0 00-.258.258s-.129 0-.129.129c-.129.129-.258.129-.387.258.258 0 .516-.129.775-.258.129 0 .129-.13.258-.13.129-.128.387-.128.516-.257h.13c.129-.13.387-.13.516-.258.129 0 .258-.13.516-.13h.13c.129 0 .387-.129.516-.129h.13c.128 0 .257-.129.516-.129h.129c.129 0 .387-.129.516-.129h2.324c.129 0 .258 0 .387.13 5.036 1.032 9.943 2.066 14.85 3.357h.904l.258-.258s.129-.13.129-.259c1.42-1.55.904-3.357.904-5.165v-.645s0-.129-.13-.129c0 0-.129 0-.129-.129H85.74c1.162.775.904 1.808.904 2.84v.259c0 .129 0 .258.129.516-2.066-.516-4.132-.904-6.198-1.42-1.292-.258-2.454-.517-3.745-.775.775-.387 1.033-1.291.904-2.066-.13-.387-.258-.904-.646-1.162 0 0 .13 0 .13-.13h.903c.516.13.904.259 1.42.388 1.42.387 2.97.646 4.52 1.033V21.56c.904.258 1.807.387 2.582.645 0 0 .13 0 .13.13h.645s.129 0 .129-.13c0 0 .129 0 .129-.129l.516-.516c-1.808-.646-3.615-1.162-5.423-1.679-2.97-.904-5.94-1.678-9.04-2.453-.129 0-.387-.129-.516-.129h-.13c-.128 0-.257 0-.386-.13h-5.68c-.129 0-.258 0-.387.13h-.258c-.13 0-.258.13-.387.13h-.13c-.128 0-.386.128-.516.128-.904.387-1.937.646-2.84 1.033-.904.387-1.937.646-2.97.904-.13 0-.13 0-.259.13h-1.42s-.129 0-.129-.13c0 0-.129 0-.129-.129l-.258-.258v-.13l-.129-.128v-.13c-.129-.128-.129-.258-.258-.258-.389-.646-.518-1.162-1.164-1.679l-.003.001zM31.506 60.17v.517s-.13.13-.13.258c-.387-.774-.387-1.55-.387-2.195-.13-.904-.13-1.678-.13-2.453 0 .775 0 1.678.13 2.453.13.775 0 1.42.387 2.195.13-.129.13-.258.13-.258v-1.033.517zm83.287-42.87c0-.128 0-.128-.129-.128v-.259l-.13-.129h-.258c-.129 0-.129.13-.258.13-.129.128-.129.258-.129.386v.388c0 .258.129.387.258.646 0 .129.129.129.129.258 1.937 4.003 4.003 8.006 5.424 12.267l.387 1.161c.387 1.292.646 2.583.646 4.003 0 .517 0 1.162-.129 1.679a5.805 5.805 0 01-.904 2.324c.387.13.645.258.775.517.129.129.129.258.129.387v.258c0 .13 0 .258-.129.387-.13.13-.13.387-.259.517 0 .129-.129.258-.129.387v.129c0 .129-.129.387-.129.517v.129c0 .129 0 .129.129.258 0 .129.129.129.129.258.259.258.517.387 1.033.516 1.033.258 2.196.646 3.229.904.645.13 1.162.387 1.549.517.129 0 .129.129.258.129.129.129.258.129.387.258l.129.129.13.129s.129.13.129.258c0 .13.129.258.129.387v2.453h.129a42.02 42.02 0 01.387-1.808c.129-.645.258-1.291.516-1.937-2.324-.645-4.519-1.29-6.585-2.066.516-.258.904-.387 1.291-.387l1.55-.387c.646-.258 1.291-.646 1.808-1.162l.387-.387c.129 0 .129-.13.258-.259l.258-.258v-.129c.129-.258 0-.516-.387-.645-.775-.259-1.55-.646-2.454-1.033-.774-.259-1.678-.517-2.582-.646.258-1.291.517-2.583.129-3.874-.258-.775-.387-1.55-.646-2.195-1.549-4.778-3.744-9.426-5.939-13.946-.129-.256-.258-.643-.516-1.03z" fill="#fff"/><path d="M127.191 24.919c-.258-.258-.517-.387-1.033-.646a15.765 15.765 0 00-2.196-.904l-1.162-.387-1.162-.387-1.937-.775c-.646-.258-1.292-.516-2.067-.775a369.799 369.799 0 013.229 8.523c0 .129 0 .129.129.258 0 0 0 .129.129.129 0 0 0 .129.129.129l.129.129h1.033c.129-1.033.258-2.195.387-3.228.129-1.162-.387-2.195-.646-3.357.904.258 1.679.516 2.454.903.258.13.646.259.904.388.129.129.258.129.387.258-.904.904-1.678 1.678-2.324 2.582-.646.904-.775 1.679-.517 2.325.129.258.258.387.517.516.129 0 .129.13.258.13.258.128.516.257.904.386-.129-.516-.258-1.033-.258-1.55 0-.516.129-.903.258-1.29.387-.775 1.033-1.42 1.808-2.067l.387-.387.129-.129c.129-.129.129-.258.258-.258v-.516c.001.13.002.13-.127 0zm-5.037 1.033c.258.258.258.775.129 1.42-.129-.129-.258-.129-.258-.258-.387-.258-.904-.258-1.291-.516l-.13-.13-.258-.257s0-.13-.129-.13v-.774c.646.129 1.033.129 1.421.387.129 0 .129 0 .129.129.258 0 .387 0 .387.129zm-18.596 1.162h-1.936c-.129 0-.129 0-.258-.129-.13 0-.13 0-.259-.129h-2.452c-.129.775.258.904.775 1.033 1.033.258 2.066.646 3.099.904 2.711.775 5.423 1.679 8.263 2.454v-2.196c-.129-.257-.387-.515-.775-.774-3.486-1.808-7.359-2.324-11.233-3.486v1.292c0 .128.13.128.258.257.13.13.388.13.646.258.258.13.387.13.645.258.129 0 .13 0 .259.13.129 0 .258.129.387.129s.258.129.387.129.258.129.388.129c.129 0 .258.129.387.129s.129 0 .258.129c.129 0 .258.129.387.129s.129 0 .258.13c.129 0 .258.128.387.128s.129.13.258.13.259.128.388.128c-.646-1.29-.517-1.29-.517-1.162h.258-.258zM15.494 37.96c1.808-1.162 3.744-2.195 5.552-3.357-1.937 1.162-3.744 2.195-5.552 3.358zm5.425 6.716v.775c-1.033.387-2.196.904-3.358 1.291.13 0 .13 0 .259.129h.774c2.97-.517 6.069-1.162 9.039-1.678 1.162-.259 1.678-.259 1.808-.775v-1.937c-.904.258-1.679.646-2.583.904v.258c-.258 0-.646 0-.904.13-1.033.386-2.195.774-3.357 1.29-.387.13-.646.259-1.033.388v-.775c-.258-.13-.387-.13-.645 0zm88.321-10.589h.258s.129 0 .129-.129l.129-.129s0-.129.129-.129c0 0 0-.129.129-.258 0-.129.129-.387 0-.516 0-.259-.258-.517-.645-.646-1.937-.517-3.745-1.033-5.682-1.55-1.937-.516-3.744-1.032-5.681-1.549-.13.258-.13.517-.258.775v.517c0 .128 0 .386.129.516l.387 1.162c0-1.033.387-1.55 1.162-1.679h.774v.516c0 .13.129.259.129.259.129.258.259.387.517.516.258.13.646.258.904.387h.129c.387.13.646.13 1.033.258.387.13.646.13 1.033.258.645.13 1.42.388 2.066.517.646.13 1.42.387 2.066.517h.387c.646.387.776.387.776.387zm-55.913 1.808l-.129-.13s0-.129-.129-.129l-.387-.387h-.13s-.128 0-.128-.129h-.13s-.128 0-.128-.129h-.13s-.129-.129-.258-.129h-.129c-.129 0-.129-.13-.258-.13s-.129-.128-.258-.128h-.129c-.13 0-.13 0-.258-.13h-.13c-.128 0-.128 0-.257-.128h-.13c-.129 0-.129 0-.258-.13-.129 0-.258-.128-.387-.128s-.129 0-.258-.13h-6.582c-.13 1.034-.13 2.067-.258 3.229.258-.258.516-.517.645-.904h.904v.129c0 .129-.13.258-.13.387.776-.387 1.55-.775 2.067-1.55 0 0 0-.129.129-.129h.903c2.067.388 4.132.646 6.198 1.42.257-.516.257-.516.127-.645h-.002z" fill="#fff"/><path d="M56.038 39.252c-1.033-.517-2.066-.904-3.1-1.55-.386-.258-.774-.645-1.161-1.161-.13-.259-.517-.259-.775-.388-1.162-.258-2.324-.516-3.615-.645-.13.516-.387.903-.517 1.29-.128.388-.258.905-.516 1.292-.129.387-.258.646-.387 1.162l.129-.129s.129 0 .129-.129l.13-.129h.128l.13-.13.128-.128.13-.13.128-.128.13-.13.129-.129h1.678c.645 0 1.42 0 2.065.13.388 0 .646.129 1.033.258.387.129.646.258.904.387.646.387 1.291.646 2.066 1.033.646.387 1.291.646 2.066 1.033.129-.258.129-.517.129-.775-.516-.516-.774-.646-1.161-.904z" fill="#fff"/><path d="M51.004 42.61c.129 0 .258-.13.258-.13.13 0 .258-.129.258-.129.13 0 .13 0 .258-.129h1.679s.129 0 .129.13l.129.129c1.162.903 2.453 1.678 3.744 2.582.13-.13.13-.258.258-.387.259-.258.388-.646.517-.904s.129-.646 0-1.033h-2.065c-.13 0-.13 0-.258-.13-.13 0-.13 0-.258-.128-.13 0-.13 0-.259-.13 0 0-.129 0-.129-.129-.129 0-.129-.129-.258-.129 0 0-.129 0-.129-.129-.13 0-.129-.129-.258-.129l-.13-.129c-.128 0-.128-.129-.257-.129l-.13-.129c-.129 0-.129-.129-.258-.129l-.129-.129c-.129 0-.129-.13-.258-.13s-.129-.128-.258-.128-.129-.13-.258-.13l-.258-.257c-.13 0-.13-.13-.258-.13l-.13-.129c-.129 0-.129-.129-.258-.129 0 0-.129 0-.129-.129-.129-.129-.258-.129-.387-.258-.258.517-.646.904-.904 1.291-.387.517-.775 1.163-1.162 1.68l-.129.128h1.033s.129 0 .129-.129h.129l.129-.129s.129 0 .129-.13h.129c-.13.259-.13.259 0 .13l-.001-.001zm58.104-6.844c-.129.129-.129.129 0 0l-.129.129-.129.129-.129.129h-1.032c-.129 0-.129 0-.258-.13h-.258c-1.549-.516-3.099-.903-4.648-1.42-.387-.129-.774-.258-1.033-.387-.129-.129-.258-.129-.387-.258 0 0-.129-.13-.129-.258 0 .516 0 1.033.129 1.55 0 .258 0 .516.129.645 0 0 .129.13.258.13 1.291.386 2.582.645 3.873 1.032 1.291.387 2.582.775 4.002 1.033v-2.84c-.258.386-.259.386-.259.516zm18.598-.646c-.129.13-.129.258-.258.387-.129.259-.129.517-.129.904v.13c.387-.13.775-.259 1.033-.388.387-.129.646-.387.904-.646.129-.129.258-.258.258-.387.259-.387.13-.775-.258-1.033-.646-.258-1.162-.646-1.808-.904-1.162-.516-2.454-.904-3.745-1.42-.646-.258-1.292-.387-1.938-.517.13.259.259.388.388.646.258.258.516.517.904.775.129.13.258.13.387.258.387.13.904.387 1.292.517h.258c.129 0 .258.129.387.129h.258c.129 0 .259.129.388.129s.129 0 .258.129c.646.258 1.291.516 1.808 1.033-.129 0-.258.13-.387.258zM15.754 30.085c.516-.388 1.162-.775 1.678-1.163.517-.387 1.163-.774 1.679-1.162.258-.258.516-.387.775-.645v-.13c0-.128.129-.258.129-.386v-.517c-2.454 1.678-4.778 3.228-7.102 5.165l.516.387 2.325-1.55zm-5.683 5.81c0-.904.13-1.55.517-2.066l.387-.387c.129-.258.387-.388.646-.517.258-.129.387-.387.645-.516l-.258-.517c-.258.258-.646.516-.904.775l-.258.258-.387.387c0 .13-.13.13-.13.258l-.386.775c0 .13-.13.387-.13.517 0 .258-.129.516-.129.774 0 .388 0 .775.13 1.162.386-.387.257-.645.257-.903zm103.429-5.81c.129-.13.129-.13 0 0 .129 0 .129-.13.129-.13h.517c.903.259 1.549.775 1.936 1.808.646-.775 1.162-1.42.904-2.324h-2.065c-.129 0-.129 0-.258-.13h-.387s-.129 0-.129-.128h-.129c-.129 0-.129-.13-.258-.13s-.129-.128-.258-.128h-.13l-.129-.13-.129-.128-.129-.13-.129-.129-.258-.258v5.682h.129c0-.517.129-1.033.129-1.55 0-.516.129-1.033.129-1.55v-.387c.387-.129.386-.129.515-.258-.129 0-.129.129 0 0zm11.365 7.876c0 .13.13.258.13.258.129.13.387.258.645.387.129 0 .258.13.388.13.258.129.516.129.903.258v-1.162c0-.517 0-1.033-.516-1.291-.129-.13-.258-.13-.387-.259-.258-.129-.646-.258-.904-.387-.775-.258-1.55-.516-2.195-.775 0 .13-.13.13-.13.258v1.549-.387h1.549c.129 0 .129 0 .258.13.13 0 .13.128.13.128.129.13.129.13.129.387v.13c-.129.129 0 .388 0 .646zM118.02 47c.388-.646.775-1.42.904-2.196v-.129c.129-.774 0-1.55-.258-2.066-.258-.387-.516-.646-.775-.775-.516-.258-1.162-.129-1.807-.258v.13c0 .257-.129.386-.129.516 0 .129 0 .258.129.387 2.84.387 2.97.775 1.678 4.778 0-.13.129-.258.258-.387zm-3.098-9.814c.129 0 .129 0 .259.129h.774s.129 0 .129-.129c0 0 .129 0 .129-.13 0 0 0-.128.129-.128 0 0 0-.13.129-.13v-.387c.129-1.162 0-2.453-.387-3.873v.387c0 .387-.129.775-.129 1.162 0 .258-.129.646-.129.904v1.291l-.129.129h-2.065l.258.258c.129.13.645.388 1.032.517zm-76.314-3.098v2.194c0 .129 0 .258.129.387.387-.775 1.162-1.291 1.678-1.937.388-.387.646-.774.775-1.29h-.645c-.13 0-.258 0-.258.128-.13 0-.258 0-.258.13-.13 0-.259.128-.259.128-.129 0-.129 0-.258.13h-.516l-.388.13zM14.463 44.159l-.387-1.162c0-.13 0-.13-.129-.258 0-.13-.129-.258-.129-.387 0-.13-.129-.259-.129-.388s-.129-.258-.129-.387-.13-.258-.13-.387c0-.13-.128-.258-.128-.258-.13-.13-.13-.388-.258-.517 0-.129-.13-.129-.13-.258l-.386-.775c0 .258.128.646.128.904v.258c.13.775.259 1.55.388 2.196 0 .387.129.645.129 1.032 0 .259.129.388.129.646v.13c0 .258.129.387.129.645l1.033-.387c.129-.259.128-.389 0-.647z" fill="#fff"/><path d="M13.428 43.772c0-.387-.13-.646-.13-1.033 0 .388.13.775.13 1.033zm1.294 1.032c0-.258-.129-.387-.129-.645 0 .258 0 .387.13.645zm30.731.001c-.13-.13-.259-.388-.388-.517.13.13.258.258.388.517zM13.17 31.763c.129 0 .129-.13.258-.13l-.517-.386c-.258.258-.516.516-.904.645l.258.517c.259-.258.517-.388.905-.646zm40.419 44.548c-.646-1.291-1.292-2.453-1.808-3.744v-.13.13c.517 1.162 1.162 2.453 1.808 3.744zm-18.466 3.745c.388.517 1.033 1.033 1.679 1.162.258.13.646.13.646.517.258 1.033 1.162 1.29 2.066 1.807.258-.516.517-1.033.775-1.42-.258.516-.517.904-.775 1.42-.775-.516-1.808-.774-2.066-1.807-.13-.388-.387-.517-.646-.517-.775-.258-1.291-.645-1.679-1.162-2.84-3.615-6.585-6.585-8.006-11.234 1.292 4.649 5.165 7.618 8.006 11.234zM25.308 69.21h-.258.258zm23.761 1.162c-.13 0-.258-.13-.517-.13.259 0 .388 0 .517.13zM27.376 50.1l-.259-.259c0 .13.13.13.259.258zm-1.939 12.395c.129 0 .387.129.387.258.13.129.258.387.258.516 0-.258-.129-.387-.258-.516 0-.258-.129-.258-.387-.258-.775-.258-1.162-.904-1.162-1.42 0 .516.387 1.032 1.162 1.42zm.39-6.585c.387.258.516.645.516 1.033 0-.259-.129-.646-.516-1.033zm25.177 11.103h1.291c-.387-.128-.775-.128-1.291 0zm2.326 2.325c1.418 2.067 1.547 3.874.902 5.682.516-1.808.516-3.615-.903-5.681zM6.717 66.11c-.646-.387-1.292-.775-2.066-1.162-.258-.129-.388-.387-.517-.646 0 .259.13.517.517.646.645.388 1.42.775 2.066 1.162.129-.129.258-.129.258-.258 1.291-3.357 2.195-6.844 2.453-10.33-.258 3.486-1.033 6.973-2.453 10.33l-.258.258zm-2.454-9.555c.775-3.745 1.42-7.36 3.228-10.718 0-.129.129-.129.129-.258 0 .13 0 .13-.13.258-1.807 3.358-2.452 6.973-3.227 10.718-.517 2.453-.775 5.036-.904 7.618-.904-.516-1.55-.904-2.325-1.291.775.387 1.55.775 2.325 1.291.129-2.711.387-5.165.904-7.618zm6.971-1.808c-.258.646-.516 1.292-.775 1.809.259-.646.517-1.292.775-1.809zm-7.36 13.688c.516-.387 1.291-.258 1.937-.775-.517.388-1.42.388-1.937.775zm2.195-1.034c-.13.13-.13.259-.258.259.129 0 .258-.13.258-.258zm20.918-19.368c-.13.129-.13.387-.13.516 0-.129 0-.258.13-.516zM9.553 45.709c-.13 0-.388.129-.517.129.13 0 .258 0 .517-.13zm44.939 21.304c0-.128 0-.128 0 0zm-28.151-10.07c0 .258-.129.516-.258.774.129-.129.258-.387.258-.774zM10.33 39.898c.13 0 .13 0 0 0zm.258 15.624c0 .258 0 .646-.13 1.033 0-.387 0-.775.13-1.033zM53.33 69.338c-.257-.387-.645-.774-1.032-1.161.387.387.646.774 1.033 1.161zm-1.55-1.808l.517.517a1.007 1.007 0 01-.516-.516zM.775 62.753s.128 0 .128.129l-.128-.13zm10.846-8.78c.13-.258.13-.517.259-.775-.13.258-.259.517-.259.775zm4.006-17.303c1.678-.904 3.228-1.937 5.164-2.97.259-.13.517-.258.775-.517-.258.13-.516.258-.774.517-1.937 1.033-3.487 2.066-5.165 2.97-.13.129-.259.129-.388.258.13 0 .259-.129.388-.258z" fill="#fff"/><path d="M21.563 33.183c-.258.13-.516.259-.775.517-1.808 1.033-3.486 2.066-5.165 2.97-.129.129-.258.129-.387.258-.129.13-.129.258-.129.387v.13c0 .128.13.387.258.516 1.808-1.162 3.745-2.195 5.553-3.357v9.942c.129 0 .387-.129.516-.129.13-3.744.129-7.36.129-11.234zm5.296 10.072c-.129 0-.258.13-.387.13.129-.13.258-.13.387-.13z" fill="#fff"/><path d="M26.859 43.255c-.129 0-.258.13-.387.13-.258.128-.387.128-.646.258.258 0 .646-.13.904-.13l.129-.258zm8.907-7.231c-.13 0-.13.129-.258.129.129 0 .258 0 .258-.13zm-2.58 15.496c-.646 1.42-1.162 2.97-1.42 4.519.387-1.679.775-3.1 1.42-4.52zm-1.293-2.584c.387-1.033.774-2.066 1.42-3.099.129-.129.258-.387.258-.516-.13.129-.258.387-.258.516-.646 1.033-1.162 2.066-1.42 3.1-.646 1.807-.904 3.744-1.033 5.552 0-1.808.387-3.745 1.033-5.553zm9.944-7.231c.13 0 .259.13.517.258-.13-.129-.387-.258-.517-.258 0-.129 0-.129 0 0-.129 0-.258-.129-.387-.129.13 0 .258 0 .387.13 0-.13 0-.13 0 0z" fill="#fff"/><path d="M47.39 49.84c-.259-1.29-.646-2.582-1.292-3.744l-.387-.775c0-.129-.13-.258-.13-.258 0-.129-.129-.13-.129-.258-.129-.13-.258-.388-.387-.517s-.129-.258-.258-.387l-.258-.258-.258-.258-.387-.387-.387-.387c-.259-.259-.517-.388-.646-.388h-.13c-.129-.13-.258-.13-.516-.258-.129-.13-.258-.13-.516-.258h-.13c-.129 0-.258-.13-.258-.13h-.129c-.129 0-.387-.128-.516-.128H38.48c-.129 0-.258 0-.258.129-.129 0-.129 0-.258.129-.129 0-.258.129-.258.129s-.13 0-.13.129c-.128 0-.257.129-.257.129-.13 0-.13.129-.258.129h-.518s-.129 0-.129.129l-.129.13c-.129.128-.387.257-.516.386-.259.258-.517.387-.775.646-.387.387-.775.904-1.162 1.42-.13.13-.258.259-.258.388-.13.129-.259.387-.259.516-.645 1.033-1.033 2.066-1.42 3.1-.646 1.807-.904 3.744-1.033 5.551v1.679c0 .775 0 1.678.13 2.453.128.775 0 1.42.386 2.195.13-.129.13-.258.13-.258v-3.744c0-.129 0-.387.128-.516 0-.129 0-.387.13-.516.258-1.55.774-3.1 1.42-4.52 0 0 0-.129.129-.129.13-.258.258-.516.387-.646.517-.904 1.162-1.807 1.808-2.711.13-.13.258-.258.258-.387l.13-.13.257-.258 1.033-1.032s.129 0 .129-.13l.129-.128s.13 0 .13-.13l.128-.128s.13 0 .13-.13c0 0 .128 0 .128-.128h.13s.128 0 .128-.13h3.745c.128 0 .128 0 .258.13 0 0 .129 0 .129.129 0 0 .129 0 .129.129 0 0 .129 0 .129.129l.129.129s.129 0 .129.129l1.29 1.29c0 .13.13.13.13.259l.129.129.258.258s0 .129.129.129c.13.13.13.258.258.387.258.387.517.775.646 1.162.387.646.646 1.291 1.033 1.937.906-.388.776-.904.647-1.55h.001zm-3.099-14.074h-.904a3.915 3.915 0 01-.645.904v.387c.129-.129.258-.129.258-.258h.129c.129 0 .129-.13.258-.13s.258-.128.387-.128h.13c.128 0 .128-.13.257-.13 0-.128.13-.257.13-.386v-.259zm-1.034 30.86h.774c0 .13.13.13.13.26 0 0-.13-.13-.13-.26h-.775zm-2.066-1.161v.129a628.18 628.18 0 00.517.516c.129.13.129.13.258.13s.129.128.258.128.129.13.258.13h.258-.258c-.129 0-.129 0-.258-.13-.13 0-.13-.129-.258-.129-.13 0-.13-.129-.258-.129l-.258-.258-.259-.258v-.13z" fill="#fff"/><path d="M44.548 48.42c-.13-.129-.258-.258-.258-.387l-.13-.129c-.128-.13-.128-.13-.257-.258l-.13-.13c-.129 0-.129-.128-.258-.128 0 0-.129 0-.129-.13 0 .13-.129.13-.129 0 0 0-.129 0-.129-.129-.13 0-.13-.129-.258-.129h-.13c-.128 0-.128 0-.257-.129h-.13c-.129 0-.258 0-.387-.129h-1.678c-.128 0-.128 0-.258.13h-.129c-.129 0-.129 0-.258.128h-.129c-.129 0-.129.13-.258.13h-.129c-.13.128-.258.128-.387.258-.258.129-.517.387-.646.516-.646.646-1.162 1.291-1.55 2.066-.387.775-.774 1.55-1.032 2.324 0 .13-.13.259-.13.388-.516 1.162-.774 2.453-1.032 3.744 0 .258-.13.646-.13.904 0 .517-.128 1.033-.128 1.55 0 1.55.129 3.228.516 4.906.13.388.258.775.258 1.162 0 .13.13.259.13.388.257.904.774 1.678 1.42 2.453l.258.258s.129 0 .129.13c.129.128.129.128.258.128l.129.13c.129 0 .129.129.258.129 0 0 .13 0 .13.129.128 0 .128.129.257.129 0 0 .13 0 .13.129.128 0 .128 0 .257.129h.13c.129 0 .129 0 .258.129h2.194c.129 0 .129 0 .258-.13h.129c.13 0 .13 0 .258-.128 0 0 .13 0 .13-.13.128 0 .128-.129.257-.129 0 0 .13 0 .13-.128.128-.13.258-.13.387-.259.387-.387.904-.775 1.29-1.162.13-.129.259-.258.259-.516 0-.13.13-.258.13-.258s-.13-.13-.13-.258h-1.678c-.129 0-.129 0-.258-.13-.13 0-.13-.129-.258-.129-.13 0-.13-.129-.258-.129l-.259-.258-.258-.258v-.13c-.129-.129-.129-.257-.258-.386a.986.986 0 01-.258-.646s0-.13-.129-.13c0-.128-.129-.257-.129-.386 0 0 0-.13-.129-.13-.129-.387-.258-.903-.387-1.29 0-.259-.13-.517-.13-.647-.128-.645-.128-1.42-.128-2.195 0-.904.129-1.937.258-2.84 0-.258.129-.646.129-.904.129-.387.258-.904.387-1.292 0-.129.13-.387.13-.516.257-.517.516-1.162.903-1.679.13-.129.13-.258.258-.387 0 0 0-.129.13-.129 0-.129.128-.129.128-.258l.258-.258s.13 0 .13-.13l.129-.128s.129 0 .129-.13c0 0 .129 0 .129-.128h1.29s.13 0 .13.129h.129l.129.129s.129 0 .129.129l.129.129s.129 0 .129.129l.258.258c0 .13.129.13.129.258 0 0 0 .13.129.13.13.128.13.257.258.387.258.387.387.645.517 1.162.129.258.129.387.258.645s.129.517.258.775c.259-2.324-.258-4.52-1.807-6.328z" fill="#fff"/><path d="M40.545 64.561c.128.258.128.387.257.646a.985.985 0 00-.257-.646zM47 6.455c-.516 0-.904 0-1.42-.13h-.775v.646c-.129.646-.258 1.162-.258 1.808.517-.259 1.162-.517 1.679-.775 1.162-.517 2.325-1.162 3.487-1.679h-.258c-1.034.258-1.809.13-2.454.13zm65.468 15.624c0 .129 0 .387-.129.516-.129.517-.387 1.033-.517 1.679 1.163-.904 1.808-2.195 1.937-3.357v-.388c0-.645-.129-1.42-.516-2.066 0-.129-.129-.258-.258-.387-.129-.13-.129-.258-.258-.387v-.13c-.13-.128-.129-.258-.259-.387l-.258-.258h-.129c-.129-.129-.258-.129-.387-.258-.129 0-.258-.129-.258-.129h-.129c-.129 0-.258-.129-.387-.129h-.129c-.13 0-.259 0-.388-.13h-1.161c-.129 0-.129 0-.258.13h-.388l-.775.646h1.549c.129 0 .129 0 .258.129.13 0 .13 0 .259.129.129 0 .129 0 .258.129.129 0 .129.129.258.129s.129.13.258.13l.129.128c.129 0 .129.13.258.13l.646.645c0 .129.129.129.129.258l.129.129c0 .129.129.129.129.258 0 .13 0 .13.129.258 0 .13 0 .13.129.258v1.936c.129.259.129.389.129.389z" fill="#fff"/><path d="M126.284 60.17c-.258.258-.646.387-.904.517-.129 0-.258.129-.258.129-.129-.13-.129-.259 0-.388.775-2.195 1.033-4.26-.517-6.327-.258 0-.258.517-.646.387-.387-1.162 0-2.582-1.162-3.744 1.55.258 2.712-.388 4.132-.904-9.038-1.937-17.948-3.745-26.729-5.553-2.582-.516-5.164-1.033-7.876-1.678-.258 0-1.033.129-.388-.646 1.292-.258 1.808-1.033 2.067-2.066 0-.13.129-.387.129-.517v-.516c0-.517.129-.904 0-1.42 0-.388-.13-.646-.258-1.033 0-.13-.13-.259-.13-.259-.258-.387-.774-.516-1.162-.645-.129 0-.258 0-.387-.13-.129 0-.258 0-.387-.129-.258-.128-.517-.128-.775-.258h2.194s.13 0 .13.13c0 0 .129 0 .129.129l.387.387c0 .129.129.129.129.258v.129c0 .129.129.129.129.258v.13c0 .128.129.128.129.257v.13c.129.128.258.258.387.258h.13c1.032.129 1.936.387 2.97.516 0-2.453-.13-2.582-2.325-3.1-1.42-.386-2.97-.645-4.52-1.032.13-.13.13-.258.259-.387 0 0 0-.13.129-.13 0-.128.129-.128.129-.258 0-.129 0-.129.129-.258 0 0 0-.129.129-.129 0-.129.129-.258.129-.387v-.129c0-.13.129-.13.129-.258 0 0 0-.13.13-.13 0-.128.128-.128.128-.257 0 0 0-.13.13-.13 0-.128.128-.128.128-.258l.258-.258v.775h.904s.129 0 .129.129v-6.973c0-.646 0-1.033-.258-1.291l-.13-.13c-.128-.128-.386-.128-.645-.257-.258 0-.387-.13-.775-.13.13.904.258 1.679.387 2.583 0 .516.13.904.13 1.291v.258c0 .388-.13.775-.13 1.163v-.904c0-.259 0-.646-.129-.904 0-.646-.129-1.292-.258-1.937 0-.387-.129-.646-.129-1.033-.129-1.033-.387-2.066-.646-3.228h1.936c.13 0 .259.129.388.129h.129c.129 0 .258 0 .387.129h.129l1.55.387c.129 0 .258 0 .387.129h2.582c1.032.387 2.194.775 3.227 1.033 1.292.387 2.583.775 3.745 1.42l1.549.775s.129.13.259.13c.129 0 .129 0 .258.128h2.581c.129 0 .129 0 .258.13.13 0 .13 0 .259.128h1.161s.129 0 .129.13h2.453s-.129 0-.129-.13h-.129c-.13 0-.13-.129-.259-.129h-.129c-.129 0-.258-.129-.258-.129-.129 0-.129-.129-.258-.129 0 0-.129 0-.129-.129l-.129-.129c-.129 0-.129-.129-.258-.129 0 0-.129 0-.129-.129l-.129-.13s-.129 0-.129-.128l-.13-.13s-.129 0-.129-.128l-.129-.13s-.129 0-.129-.128l-.129-.13s-.129 0-.129-.129c0 0-.129 0-.129-.129h-.129c-.129 0-.129 0-.258-.129h-2.582s-.129 0-.129-.129c-.258-.129-.516-.387-.774-.645-.259-.259-.517-.646-.775-1.034-.129-.129-.129-.258-.258-.387-.13-.258-.259-.516-.259-.904-.129-.516-.258-1.033-.258-1.55 0-1.032.258-2.065.904-2.97l.258-.386v-.13c-1.291-.516-2.582-.903-3.873-1.42-.388-.129-.904-.387-1.292-.516-.129 0-.129 0-.258-.13-.258-.128-.646-.258-.904-.516l-.129-.129-.387-.387-.129-.13-.258-.257-.13-.13c-.129-.129-.129-.129-.257-.129l-.13-.129c-.129 0-.129-.129-.258-.129h-.129c-.129-.129-.258-.129-.387-.129h-.13c-.128 0-.128-.129-.257-.129h-1.678c-.13 0-.258 0-.387.13h-.13c-.129 0-.129 0-.258.128h-.129c-.129 0-.129.13-.258.13h-.129c-.129 0-.258.129-.387.129l-.258.258-.258.258c-.13-.13-.13-.13-.13-.258 0-.13.13-.13.13-.13 0-.129.129-.129.129-.258l.129-.129s0-.129.129-.129l.129-.129s.129 0 .129-.129h-1.678c-.129 0-.258 0-.387-.129-.13 0-.258-.129-.387-.129h-.13c-.129 0-.129 0-.258-.13h-.129c-.129 0-.258-.128-.387-.128-.516-.258-1.033-.387-1.55-.517-.516-.129-1.032-.387-1.549-.516-.129-.13-.387-.13-.645-.258 0 0-.13 0-.13-.13-.129-.257-.258-.516-.387-.645l-.129-.13c-.129-.128-.129-.128-.258-.128-.517-.258-1.033-.258-1.55-.517h-.903v.775c-.646 0-1.162-.13-1.808-.258-.387-.13-.646-.259-1.033-.388l.258-.258s.13 0 .13-.129c.129 0 .129-.129.258-.129 0 0 .129 0 .129-.129.129 0 .129-.129.258-.129h.129c.129 0 .129 0 .258-.13h1.678c2.453.13 4.778.517 7.102 1.034 2.324.516 4.649 1.033 6.844 1.808 1.162.387 2.195.774 3.357 1.162 1.162.387 2.195.904 3.357 1.291 2.195.904 4.39 1.937 6.456 3.1.775.386 1.421.774 1.937 1.42.517.516.904 1.29 1.033 2.066v.516l.129.129h.775c.129-.387.129-.904.129-1.291 0-.904-.258-1.679-.775-2.325-.129-.129-.258-.387-.516-.516-.388-.258-.775-.646-1.292-.775-.258-.129-.387-.258-.646-.387-1.678-.904-3.357-1.808-5.164-2.582-.646-.259-1.162-.517-1.808-.775-2.325-1.033-4.778-1.808-7.102-2.583-4.778-1.42-9.814-2.582-14.85-3.357h-1.807l-.129.129s0 .13-.129.13v.128s0 .13-.129.13c0 .128 0 .128-.129.257v.388c0 .129 0 .129-.129.258-.13.258-.13.516-.258.775 0 .129-.13.258-.258.387-5.165-1.033-10.33-2.195-15.495-3.228h-3.228c-.128 0-.128 0-.257.129-.646.258-1.291.387-1.937.645l-1.162.388c-.258.129-.517.129-.775.258-.258 0-.387.129-.646.129-.904.258-1.807.516-2.582.775-.387.129-.904.258-1.291.516l-1.937.775a127.987 127.987 0 01-6.07 2.84c-2.065.904-4.002 1.937-6.068 2.841-.129 0-.258.13-.258.13h-.13c-.128 0-.128.128-.257.128-.13 0-.13 0-.258.13h-.388s0-.13-.129-.13v-.903c0-.258-.129-.646-.129-.904-.129-.646-.129-1.291-.129-1.808V4.26c0-.387 0-.775-.129-1.162 0-.13-.129-.13-.129-.258l-.129-.13c-.13-.129-.258-.129-.387-.258.129 0 .258-.129.387-.129s.258-.129.387-.129c.13 0 .258-.129.387-.129.13 0 .259-.129.259-.129.129 0 .258-.129.387-.129h.129c.129 0 .258 0 .387-.13h1.42c-.258.26-.387.647-.517 1.034 0 .129-.129.129-.129.258 1.033 1.807.775 2.323.775 3.098 0 .387-.129.775-.129 1.162 0 .646-.13 1.162 0 1.808v.646c0 .387.13.904.13 1.291 0 .258 0 .387.128.646.258-1.679.517-3.357.775-4.907 0-.129 0-.258.13-.387v-.13c0-.128 0-.128.128-.257v-.13c0-.128 0-.128.13-.258v-.129s0-.129.128-.129c0 0 0-.129.13-.129 0 0 0-.129.128-.129 0 0 0-.129.13-.129l.129-.129s0-.129.129-.129l.129-.13.129-.128.129-.13s.129 0 .129-.128c0 0 .129 0 .129-.13 0 0 .13 0 .13-.128 0 0 .128 0 .128-.13h2.194c.517 0 .904 0 1.42.13 1.421.129 2.841.129 4.262.258.646 0 1.42.129 2.066.129 1.42.129 2.84.129 4.132.258.646 0 1.291.129 2.066.129v-2.84l-.129-.129-.129-.129-.129-.129h-1.162c-.258 0-.387 0-.645.13-.13 0-.258.128-.258.128l-.13.13c-.129.128-.258.258-.258.387s-.129.258-.129.387 0 .258-.129.387v.646c-.775-.13-1.42-.258-2.195-.387.129-.388.258-.646.258-.904v-.13c0-.128 0-.387-.129-.516-.129-.258-.258-.516-.517-.646-.129-.129-.258-.129-.387-.129s-.129 0-.258-.129h-1.032s-.13 0-.13.13l-.258.257s0 .13-.129.13l-.129.129c0 .129-.129.129-.129.258 0 0 0 .129-.129.129v.129s0 .129-.129.129v.129c0 .13-.129.13-.129.258h-.387c-.258 0-.517-.129-.775-.129-.13 0-.258 0-.387-.129V1.42c0-.258-.13-.516-.258-.775 0 0 0-.129-.13-.129-.129-.129-.258-.258-.387-.258 0 0-.129 0-.129-.129C48.94.13 48.81 0 48.681 0h-.516c-.13 0-.13 0-.258.13-.13 0-.13.128-.258.128-.13 0-.13.13-.13.13s-.129.128-.129.257c0 .13-.129.13-.129.258 0 .13-.129.13-.129.259s0 .258-.129.258c-.516 0-.904 0-1.42-.13-.13 0-.387-.128-.517-.128h-2.84c-.129 0-.387 0-.516.129h-.13c-.128 0-.257.129-.516.129h-.129c-.129 0-.258.129-.516.129h-.13c-.128.129-.386.129-.516.258h-.129c-.129.13-.258.13-.387.258 0 0-.13 0-.13.13-.128.128-.386.257-.516.257-.129.13-.258.258-.516.258-1.294.775-1.81 1.033-2.327 1.291-.129.13-.387.13-.517.258-.387.13-.645.258-1.032.388a16.016 16.016 0 01-4.907 1.162c-4.649.645-4.649 3.873-4.778 4.39-1.033 2.711-6.843 15.624-10.459 18.077.13 0 .13.13.258.13 1.937-1.55 4.003-2.97 5.94-4.52C24.147 21.56 25.05 9.81 25.825 8.262c.387-.646.904-1.162 1.55-1.42 1.678-.646 3.615-.905 5.552-1.292-.258.387-.516.517-.645.646-.13 0-.259.129-.388.129s-.258 0-.387.129c-.387 0-.646.129-1.033.129h-.258c-.517.13-.904.258-1.291.387-.13 0-.259.13-.388.13s-.258.128-.387.257c-.129.13-.387.259-.516.388-.775.645-1.162 1.807-1.55 3.486-.129 1.033-.387 2.066-.516 2.97-.517 2.97-.904 6.069-1.55 9.039l.258.258c.13-.13.13-.258.259-.258.516-.646 1.29-1.033 1.55-1.937.386-1.291.645-2.453 1.032-3.745.387-1.291.646-2.453 1.033-3.744.517-2.325 1.291-4.52 3.357-5.94.13 0 4.778-2.712 4.778-2.712s.129 0 .129-.129c0 0 .13 0 .13-.129l.128-.129s.13 0 .13-.129c0 0 .128 0 .128-.129h.13c.128 0 .128 0 .258-.129h.903l.13.13v.903c-.13 1.678-.26 3.228-.388 4.906-.13 1.679-.258 3.229-.387 4.907v.645c0 .13.129.258.258.517.775-.387 1.55-.904 2.324-1.292 5.553-2.97 11.105-5.681 16.786-8.522.13 0 .258-.129.388-.129 0 0 0-.129.129-.129h.387v-.129h.387c-.129.13-.258.258-.387.258-.13 0-.13.13-.258.13-.646.774-1.162 1.549-1.55 2.453-.258.516-.387 1.033-.516 1.678.129-.129.258-.258.258-.387.258-.387.516-.904.775-1.42.129-.13.129-.259.258-.388s.129-.258.258-.387c.13-.129.258-.258.258-.387l.387-.387.388-.388c.387.388.516.259.645.259.13-.13.259-.13.388-.259h.129c.129-.129.258-.129.516-.258h.13c.128-.129.257-.129.516-.258h.129c0-.258.258-.387.388-.387.129-.13.387-.13.516-.13.13 0 .387-.129.517-.129h.129c.129 0 .387-.129.516-.129h.13c.128 0 .257-.129.516-.129h2.065c1.679.258 3.358.646 5.165.904 2.582.517 5.036 1.033 7.619 1.55 2.582.516 5.035 1.033 7.618 1.55h.258c.517.128.775.386.904.903.646 2.195 1.291 4.39 1.937 6.456.258.904.516 1.808.775 2.84.129.26.129.647.258.905.258.904.516 1.937.775 2.84 0 .13.129.388.129.517.129.387.129.775.129 1.162v1.033c0 1.937-.517 3.874-1.808 5.681-.129.259-.387.517-.516.775-.13.259-.388.517-.517.775-.387.517-.646 1.162-1.033 1.679.517.129 1.162.129 1.679.258.387 0 .645.129 1.033.258l1.55.387c.516.13 1.032.387 1.29.775.13.13.388.387.388.517.129.258.258.387.258.645.258.775.258 1.679-.258 2.454 0 .129-.13.258-.259.387-.129.258-.258.387-.516.646l-.387.387s-.13.129-.258.129c-.388.258-.646.516-1.55.129l-15.753-2.195c.13-1.678.258-3.099.387-4.648 0-.646.259-1.42-.258-2.067-.387-.516-1.033.13-1.55 0 .13-.516.388-.516.647-.516 1.678-.775 3.228 0 4.906.387 2.067.517 4.132 1.162 6.327 1.679 0-.646-.129-1.162-.129-1.55.13-1.033-.387-1.42-1.42-1.678-2.453-.646-5.036-1.292-7.49-1.937-3.873-.904-7.876-1.55-11.879 0-.775.258-1.678.516-2.453.775-.517.129-.904.129-1.292 0-2.453-.904-4.906-1.808-7.23-2.97-.517-.259-1.033-.388-1.292-.904 1.033-1.42 2.84-2.067 4.39-3.358-.774.13-1.29.259-1.678.388-4.261.903-8.006.516-10.33-3.874-.775-1.291-1.937-2.453-3.745-2.195v-.258c.258-.13.646-.259.904-.517.129 0 .129-.13.258-.13.258-.128.387-.257.646-.386.129-.13.258-.13.387-.258.13-.13.387-.259.517-.388.129-.129.258-.129.387-.258l.387-.387h.13l-.13.13c-.13 0-.13 0-.258.128-.13 0-.13 0-.258.13-.13 0-.13.128-.258.128-.13 0-.13.13-.259.13s-.129.128-.258.128-.129.13-.258.13-.129.129-.258.129l-.13.129c-.128 0-.128.129-.257.129l-.13.129c-.128 0-.128.129-.257.129-.26 0-.389 0-.518.129l-.129.129c-.129.13-.258.13-.387.258-7.102 4.261-14.075 8.523-21.177 12.784-.129.129-.516.129-.387.387a61.726 61.726 0 004.132-2.066c.13.516.387 1.033.517 1.42 1.033-.258 1.678-.775 1.678-1.808 0-.646.258-1.033.775-1.291 3.745-2.582 7.619-4.778 11.492-6.973-2.066 3.228-3.228 6.844-3.873 10.718-.13.774 0 1.549-.388 2.195-1.936 2.711-1.936 6.068-2.582 9.297.904-.646 1.55-1.292 2.195-1.808.258-.258.517-.387.646-.904.129-1.55 1.291-2.712 3.099-2.84-.129 0-.129.128-.258.128-.13 0-.13.13-.258.13l-.13.129-.128.129-.13.129-.128.129-.13.129-.129.129-.129.129-.129.13-.129.128s0 .13-.129.13l-.129.128s0 .13-.13.13v1.677c0 .13 0 .13.13.258v.13c0 .129.13.258.13.387 0-.13.128-.258.128-.517v-.129c0-.129.13-.258.13-.387v-.13c.128-.128.128-.257.257-.386.13-.13.259-.258.259-.388.387-.387.645-.645 1.162-.904.258-.258.516-.387.387-.774-.387-1.42.387-1.808 1.55-2.196.128-.129.257-.129.386-.258 2.583-1.162 5.424-.904 8.135-.775 3.1.13 6.198 1.033 8.91 2.583-.258.129-.387.258-.516.258-1.162.517-1.162.904-.13 1.679.517.387 1.034.774 1.68 1.162.516-.517 1.032-.904 1.42-1.42 1.807 1.161 1.936 1.678 1.032 4.002-.387-.258-.645-.516-1.033-.775-.129.517-.774.904-.258 1.42 1.033.904 2.325 1.68 3.487 2.454.387-1.033.258-1.937.774-2.97 1.292 2.582.646 4.907-.387 7.102-.775-.13-1.291-.517-1.291-1.291 0-1.42-.904-2.196-2.195-3.229.904 4.133 2.453 7.619 4.777 10.847a37.386 37.386 0 001.55-7.36c.516 1.55 1.42 3.099.904 4.648-.517 2.066-1.42 4.003-2.325 6.07-1.29-1.55-2.066-3.23-3.357-4.52-1.42-1.292-2.582-2.712-3.357-4.39-.775-1.55-1.808-2.712-3.357-3.616-.775 1.162-1.55 2.195-2.454 3.486.775 0 1.42.13 2.066.13 1.033-.13 1.679.386 2.196 1.29 2.066 3.358 4.132 6.586 6.198 9.814.904 1.42.387 2.84.129 4.261-.387-1.162-.904-2.195-1.55-3.228-1.033-1.678-2.324-3.1-3.486-4.648-1.937-2.454-1.937-2.454-4.649-1.163-.129 0-.129.13-.387.259 2.712 3.099 5.81 5.94 7.102 10.071-2.066 1.292-.258 3.1-.646 4.907-.904-1.291-1.42-2.97-2.453-3.615-.258-.13-.646-.258-.904-.388h-3.615c.13.13.258.259.387.259.13.129.259.129.259.258l.516.516c.387.388.775.775 1.033 1.162 1.42 2.066 1.55 3.874.904 5.682 0 .129 0 .129-.13.258 0 .13.001.13-.128.258 0 .13 0 .13-.13.258v.13s0 .128-.128.128c0 0 0 .13-.13.13v.129c-.645-1.292-1.29-2.454-1.807-3.745v-.13s0-.128-.13-.128c-.257-.388-.516-.775-.903-1.162-.13-.13-.258-.258-.387-.258h-.13c-.128 0-.258-.13-.258-.13.387-.256.387-.256.258-.256 0 0-.13 0-.13-.13-.129 0-.258-.128-.387-.128h-.129c-.129 0-.258-.13-.516-.13v.13c.516 1.55.904 3.099 1.42 4.648.13.646.258 1.163.258 1.679v.258a3.58 3.58 0 01-.387 1.679c-.258.516-.516 1.033-.904 1.42-.129.13-.258.258-.516.387l-.259.258c-.903-3.615-.903-3.744-2.324-5.164-.387 1.678-.904 3.357-1.291 5.035-.13.775-.517 1.292-1.291 1.42-.13-.128-.13-.258-.259-.386l-.129-.13c0-.129-.129-.129-.129-.258l-.129-.129-.129-.129-.129-.129-.129-.129-.129-.13s-.13 0-.13-.128h-1.548l-.129.129-.13.129-.128.129-.13.13-.128.128s0 .13-.13.13c0 0-.129.128-.129.257 0 0 0 .13-.129.13 0 .129-.129.258-.129.387-.258.516-.516.904-.774 1.42-.775-.516-1.808-.775-2.067-1.808-.129-.387-.387-.516-.645-.516-.775-.13-1.292-.517-1.679-1.162-2.84-3.616-6.585-6.586-8.006-11.234h-.645s-.13 0-.13.129h-.774c-.129-.904-.129-1.808-.258-2.712.388-.129.646-.387.904-.775.13-.129.13-.258.258-.387 0-.129.13-.258.13-.387.128-.387.128-.646.128-1.033 0-.258 0-.517-.129-.646 0-.258-.129-.387-.258-.516-.129-.13-.258-.13-.387-.258-.775-.258-1.162-.904-1.162-1.42 0-.13 0-.388.13-.647.128-.258.128-.387.257-.645.387-.517.904-1.162 1.291-1.679 0-.129.13-.129.13-.258.129-.258.258-.516.258-.775 0-.387-.13-.775-.517-1.033-.516-.387-.775-.904-.775-1.42v-.645c0-.13.13-.259.13-.388.129-.258.258-.387.387-.645.516-.517 1.033-1.033 1.678-1.55l.387-.387c0-.13.13-.258 0-.258v-.13c0-.128-.129-.258-.258-.387l-.258-.258c0-.129-.129-.129-.129-.258s-.129-.129-.129-.258c0-.13 0-.13-.129-.258v-.516c0-.13.129-.388.129-.517.13-.258.258-.516.516-.775.259-.258.388-.645.646-1.033-4.26 0-8.135 1.679-12.008 2.97-.258.13-.517.13-.775.258h-.13c-.257 0-.386.13-.645.13-.13 0-.258.129-.387.129-.13 0-.258.129-.517.129-.258.129-.646.129-.904.258 0-.258 0-.387.13-.646.129-.258.387-.387.645-.516.13 0 .387-.13.517-.13.129 0 .387 0 .516-.129.13 0 .13-.129.258-.129h-.646c-.13 0-.13.13-.258.13h-.259c-.129 0-.129 0-.258.128-.258.13-.516.13-.646.259-.128 0-.128.129-.128.129-.259.258-.259.645-.13 1.162.13 1.032.13 1.936-.129 2.84 0 .258-.129.517-.258.775s-.129.516-.258.775c-.258.646-.517 1.291-.775 1.808 0-.388 0-.775.13-1.033v-2.97c-.13-.258-.259-.387-.517-.646.129-.129.387-.258.516-.387.258-.13.387-.129.517-.387-.13-.387-.387-.517-.646-.775-.258-.13-.646-.258-.904-.258.13-.387.258-.646.517-.775.129 0 .129-.13.258-.13h.129c.129 0 .258 0 .387-.128h.388c.128 0 .257-.13.386-.13l-.129-.128c-.129-.13-.129-.13-.258-.13s-.258-.128-.258-.128H9.944c-.129 0-.258 0-.258-.13-.13 0-.258-.129-.258-.129l.387-.387s.13 0 .13-.129c0 0 .128 0 .128-.129h.904c.258 0 .645-.129.904-.258-.517-.258-.904-.387-1.42-.387H8.782l-.129-.13c.13 0 .13-.128.258-.128.13-.13.388-.13.517-.13.387-.129.775-.129 1.291-.258h.904s.129 0 .129.13l.129.128.387.388c0-.13-.13-.258-.13-.388-.128-.258-.128-.516-.257-.774v-.13c-.13-.258-.13-.387-.13-.645v-.13c0-.257-.128-.386-.128-.645-.13-.258-.13-.646-.258-.904-.13-.258-.13-.646-.259-.904-.129-.645-.387-1.162-.645-1.808-.259-.516-.517-1.162-.775-1.678-.646.387-.775 1.033-1.033 1.42-.258.646-.387 1.42-.517 2.066 0 .259-.129.388-.129.646v.13c0 .257 0 .386-.129.645v2.453c0 .13 0 .13-.129.258-1.808 3.358-2.453 7.102-3.228 10.718-.517 2.453-.775 5.036-.904 7.618-.904-.516-1.55-.904-2.324-1.291 0 0-.13 0-.13-.13l-.774-.386c.646.646 1.291 1.162 2.066 1.55.646.386 1.162.774 1.291 1.42 0 .258.13.387.13.774v.775c.128.258.257.646.645.904v-1.55c0-.258 0-.645.13-.904.774.517 1.42.904 2.065 1.42a.99.99 0 01-.258.647c-.129.129-.129.258-.258.258-.516.387-1.42.387-1.937.775 1.55 1.29 3.357 1.42 5.165 1.549 1.679 0 3.1.516 4.39 1.42 5.295 3.487 15.883 10.33 15.883 10.33l.516.646s-13.945-1.678-13.945-1.55c5.423 1.292 10.717 2.712 16.14 4.004l-.516.516-21.951.258c.258 0 24.921.904 24.921.904l5.165 2.324 2.324.646 7.49-2.453 9.684-1.162 17.948 2.582-5.81-2.841-14.333-5.165 3.616-3.099-.259-.258h-.774l3.357-3.487 2.453-4.132-1.808-.645c1.42-1.937 3.487-6.069 3.487-6.069l7.102.646 3.228.387 5.81.517 2.454.129s1.808 7.747 4.261 11.234c0 0 8.264 13.17 26.213 5.81 7.747-4.52 9.296-10.846 9.942-14.978-.775 0-1.162.516-2.066.258 1.937-1.937 3.099-4.261 1.937-7.102h-.003zM95.035 13.168c.13-.258.13-.645.646-.775.129 0 .258 0 .258-.129h1.807c.13 0 .13 0 .258.13.13 0 .13.129.258.129h.13s.129 0 .129.129h.129s.129 0 .129.129h.129s.129 0 .129.129l.129.129.129.129.129.129.129.129.13.13.128.128.13.13.128.128c0 .13.129.13.129.258v.13l.129.129v.129s0 .129.13.129v.129s0 .129.129.129v.129s0 .129.129.129v3.098c0 .129 0 .258-.129.258 0 .129 0 .258-.129.258-.13.258-.13.387-.259.646 0 .129-.129.258-.129.387.129 0 .258-.13.258-.13.13 0 .13-.128.259-.128.129-.13.387-.258.516-.387l.258-.258c.258-.259.387-.646.517-1.034 0-.258.129-.387.129-.645v-1.291c0-.517 0-1.033-.129-1.55.645.258 1.291.387 1.808.646.258.129.387.129.645.258.775.258 1.679.516 2.583.904-.129.129-.258.129-.258.258-.517.517-.775.904-1.033 1.42-.129.13-.129.259-.259.388-.129.258-.129.387-.258.646-.258.774-.258 1.678-.129 2.582h-.903c-.129 0-.258-.13-.387-.13h-.13c-.129 0-.129 0-.258-.128h-.129c-.129 0-.258 0-.258-.13h-.129c-.129 0-.258 0-.387-.128h-2.582c-.129 0-1.033-.13-1.29-.258-.388-.13-.647-.259-1.034-.388-.258-.129-.387-.129-.646-.258-.387-.258-.775-.516-1.033-.775-.129-.129-.258-.258-.516-.387-.258-.258-.517-.646-.775-1.033-.129-.129-.129-.387-.258-.516 0-.13-.13-.13-.13-.259-.128-.258-.128-.645-.257-.903v-.904c.774-.774.903-1.419 1.161-2.194zM58.622 6.195v-.129h.13c.129.13-.001.13-.13.13zm30.86 4.132c.388.13.905.258 1.292.517.387.129.775.258 1.291.387.775.258 1.679.646 2.454.904-1.033 1.55-1.42 3.228-1.033 5.036 0 .258.129.516.258.904 0 .129.129.258.129.387-.517 0-.904-.13-1.162-.387-.13-.13-.258-.13-.387-.258-.258-.13-.388-.388-.517-.646l-.129-.13c-.129-.258-.258-.516-.258-.903-.646-1.937-1.292-3.745-1.937-5.81zm-52.295 8.781l-.13.129s.13 0 .13-.129zM9.296 55.521c-.258 3.487-1.033 6.973-2.454 10.33 0 .13-.129.13-.258.259a29.189 29.189 0 00-2.066-1.162c-.258-.13-.387-.388-.516-.646v-.13c.516-5.552 1.42-11.104 3.744-16.398 0 0 .13 0 .13-.13l.257.259c.13.129.259.258.259.387.129.13.129.258.258.387.129.258.129.646.258.904v.258c.129 1.033.129 2.067.258 3.1.258.904.259 1.678.13 2.582zm3.873 13.3a11.408 11.408 0 003.616-4.648c.129-.258.258-.646.387-.904.13-.258.258-.646.258-.904 1.679.646 3.228.646 4.907.646 1.808.129 2.324.775 2.453 2.97v.516c-2.453.258-4.648 1.162-6.973 1.55-1.549.258-2.969.774-4.648.774zm18.595 10.976l-.13.13c-.129-.13-.258-.259-.387-.259-5.423-2.97-10.717-5.94-16.14-8.91 3.486 0 6.972.13 10.33.775 1.162.258 1.807 1.162 2.453 2.066 1.291 1.937 2.195 4.003 3.745 5.81.129.13.258.259.258.388-.258-.129-.259 0-.13 0zm42.482-18.852c-1.808-.387-3.486-.517-5.294-.904-1.292-.258-2.454-.387-3.487 1.162 0-2.324.258-3.874.904-5.165.13.904.13 1.55.258 2.454 3.357.516 6.844 1.032 10.33 1.549-.774.775-1.55 1.033-2.711.904zm38.221 4.132c-.129 5.165-4.132 9.168-9.039 9.297-4.777.129-8.91-3.745-9.297-8.652.517-.258 1.033 0 1.55 0 .645 0 .904.258 1.162.775 1.678 4.39 6.198 6.327 10.201 4.39 4.003-1.808 5.552-6.585 3.357-10.588-.129-.129-.129-.258-.258-.516 1.291.128 2.324 2.84 2.324 5.294zM94.26 62.752c.775-.129 1.42.13 2.195.259v1.42c-.775-.13-1.55-.258-2.195-.258-.258-.646 0-1.033 0-1.42zm20.66-13.429c-2.195 2.583-4.39 5.165-6.456 7.877-.775.904-1.549 1.162-2.582 1.033-8.006-1.033-16.012-1.937-24.018-2.97.646-1.291 1.679-2.195 2.582-3.357 2.067-2.583 4.262-5.036 6.328-7.619.516-.645.903-.904 1.678-.645 1.42.387 2.84.645 4.39.903-1.678 3.1-3.357 6.07-4.906 9.04l.129.128c2.324-2.582 4.648-5.165 6.973-7.876.516-.517.904-.775 1.549-.517 1.937.517 4.003.904 6.069 1.291-1.55 2.712-2.97 5.295-4.39 7.877l.258.258c2.066-2.324 4.003-4.52 6.068-6.843.517-.517.904-.775 1.679-.646 1.679.387 3.486.775 5.294 1.162-.128.388-.515.646-.645.904zm1.162 1.808c2.841 0 5.036 2.195 5.424 5.036-1.55-1.937-3.099-3.874-5.424-5.036zm2.325 23.114c-.646-1.55-1.033-3.1-1.679-4.39 1.292.128 1.55 1.161 1.808 2.066.129.645.129 1.42-.129 2.324zm2.453-5.294c-.646-2.195-1.808-3.874-3.486-5.553 2.97 1.033 4.39 3.228 3.486 5.553zm1.42-6.715c-1.549-2.066-3.228-4.132-5.552-5.423.516-.258.904-.13 1.291 0 2.066.645 4.391 3.228 4.391 5.165-.13.129-.13.13-.13.258z" fill="#fff"/><path d="M93.228 30.343c.13-.13 0-.13 0 0 .13-.13.13-.13 0 0 0-.13 0-.13 0 0zm-57.071 5.552c.129-.129.129-.129.258-.129-.13 0-.258 0-.258.13zm80.446 33.831c.128 0 .128 0 0 0zm89.741-15.236v10.46h-8.006l8.006-10.46zm64.305 0v10.46h-8.006l8.006-10.46zm-129.341-29.2c-.238.434-.7.651-1.386.651-.7 0-1.169-.217-1.407-.651-.238-.434-.357-1.064-.357-1.89v-7.833c0-.812.119-1.428.357-1.848.238-.434.707-.651 1.407-.651.7 0 1.162.21 1.386.63.238.42.357 1.043.357 1.869V23.4c0 .826-.119 1.456-.357 1.89zm46.643-7.623c-.364.406-.987.609-1.869.609h-.987V13.11h1.155c.854 0 1.442.203 1.764.609.336.406.504 1.057.504 1.953 0 .924-.189 1.589-.567 1.995zm14.294 7.623c-.238.434-.7.651-1.386.651-.7 0-1.169-.217-1.407-.651-.238-.434-.357-1.064-.357-1.89v-7.833c0-.812.119-1.428.357-1.848.238-.434.707-.651 1.407-.651.7 0 1.162.21 1.386.63.238.42.357 1.043.357 1.869V23.4c0 .826-.119 1.456-.357 1.89zm12.424-10.332l1.155 7.14h-2.31l1.155-7.14zm14.815 10.521c-.308.238-.805.357-1.491.357h-.966V13.194h.924c.672 0 1.162.098 1.47.294.322.182.532.469.63.861.098.392.147.966.147 1.722v6.51c0 .84-.042 1.477-.126 1.911-.084.42-.28.749-.588.987zm35.769-.189c-.238.434-.7.651-1.386.651-.7 0-1.169-.217-1.407-.651-.238-.434-.357-1.064-.357-1.89v-7.833c0-.812.119-1.428.357-1.848.238-.434.707-.651 1.407-.651.7 0 1.162.21 1.386.63.238.42.357 1.043.357 1.869V23.4c0 .826-.119 1.456-.357 1.89zm25.507 0c-.238.434-.7.651-1.386.651-.7 0-1.169-.217-1.407-.651-.238-.434-.357-1.064-.357-1.89v-7.833c0-.812.119-1.428.357-1.848.238-.434.707-.651 1.407-.651.7 0 1.162.21 1.386.63.238.42.357 1.043.357 1.869V23.4c0 .826-.119 1.456-.357 1.89zm50.376-10.332l1.155 7.14h-2.31l1.155-7.14z" fill="#fff"/><path fill-rule="evenodd" clip-rule="evenodd" d="M92.842 3.485c51.393 0 282.815.076 282.815.076l-72.598 82.823H113.964c10.578-.253 21.502-17.791 13.484-33.573.129 0 2.97-1.162 2.97-1.162l1.678-6.586-3.615-1.291 2.582-2.582-.645-2.325c.516-.387 1.033-.775 1.42-1.162.33-.22.472-.44.666-.738l.109-.166c.516-.904.645-1.937.387-2.84-.258-.905-.904-1.55-1.808-2.067-.352-.211-1.013-.5-1.561-.74-.456-.198-.833-.363-.892-.422l-.387-1.162c.053-.053.129-.107.218-.17.125-.088.276-.195.427-.346.259-.13.517-.388.646-.517 0-.129.129-.258.258-.387a3.9 3.9 0 00.646-.904c.035-.07.069-.13.102-.185.087-.152.156-.272.156-.46.258-.776.129-1.55-.129-2.325a2.801 2.801 0 00-.646-1.033l-.129-.129c-.516-.516-1.033-.904-1.936-1.291-.454-.272-.971-.48-1.552-.715-.246-.1-.504-.203-.773-.318l-1.162-.387-.646-.259-.516-.129c-.771-.257-1.413-.514-2.056-.77l-.01-.005-.387-.129v-.775c0-1.549-.517-2.84-1.421-4.002-.176-.265-.413-.47-.628-.655-.099-.086-.194-.168-.276-.25-.645-.516-1.291-.903-2.066-1.29l-.129-.13s-.129-.129-.258-.129c-.08-.08-.259-.16-.505-.27a12.702 12.702 0 01-.528-.246c-4.778-2.325-9.814-4.132-14.85-5.682a431.783 431.783 0 01-4.044-1.226c-1.808-.554-3.161-.97-3.316-.97zM213.575 72.05h3.745v-7.1h-3.745V44.42l-7.231-.001-15.237 20.015v7.618h15.237v6.198h7.231v-6.198zm22.855-1.55l4.003 7.748h9.814l-8.006-12.654 7.36-11.492h-9.168l-4.003 6.714-3.486-6.714h-9.943l7.489 11.492-7.876 12.654h9.039l4.777-7.747zm41.579 1.55h3.744v-7.1h-3.744V44.42l-7.232-.001-15.236 20.015v7.618h15.236v6.198h7.232v-6.198zm-141.78-36.285v2.583h204.018v-2.583H136.229zm-.087-8.943c.756.938 2.016 1.407 3.78 1.407 1.736 0 2.982-.476 3.738-1.428.77-.952 1.155-2.331 1.155-4.137V16.28c0-1.806-.378-3.171-1.134-4.095-.756-.924-2.009-1.386-3.759-1.386-1.764 0-3.024.462-3.78 1.386-.756.924-1.134 2.289-1.134 4.095v6.384c0 1.82.378 3.206 1.134 4.158zm20.485-15.834h-6.993v17.01h3.087V20.25h3.192v-2.163h-3.192v-4.956h3.906v-2.142zm11.195 0h-6.993v17.01h3.087V20.25h3.192v-2.163h-3.192v-4.956h3.906v-2.142zm9.179 9.156h-5.061v1.953h5.061v-1.953zm9.102-9.156h-4.095v17.01h3.087v-7.791h1.47l2.037 7.791h3.108l-2.373-8.379c.77-.308 1.309-.798 1.617-1.47.322-.686.483-1.568.483-2.646 0-1.652-.441-2.814-1.323-3.486-.882-.686-2.219-1.029-4.011-1.029zm10.976 15.834c.756.938 2.016 1.407 3.78 1.407 1.736 0 2.982-.476 3.738-1.428.77-.952 1.155-2.331 1.155-4.137V16.28c0-1.806-.378-3.171-1.134-4.095-.756-.924-2.009-1.386-3.759-1.386-1.764 0-3.024.462-3.78 1.386-.756.924-1.134 2.289-1.134 4.095v6.384c0 1.82.378 3.206 1.134 4.158zm19.228-15.834h-3.318l-3.402 17.01h2.919l.693-3.927h2.961l.672 3.927h2.877l-3.402-17.01zm11.644 0h-4.011v17.01h4.137c1.316 0 2.359-.196 3.129-.588a3.44 3.44 0 001.638-1.806c.336-.798.504-1.841.504-3.129V16.28c0-1.26-.168-2.268-.504-3.024-.322-.77-.875-1.337-1.659-1.701-.784-.378-1.862-.567-3.234-.567zm20.911 0h-3.087v17.01h3.087v-6.447l.756-1.281 2.835 7.728h3.087l-3.591-9.429 3.255-7.581h-2.961l-3.381 7.476v-7.476zm11.225 15.834c.756.938 2.016 1.407 3.78 1.407 1.736 0 2.982-.476 3.738-1.428.77-.952 1.155-2.331 1.155-4.137V16.28c0-1.806-.378-3.171-1.134-4.095-.756-.924-2.009-1.386-3.759-1.386-1.764 0-3.024.462-3.78 1.386-.756.924-1.134 2.289-1.134 4.095v6.384c0 1.82.378 3.206 1.134 4.158zm16.579-15.834h-3.087v17.01h7.224v-2.121h-4.137V10.989zm8.928 15.834c.756.938 2.016 1.407 3.78 1.407 1.736 0 2.982-.476 3.738-1.428.77-.952 1.155-2.331 1.155-4.137V16.28c0-1.806-.378-3.171-1.134-4.095-.756-.924-2.009-1.386-3.759-1.386-1.764 0-3.024.462-3.78 1.386-.756.924-1.134 2.289-1.134 4.095v6.384c0 1.82.378 3.206 1.134 4.158zm16.957-15.834h-3.213l-.294 17.01h2.331l.231-11.865 2.457 11.865h1.869l2.415-11.823.252 11.823h2.31l-.315-17.01h-3.129l-2.499 11.781-2.415-11.781zm12.237 0l3.444 10.521v6.489h2.961V21.51l3.402-10.521h-2.835l-1.974 6.741-2.1-6.741h-2.898zm16.974 0h-3.066v17.01h3.066v-17.01zm11.012 0h-3.318l-3.402 17.01h2.919l.693-3.927h2.961l.672 3.927h2.877l-3.402-17.01z" fill="#fff"/><path d="M113.502 86.384h.462a9.748 9.748 0 01-.462 0z" fill="#fff"/></svg>