<svg width="54" height="54" fill="none" xmlns="http://www.w3.org/2000/svg"><path fill-rule="evenodd" clip-rule="evenodd" d="M32.706 15.354L7.744 10.587c-.637-.127-1.089-.207-1.79-.332-2.52-.45-1.95-.772-3.939 1.217-2.967 2.967-1.501 2.832 2.156 4.679l18.714 8.891-9.19 9.257-4.612-1.295c-5.423-1.421-4.79-1.912-7.068.366-2.436 2.436-2.316 2.566 2.289 4.944l2.214 1.236c1.036.58 4.7 2.472 5.186 2.91.35.317.58.95.855 1.402 1.522 2.505 3.25 6.044 4.875 8.794 1.216 2.06 2.165.688 3.36-.507 2.098-2.097 1.943-1.639.381-6.95-.236-.805-.441-1.628-.663-2.39-.227-.778-.502-1.611-.68-2.372l9.258-9.19c.278.495.406.897.65 1.406l8.94 18.664c1.133 2.3 1.226 3.62 3.947.898 2.043-2.043 1.848-1.332.995-5.574l-4.81-25.182L50.857 9.086c1.137-1.386 2.685-3.58 2.685-5.809 0-1.517-1.197-2.654-2.92-2.654-3.04 0-7.51 4.258-9.788 6.536l-6.105 6.105c-.565.564-1.634 1.509-2.024 2.09z" fill="#3D5AF1"/></svg>