<svg width="46" height="43" fill="none" xmlns="http://www.w3.org/2000/svg"><path fill-rule="evenodd" clip-rule="evenodd" d="M4.418 12.348c0-1.05.42-2.2.957-3.004l.587-.734c.933-1.021 2.462-1.614 3.941-1.614 2.902 0 5.346 2.456 5.346 5.352 0 4.248-4.504 6.494-7.638 4.936a6.794 6.794 0 01-.847-.473l-.769-.62a5.709 5.709 0 01-1.421-2.609 7.706 7.706 0 01-.156-1.235zm2.014-8.689v1.668c-.414.097-1.073.69-1.295.661-.124-.016-.546-.285-.671-.36-.254-.154-.423-.238-.672-.37L2.527 6.492c.267.49.559.972.85 1.407-.144.216-.23.345-.371.602l-.323.65H1.017C.925 9.544.6 10.626.6 10.956c.289.068 1.085.614 1.389.695v1.39c0 .207-.114.194-.27.287-.115.068-.226.13-.355.2-.26.14-.494.274-.764.417.138.594.352 1.16.486 1.738h1.597c.263.499.46.866.763 1.32l-.763 1.321 1.233 1.268c1.757-.996.994-.922 2.006-.41.236.12.47.266.718.324l-.07 1.39c0 .308 1.674.615 1.806.626.075-.281.542-1.033.694-1.321l1.597-.07c.106.398.588.923.694 1.32.345 0 1.556-.366 1.805-.486 0-.345-.061-.342-.072-.692-.008-.271.003-.563.003-.837.436-.102 1.047-.536 1.388-.764.073.063.011.014.12.088.045.03.133.086.17.108.127.079.168.097.311.175.235.128.448.258.649.393L17 18.203c-.167-.612-.796-1.05-.668-1.426l.396-.654c.435-.785-.049-.648 1.852-.648.006-.24.338-1.573.417-1.737-.193-.045-1.14-.575-1.32-.696.036-.426.07-.201.07-.903 0-.386-.07-.412-.07-.765.383-.089.836-.529 1.25-.625-.02-.235-.402-1.632-.486-1.807-.491 0-.88.07-1.458.07-.068-.293-.225-.471-.37-.742a3.184 3.184 0 00-.463-.65c.237-.448.53-.877.764-1.32-.487-.326-.827-.852-1.32-1.181l-1.249.764-1.007-.59c-.155-.077-.248-.103-.381-.174v-1.53c-.394-.091-1.476-.417-1.806-.417-.071.27-.54 1.03-.694 1.321-.254 0-.513-.006-.766-.003-.379.005-.414.073-.761.073l-.764-1.39-1.735.486zm15.135 9.106c0-.933.18-1.663.848-2.278 1.984-1.825 4.775-.161 4.775 1.791v.487c0 1.282-1.288 2.571-2.569 2.571-1.017 0-1.484-.06-2.24-.816-.45-.45-.814-1.054-.814-1.755zm.902-5.213c0 .525-.07.87-.07 1.46-.541.126-.139.404-1.087-.024-.717-.325-.691-.497-1.412.58.157.587.85.927.716 1.4-.107.374-.32.392-.663.46-.276.054-.688.13-.886.225-.09.39-.07.702-.07 1.181.347.029.627.196.948.303.466.154.467.21.51.74-.214.321-.679.709-.902 1.042l.556.973c.89-.074 1.273-.692 1.76-.092.142.176.137.105.101.415-.033.282-.06.786-.126 1.068.29.153.762.407 1.18.417.056-.21.23-.354.367-.537.136-.18.344-.375.397-.576.224.108.379.07.694.07.095.407.521.793.625 1.182.506 0 .817-.194 1.18-.278 0-.33-.028-.804-.002-1.115.033-.393.286-.44.558-.623l1.319.556.694-.904c-.347-.656-1.436-1.56-.04-1.848.35-.072.61-.11.873-.237v-1.18c-.43-.036-.874-.314-1.319-.417-.015-.672-.369-.292.54-1.336.111-.128.13-.122.224-.263-.049-.208-.478-.973-.625-.973-.327 0-1.034.265-1.389.347-.118-.177-.119-.217-.347-.278 0-.613.07-.94.07-1.529-1.01-.235-.848-.737-1.478.12-.136.183-.342.372-.397.575h-.624c-.094-.14-.678-1.181-.764-1.181-.366 0-.863.159-1.11.278zM17.748 21.87c0-.739.012-1.468.713-2.066 1.852-1.582 4.008.049 4.008 1.44 0 .755-.018 1.506-.752 2.098-1.05.846-2.166.813-3.208-.01-.302-.238-.761-.93-.761-1.462zm.833-4.24v.765c-.257.069-.326.208-.625.278-.185-.124-.37-.224-.555-.348l-.57.611c.13.233.242.413.362.64-.118.175-.222.314-.278.556-.736 0-.698-.412-.972.765.218.115.398.227.625.347v.695c-.905.242-.428.606-.417 1.113.868 0 .714-.058.888.223.342.554.012.374-.124.958l.539.573c.23-.13.378-.235.572-.364.197.104.386.222.624.278v.764c.86.072.632.49 1.111-.417h.764c.056.242.16.381.277.556.317-.026.554-.143.834-.208-.067-.285-.07-.327-.07-.695.264-.062.425-.213.625-.348l.555.348.572-.54c-.089-.327-.259-.377-.274-.582-.017-.232.184-.299.258-.616h.694c.066-.137.192-.642.208-.834-.607-.322-.555-.103-.555-.904 0-.228.371-.32.555-.417-.065-.28-.182-.517-.208-.834h-.694c-.407-.769-.398-.428 0-1.181-.117-.078-.503-.487-.556-.487-.396 0-.355.243-.624.248-.134.002-.39-.193-.625-.248v-.764c-.347-.008-.486-.132-.833-.14-.083.354-.196.273-.278.626-.239-.02-.15-.038-.327-.03-.075.002-.233.03-.367.03-.054-.203-.239-.463-.347-.625-.256.06-.492.145-.764.208zm0-11.538c0-1.383 2.222-1.636 2.222.07 0 1.056-1.664 1.367-2.105.369a3.547 3.547 0 01-.117-.44zm0-1.53a1.12 1.12 0 01-.555-.138c-.108.16-.233.315-.347.486.212.403.48.793.063 1.175-.091.084-.341.191-.341.285 0 .99.632.216 1.053 1.031.095.186.058.445.058.707.17.09.318.128.486.208.146-.218.301-.429.523-.439.003 0 .126.01.165.01.284-.005.142-.034.422-.057l.401.433c.9-.286.312-.444.467-.884l.29-.405c.273-.305.533-.02.713-.33.251-.434-.153-.556-.264-.631-.213-.143-.166-.088-.243-.386-.078-.298-.141-.37.018-.649l.146-.207c-.672-1.005-.472.176-1.443-.502-.17-.119-.244-.331-.293-.54-1.058 0-.37.276-.944.653-.085.056-.297.18-.375.18z" fill="#fff"/><path fill-rule="evenodd" clip-rule="evenodd" d="M22.481 38.708c.915-.365 2.018-1.102 2.912-1.584.752-.405.76-.298.752-1.24-.026-3.667.382-2.971-1.13-3.846-.72-.416-1.669-1.085-2.44-1.389l-3.137 1.804c-.65.537-.377 3.575-.195 4.338l3.238 1.917zm15.402-29.95c-.36-.83-.745-1.589-1.157-2.454-.504-1.057-.11-1.165.352-2.061.694-1.342 1.946-3.135 2.16-3.9-3.34.677-5.727 1.006-7.273 3.468-1.296 2.065-.905 4.66-.22 7.73l-9.11 15.498c-4.149.71-6.5 2.838-7.147 5.823C13.224 43.302 28.5 45.553 30.22 35.74c.393-2.247-.142-3.188-.953-5.342l8.462-13.757c1.121-1.825.537-.96 2.891-1.816 6.077-2.213 5.645-8.833 3.888-11.36-.105.41-1.99 3.13-2.396 3.755-.859 1.323-.44 1.583-4.23 1.536z" fill="#fff"/></svg>