<svg width="25" height="24" fill="none" xmlns="http://www.w3.org/2000/svg"><path d="M.011 18.94c-.05.39.068.73.356 1.018l3.382 3.355c.152.17.351.314.597.433.246.118.487.195.725.228.017 0 .067.005.152.013.085.009.195.013.33.013.323 0 .844-.055 1.564-.165.72-.11 1.602-.382 2.644-.814 1.043-.432 2.225-1.08 3.547-1.945 1.322-.864 2.729-2.05 4.22-3.56 1.187-1.169 2.17-2.287 2.95-3.355.78-1.068 1.406-2.055 1.88-2.962.475-.907.831-1.729 1.069-2.466.237-.737.398-1.373.483-1.907.084-.534.118-.953.101-1.258a21.038 21.038 0 01-.025-.509 2.473 2.473 0 00-.229-.724 1.906 1.906 0 00-.432-.598L19.944.356C19.706.119 19.435 0 19.13 0a.948.948 0 00-.585.19c-.17.128-.313.285-.432.471l-2.72 5.161a1.237 1.237 0 00-.127.89c.067.322.211.593.432.813l1.246 1.246a.424.424 0 01.089.165c.025.077.038.14.038.191-.068.356-.22.763-.458 1.22-.203.407-.517.903-.94 1.488-.424.584-1.026 1.258-1.806 2.02-.762.78-1.44 1.386-2.034 1.819-.593.432-1.089.75-1.487.953-.398.204-.703.326-.915.369l-.318.063a.605.605 0 01-.165-.038.425.425 0 01-.165-.089l-1.45-1.474a1.557 1.557 0 00-1.067-.407c-.289 0-.517.05-.687.152h-.025L.647 18.102c-.356.22-.568.5-.636.839z" fill="#fff"/></svg>