<svg width="54" height="54" fill="none" xmlns="http://www.w3.org/2000/svg"><path fill-rule="evenodd" clip-rule="evenodd" d="M.752 26.495c3.318.177 3.15-2.309 7.349-2.29 3.336.015 4.238 1.892 6.304 2.655 3.502-1.609 4.385-4.63 11.213-.938.251 4.94.655 20.87-.336 24.747-6.279 3.018-4.204-3.21-7.164-2.558-1.01.908-.449-1.206-.78 1.24-.556 4.117 11.041 8.286 11.017-2.297-.016-6.93-.259-14.244.047-21.132 6.856-3.707 7.844-.61 11.212.938 2.136-.788 3.11-2.804 6.714-2.648 3.852.167 3.729 2.447 6.94 2.283 1.537-6.041-3.73-13.233-6.837-16.233-3.953-3.816-11.236-6.554-17.903-6.993-.196-.952-.101-2.306-1.068-2.646-2.243-.028-1.589.808-1.96 2.646-4.296.28-7.158.983-10.588 2.487C6.088 9.626-1.218 18.742.752 26.495z" fill="#3D5AF1"/></svg>